<?xml version="1.0" encoding="UTF-8"?>
<!DOCTYPE svg PUBLIC "-//W3C//DTD SVG 1.1//EN" "http://www.w3.org/Graphics/SVG/1.1/DTD/svg11.dtd">
<!-- Creator: CorelDRAW 2020 (64 Bit Versão de avaliação) -->
<svg xmlns="http://www.w3.org/2000/svg" xml:space="preserve" width="1281px" height="131px" version="1.1" style="shape-rendering:geometricPrecision; text-rendering:geometricPrecision; image-rendering:optimizeQuality; fill-rule:evenodd; clip-rule:evenodd"
viewBox="0 0 384.32 39.2"
 xmlns:xlink="http://www.w3.org/1999/xlink"
 xmlns:xodm="http://www.corel.com/coreldraw/odm/2003">
 <defs>
  <style type="text/css">
   <![CDATA[
    .str0 {stroke:white;stroke-width:1.25;stroke-miterlimit:22.9256}
    .fil1 {fill:none;fill-rule:nonzero}
    .fil0 {fill:white;fill-rule:nonzero}
   ]]>
  </style>
 </defs>
 <g id="Camada_x0020_1">
  <metadata id="CorelCorpID_0Corel-Layer"/>
  <path class="fil0" d="M29.81 1.11l0 13.4c0,3.31 -1.35,6.19 -4.05,8.55 -2.7,2.35 -5.89,3.55 -9.57,3.55 -3.73,0 -6.97,-1.2 -9.62,-3.55 -2.65,-2.36 -4,-5.24 -4,-8.55l0 -13.4 -1.94 0 0 13.4c0,3.79 1.51,7.06 4.54,9.75 3.08,2.69 6.75,4.03 11.02,4.03 4.22,0 7.84,-1.34 10.92,-4.03 3.08,-2.69 4.6,-5.96 4.6,-9.75l0 -13.4 -1.9 0z"/>
  <path id="1" class="fil0" d="M71.65 14.41c0,-3.79 -1.57,-7.01 -4.65,-9.7 -3.08,-2.74 -6.75,-4.08 -11.03,-4.08 -4.27,0 -7.94,1.34 -11.02,4.08 -3.08,2.69 -4.6,5.91 -4.6,9.7l0 13.4 2 0 0 -13.4c0,-3.31 1.35,-6.15 4.06,-8.5 2.7,-2.4 5.89,-3.6 9.56,-3.6 3.73,0 6.92,1.2 9.63,3.6 2.7,2.35 4.05,5.19 4.05,8.5l0 13.4 2 0 0 -13.4z"/>
  <path id="2" class="fil0" d="M100.08 25.7c-1.73,0.62 -3.51,0.96 -5.3,0.96 -3.89,0 -7.13,-1.2 -9.78,-3.65 -2.59,-2.45 -3.89,-5.28 -3.89,-8.5 0,-3.46 1.35,-6.34 4.11,-8.65 2.75,-2.35 5.94,-3.51 9.56,-3.51 3.63,0 6.76,1.16 9.52,3.46 2.75,2.31 4.16,5.09 4.16,8.36l0 13.64 1.89 0 0 -13.3c0,-3.99 -1.57,-7.26 -4.7,-9.9 -3.08,-2.64 -6.7,-3.94 -10.87,-3.94 -4.37,0 -8.05,1.4 -11.08,4.13 -2.97,2.74 -4.48,5.96 -4.48,9.71 0,3.94 1.56,7.25 4.7,9.89 3.13,2.64 6.76,3.94 10.86,3.94 2.11,0 4.11,-0.38 6.06,-1.1l-0.76 -1.54z"/>
  <path id="3" class="fil0" d="M162.4 22.58c-2.65,2.69 -6.05,4.03 -10.1,4.03 -3.73,0 -6.98,-1.2 -9.63,-3.55 -2.64,-2.36 -3.94,-5.19 -3.94,-8.5 0,-3.27 1.35,-6.1 4,-8.46 2.65,-2.4 5.84,-3.6 9.57,-3.6 3.62,0 7.02,1.34 10.16,4.08l1.4 -1.1c-2.65,-2.93 -7.19,-4.66 -11.56,-4.66 -4.27,0 -7.9,1.34 -10.92,4.03 -3.03,2.69 -4.54,5.91 -4.54,9.71 0,3.74 1.51,6.96 4.54,9.7 3.08,2.69 6.7,4.03 10.92,4.03 4.27,0 8.1,-1.53 11.51,-4.56l-1.41 -1.15z"/>
  <path id="4" class="fil0" d="M201.38 14.46c0,-3.75 -1.52,-6.97 -4.6,-9.7 -3.03,-2.74 -6.65,-4.09 -10.92,-4.09 -4.27,0 -7.94,1.35 -10.97,4.09 -3.03,2.69 -4.54,5.9 -4.54,9.7 0,3.79 1.51,7.01 4.54,9.75 3.08,2.69 6.7,4.04 10.97,4.04 4.27,0 7.89,-1.35 10.92,-4.04 3.08,-2.74 4.6,-5.96 4.6,-9.75zm-1.9 0c0,3.31 -1.35,6.2 -4,8.55 -2.65,2.35 -5.89,3.55 -9.62,3.55 -3.73,0 -6.97,-1.2 -9.62,-3.55 -2.65,-2.35 -4,-5.24 -4,-8.55 0,-3.27 1.35,-6.1 4,-8.5 2.7,-2.4 5.89,-3.61 9.62,-3.61 3.73,0 6.92,1.21 9.57,3.61 2.7,2.4 4.05,5.23 4.05,8.5z"/>
  <path id="5" class="fil0" d="M248.89 9.8c0,-2.5 -1.08,-4.66 -3.19,-6.44 -2.11,-1.77 -4.54,-2.69 -7.3,-2.69 -3.95,0 -7.62,1.97 -9.4,5 -1.79,-3.07 -5.52,-5 -9.41,-5 -2.86,0 -5.4,0.92 -7.51,2.69 -2.11,1.78 -3.14,3.94 -3.14,6.44l0 18.01 2 0 0 -17.63c0,-2.11 0.87,-3.93 2.54,-5.47 1.68,-1.59 3.73,-2.36 6.11,-2.36 3.84,0 7.14,2.21 8.38,5.62l0 19.84 2 0 0 -19.84c1.13,-3.31 4.59,-5.62 8.43,-5.62 2.43,0 4.43,0.77 6.05,2.31 1.63,1.54 2.44,3.36 2.44,5.52l0 17.63 2 0 0 -18.01z"/>
  <path id="6" class="fil0" d="M288.72 14.51c0,-3.7 -1.51,-6.92 -4.48,-9.66 -2.98,-2.78 -6.71,-4.18 -11.08,-4.18 -4.11,0 -7.73,1.35 -10.92,3.99 -3.14,2.64 -4.7,5.91 -4.7,9.85l0 24.06 1.94 0 0 -24.4c0,-3.22 1.35,-5.96 4.06,-8.31 2.75,-2.35 5.94,-3.51 9.62,-3.51 3.62,0 6.81,1.16 9.51,3.51 2.76,2.35 4.11,5.24 4.11,8.65 0,3.22 -1.3,6.05 -3.89,8.5 -2.54,2.45 -5.79,3.65 -9.73,3.65 -1.84,0 -3.62,-0.34 -5.35,-0.96l-0.76 1.54c2,0.72 4,1.1 6.11,1.1 4.05,0 7.67,-1.3 10.81,-3.94 3.19,-2.64 4.75,-5.95 4.75,-9.89z"/>
  <path id="7" class="fil0" d="M311.8 0.63c-4.05,0 -7.67,1.29 -10.81,3.93 -3.13,2.6 -4.7,5.91 -4.7,9.9l0 13.35 1.89 0 0 -13.35c0,-3.31 1.35,-6.2 4,-8.55 2.65,-2.4 5.89,-3.6 9.62,-3.6l0 -1.68z"/>
  <path id="8" class="fil0" d="M336.45 25.7c-1.73,0.62 -3.51,0.96 -5.3,0.96 -3.89,0 -7.13,-1.2 -9.78,-3.65 -2.59,-2.45 -3.89,-5.28 -3.89,-8.5 0,-3.46 1.35,-6.34 4.11,-8.65 2.75,-2.35 5.94,-3.51 9.56,-3.51 3.63,0 6.76,1.16 9.52,3.46 2.75,2.31 4.16,5.09 4.16,8.36l0 13.64 1.89 0 0 -13.3c0,-3.99 -1.57,-7.26 -4.7,-9.9 -3.08,-2.64 -6.7,-3.94 -10.87,-3.94 -4.37,0 -8.05,1.4 -11.08,4.13 -2.97,2.74 -4.48,5.96 -4.48,9.71 0,3.94 1.57,7.25 4.7,9.89 3.14,2.64 6.76,3.94 10.86,3.94 2.11,0 4.11,-0.38 6.06,-1.1l-0.76 -1.54z"/>
  <path id="9" class="fil0" d="M356.83 8.94c1.03,-1.93 2.7,-3.51 4.92,-4.71 2.21,-1.25 4.59,-1.88 7.08,-1.88 4.27,0 8.59,1.83 11.35,5.48l1.62 -0.96c-2.81,-3.84 -7.73,-6.2 -12.97,-6.2 -3.41,0 -6.38,0.87 -8.97,2.55 -2.54,1.68 -4.44,3.84 -5.57,6.48l26.7 10.38c-2.22,3.7 -6.54,6.53 -12.16,6.53 -2.76,0 -5.3,-0.67 -7.62,-2.02 -2.33,-1.34 -4,-3.12 -5.03,-5.38l-1.78 0.58c1.46,3.27 4.27,5.77 7.13,6.92 2.97,1.1 5.35,1.58 7.3,1.58 3.3,0 6.22,-0.81 8.86,-2.49 2.65,-1.69 4.54,-3.85 5.79,-6.59l-26.65 -10.27z"/>
  <path id="10" class="fil1 str0" d="M29.81 1.11l0 13.4c0,3.31 -1.35,6.19 -4.05,8.55 -2.7,2.35 -5.89,3.55 -9.57,3.55 -3.73,0 -6.97,-1.2 -9.62,-3.55 -2.65,-2.36 -4,-5.24 -4,-8.55l0 -13.4 -1.94 0 0 13.4c0,3.79 1.51,7.06 4.54,9.75 3.08,2.69 6.75,4.03 11.02,4.03 4.22,0 7.84,-1.34 10.92,-4.03 3.08,-2.69 4.6,-5.96 4.6,-9.75l0 -13.4 -1.9 0z"/>
  <path id="11" class="fil1 str0" d="M71.65 14.41c0,-3.79 -1.57,-7.01 -4.65,-9.7 -3.08,-2.74 -6.75,-4.08 -11.03,-4.08 -4.27,0 -7.94,1.34 -11.02,4.08 -3.08,2.69 -4.6,5.91 -4.6,9.7l0 13.4 2 0 0 -13.4c0,-3.31 1.35,-6.15 4.06,-8.5 2.7,-2.4 5.89,-3.6 9.56,-3.6 3.73,0 6.92,1.2 9.63,3.6 2.7,2.35 4.05,5.19 4.05,8.5l0 13.4 2 0 0 -13.4z"/>
  <path id="12" class="fil1 str0" d="M100.08 25.7c-1.73,0.62 -3.51,0.96 -5.3,0.96 -3.89,0 -7.13,-1.2 -9.78,-3.65 -2.59,-2.45 -3.89,-5.28 -3.89,-8.5 0,-3.46 1.35,-6.34 4.11,-8.65 2.75,-2.35 5.94,-3.51 9.56,-3.51 3.63,0 6.76,1.16 9.52,3.46 2.75,2.31 4.16,5.09 4.16,8.36l0 13.64 1.89 0 0 -13.3c0,-3.99 -1.57,-7.26 -4.7,-9.9 -3.08,-2.64 -6.7,-3.94 -10.87,-3.94 -4.37,0 -8.05,1.4 -11.08,4.13 -2.97,2.74 -4.48,5.96 -4.48,9.71 0,3.94 1.56,7.25 4.7,9.89 3.13,2.64 6.76,3.94 10.86,3.94 2.11,0 4.11,-0.38 6.06,-1.1l-0.76 -1.54z"/>
  <path id="13" class="fil1 str0" d="M162.4 22.58c-2.65,2.69 -6.05,4.03 -10.1,4.03 -3.73,0 -6.98,-1.2 -9.63,-3.55 -2.64,-2.36 -3.94,-5.19 -3.94,-8.5 0,-3.27 1.35,-6.1 4,-8.46 2.65,-2.4 5.84,-3.6 9.57,-3.6 3.62,0 7.02,1.34 10.16,4.08l1.4 -1.1c-2.65,-2.93 -7.19,-4.66 -11.56,-4.66 -4.27,0 -7.9,1.34 -10.92,4.03 -3.03,2.69 -4.54,5.91 -4.54,9.71 0,3.74 1.51,6.96 4.54,9.7 3.08,2.69 6.7,4.03 10.92,4.03 4.27,0 8.1,-1.53 11.51,-4.56l-1.41 -1.15z"/>
  <path id="14" class="fil1 str0" d="M201.38 14.46c0,-3.75 -1.52,-6.97 -4.6,-9.7 -3.03,-2.74 -6.65,-4.09 -10.92,-4.09 -4.27,0 -7.94,1.35 -10.97,4.09 -3.03,2.69 -4.54,5.9 -4.54,9.7 0,3.79 1.51,7.01 4.54,9.75 3.08,2.69 6.7,4.04 10.97,4.04 4.27,0 7.89,-1.35 10.92,-4.04 3.08,-2.74 4.6,-5.96 4.6,-9.75zm-1.9 0c0,3.31 -1.35,6.2 -4,8.55 -2.65,2.35 -5.89,3.55 -9.62,3.55 -3.73,0 -6.97,-1.2 -9.62,-3.55 -2.65,-2.35 -4,-5.24 -4,-8.55 0,-3.27 1.35,-6.1 4,-8.5 2.7,-2.4 5.89,-3.61 9.62,-3.61 3.73,0 6.92,1.21 9.57,3.61 2.7,2.4 4.05,5.23 4.05,8.5z"/>
  <path id="15" class="fil1 str0" d="M248.89 9.8c0,-2.5 -1.08,-4.66 -3.19,-6.44 -2.11,-1.77 -4.54,-2.69 -7.3,-2.69 -3.95,0 -7.62,1.97 -9.4,5 -1.79,-3.07 -5.52,-5 -9.41,-5 -2.86,0 -5.4,0.92 -7.51,2.69 -2.11,1.78 -3.14,3.94 -3.14,6.44l0 18.01 2 0 0 -17.63c0,-2.11 0.87,-3.93 2.54,-5.47 1.68,-1.59 3.73,-2.36 6.11,-2.36 3.84,0 7.14,2.21 8.38,5.62l0 19.84 2 0 0 -19.84c1.13,-3.31 4.59,-5.62 8.43,-5.62 2.43,0 4.43,0.77 6.05,2.31 1.63,1.54 2.44,3.36 2.44,5.52l0 17.63 2 0 0 -18.01z"/>
  <path id="16" class="fil1 str0" d="M288.72 14.51c0,-3.7 -1.51,-6.92 -4.48,-9.66 -2.98,-2.78 -6.71,-4.18 -11.08,-4.18 -4.11,0 -7.73,1.35 -10.92,3.99 -3.14,2.64 -4.7,5.91 -4.7,9.85l0 24.06 1.94 0 0 -24.4c0,-3.22 1.35,-5.96 4.06,-8.31 2.75,-2.35 5.94,-3.51 9.62,-3.51 3.62,0 6.81,1.16 9.51,3.51 2.76,2.35 4.11,5.24 4.11,8.65 0,3.22 -1.3,6.05 -3.89,8.5 -2.54,2.45 -5.79,3.65 -9.73,3.65 -1.84,0 -3.62,-0.34 -5.35,-0.96l-0.76 1.54c2,0.72 4,1.1 6.11,1.1 4.05,0 7.67,-1.3 10.81,-3.94 3.19,-2.64 4.75,-5.95 4.75,-9.89z"/>
  <path id="17" class="fil1 str0" d="M311.8 0.63c-4.05,0 -7.67,1.29 -10.81,3.93 -3.13,2.6 -4.7,5.91 -4.7,9.9l0 13.35 1.89 0 0 -13.35c0,-3.31 1.35,-6.2 4,-8.55 2.65,-2.4 5.89,-3.6 9.62,-3.6l0 -1.68z"/>
  <path id="18" class="fil1 str0" d="M336.45 25.7c-1.73,0.62 -3.51,0.96 -5.3,0.96 -3.89,0 -7.13,-1.2 -9.78,-3.65 -2.59,-2.45 -3.89,-5.28 -3.89,-8.5 0,-3.46 1.35,-6.34 4.11,-8.65 2.75,-2.35 5.94,-3.51 9.56,-3.51 3.63,0 6.76,1.16 9.52,3.46 2.75,2.31 4.16,5.09 4.16,8.36l0 13.64 1.89 0 0 -13.3c0,-3.99 -1.57,-7.26 -4.7,-9.9 -3.08,-2.64 -6.7,-3.94 -10.87,-3.94 -4.37,0 -8.05,1.4 -11.08,4.13 -2.97,2.74 -4.48,5.96 -4.48,9.71 0,3.94 1.57,7.25 4.7,9.89 3.14,2.64 6.76,3.94 10.86,3.94 2.11,0 4.11,-0.38 6.06,-1.1l-0.76 -1.54z"/>
  <path id="19" class="fil1 str0" d="M356.83 8.94c1.03,-1.93 2.7,-3.51 4.92,-4.71 2.21,-1.25 4.59,-1.88 7.08,-1.88 4.27,0 8.59,1.83 11.35,5.48l1.62 -0.96c-2.81,-3.84 -7.73,-6.2 -12.97,-6.2 -3.41,0 -6.38,0.87 -8.97,2.55 -2.54,1.68 -4.44,3.84 -5.57,6.48l26.7 10.38c-2.22,3.7 -6.54,6.53 -12.16,6.53 -2.76,0 -5.3,-0.67 -7.62,-2.02 -2.33,-1.34 -4,-3.12 -5.03,-5.38l-1.78 0.58c1.46,3.27 4.27,5.77 7.13,6.92 2.97,1.1 5.35,1.58 7.3,1.58 3.3,0 6.22,-0.81 8.86,-2.49 2.65,-1.69 4.54,-3.85 5.79,-6.59l-26.65 -10.27z"/>
 </g>
</svg>
