<svg id="Camada_1" data-name="Camada 1" xmlns="http://www.w3.org/2000/svg" viewBox="0 0 1920 853"><defs><style>.cls-1,.cls-2{fill:#007cdc;}.cls-1{opacity:0.53;}</style></defs><path class="cls-1" d="M1891.8,34.08v609.7A15.31,15.31,0,0,1,1878.09,659L31.91,853.05A15.31,15.31,0,0,1,15,837.82V228.12a15.31,15.31,0,0,1,13.71-15.23l1846.18-194A15.31,15.31,0,0,1,1891.8,34.08Z"/><path class="cls-2" d="M1908,15.72v609.7a15.32,15.32,0,0,1-13.71,15.23L48.11,834.69A15.31,15.31,0,0,1,31.2,819.46V209.76a15.31,15.31,0,0,1,13.71-15.23L1891.09.49A15.31,15.31,0,0,1,1908,15.72Z"/></svg>