<svg id="Camada_1" data-name="Camada 1" xmlns="http://www.w3.org/2000/svg" viewBox="0 0 82 57"><path d="M11.73,52.46a3.7,3.7,0,0,1-2-.55,4.07,4.07,0,0,1-1.93-3.53l0-6.24a4.06,4.06,0,0,1,.51-2,4,4,0,0,1,1.4-1.46,3.89,3.89,0,0,1,4,0,3.9,3.9,0,0,1,1.4,1.45,4,4,0,0,1,.52,2v.92s0,.08-.08.08H13.31a.07.07,0,0,1-.08-.08v-.92A1.64,1.64,0,0,0,12.8,41a1.36,1.36,0,0,0-1.07-.48,1.31,1.31,0,0,0-1.1.49,1.81,1.81,0,0,0-.38,1.13v6.24a1.73,1.73,0,0,0,.43,1.2,1.38,1.38,0,0,0,1.05.46,1.33,1.33,0,0,0,1.07-.51,1.71,1.71,0,0,0,.43-1.15v-.92a.07.07,0,0,1,.08-.08h2.26c.06,0,.08,0,.08.08v.92a4,4,0,0,1-.53,2.06,4.14,4.14,0,0,1-1.41,1.47A3.6,3.6,0,0,1,11.73,52.46Z"/><path d="M22.07,52.46a3.66,3.66,0,0,1-2-.55,4.25,4.25,0,0,1-1.43-1.46,3.88,3.88,0,0,1-.54-2l0-6.34a3.91,3.91,0,0,1,.53-2,4.11,4.11,0,0,1,1.43-1.44,3.76,3.76,0,0,1,2-.54,3.66,3.66,0,0,1,2,.54,4.05,4.05,0,0,1,1.41,1.44,3.81,3.81,0,0,1,.53,2l0,6.34a3.87,3.87,0,0,1-.53,2A4.05,4.05,0,0,1,24,51.91,3.64,3.64,0,0,1,22.07,52.46Zm0-2.42a1.37,1.37,0,0,0,1.05-.49,1.61,1.61,0,0,0,.45-1.11l0-6.34A1.61,1.61,0,0,0,23.13,41a1.36,1.36,0,0,0-1.06-.46A1.44,1.44,0,0,0,21,41a1.57,1.57,0,0,0-.44,1.13v6.34A1.6,1.6,0,0,0,21,49.57,1.43,1.43,0,0,0,22.07,50Z"/><path d="M28.85,52.26c-.05,0-.08,0-.08-.1l0-13.74a.07.07,0,0,1,.08-.08h2.44a.17.17,0,0,1,.14.08l1.82,2.64,1.82-2.64a.19.19,0,0,1,.14-.08h2.46c.06,0,.08,0,.08.08l0,13.74c0,.07,0,.1-.08.1H35.49c-.05,0-.08,0-.08-.1l0-10.2-2.1,3-2.08-3,0,10.2c0,.07,0,.1-.08.1Z"/><path d="M40.87,52.26a.09.09,0,0,1-.1-.1l0-13.74a.07.07,0,0,1,.08-.08h3.84a3.81,3.81,0,0,1,2.91,1.12,4.2,4.2,0,0,1,1.07,3A5,5,0,0,1,48.15,45a4.12,4.12,0,0,1-1.46,1.6,3.66,3.66,0,0,1-2,.56H43.21v5c0,.07,0,.1-.1.1Zm2.34-7.56h1.52a1.36,1.36,0,0,0,1.11-.61,2.51,2.51,0,0,0,.47-1.59,1.92,1.92,0,0,0-.42-1.28,1.43,1.43,0,0,0-1.16-.5l-1.52,0Z"/><path d="M51.41,52.26s-.08,0-.08-.1l0-13.74a.07.07,0,0,1,.08-.08h4a3.9,3.9,0,0,1,2,.53,4,4,0,0,1,1.45,1.42,3.78,3.78,0,0,1,.54,2,3.71,3.71,0,0,1-.22,1.33,3.91,3.91,0,0,1-.52,1,3.48,3.48,0,0,1-.54.61,4.08,4.08,0,0,1,1.08,2.82l0,4.1c0,.07,0,.1-.1.1H56.93s-.08,0-.08-.06V48.06a1.74,1.74,0,0,0-.51-1.25,1.67,1.67,0,0,0-1.25-.53H53.77l0,5.88c0,.07,0,.1-.08.1Zm2.36-8.38h1.72a1.52,1.52,0,0,0,1.1-.46,1.5,1.5,0,0,0,.48-1.12,1.46,1.46,0,0,0-.47-1.1,1.51,1.51,0,0,0-1.11-.46H53.77Z"/><path d="M61.55,52.16,64,38.42a.11.11,0,0,1,.1-.08H67a.09.09,0,0,1,.1.08l2.38,13.74c0,.07,0,.1-.08.1H67.21s-.08,0-.1-.1l-.22-1.46H64.17L64,52.16c0,.07,0,.1-.1.1H61.63C61.58,52.26,61.55,52.23,61.55,52.16Zm3-3.6h1.92l-.82-5.62-.12-.74-.08.74Z"/><path d="M75,52.46a3.66,3.66,0,0,1-2-.55,4.22,4.22,0,0,1-1.42-1.46,4,4,0,0,1-.53-2v-.92a.09.09,0,0,1,.1-.1h2.24c.06,0,.08,0,.08.1v.92A1.6,1.6,0,0,0,74,49.57,1.43,1.43,0,0,0,75,50a1.37,1.37,0,0,0,1.06-.48,1.57,1.57,0,0,0,.44-1.12,1.54,1.54,0,0,0-1-1.28l-1-.56-1.28-.72a4.27,4.27,0,0,1-1.63-1.61,4.55,4.55,0,0,1-.53-2.19,3.78,3.78,0,0,1,.54-2,4.11,4.11,0,0,1,1.43-1.41,3.85,3.85,0,0,1,3.88,0,3.94,3.94,0,0,1,1.42,1.42,3.75,3.75,0,0,1,.53,2v1.64c0,.05,0,.08-.08.08H76.61a.07.07,0,0,1-.08-.08l0-1.64a1.51,1.51,0,0,0-.44-1.14A1.44,1.44,0,0,0,74,41a1.57,1.57,0,0,0-.44,1.11,2.06,2.06,0,0,0,.28,1.1,2.82,2.82,0,0,0,1,.84l.39.21c.2.1.41.21.63.34l.61.33.33.18a4.63,4.63,0,0,1,1.58,1.37,3.3,3.3,0,0,1,.58,2,3.94,3.94,0,0,1-.53,2.05A3.85,3.85,0,0,1,77,51.93,3.8,3.8,0,0,1,75,52.46Z"/><path d="M53.61,34H48.06l-10-17.06V34H32.89V8.08h5.54l10,17.08V8.08h5.18Z"/><path d="M78.85,34H73.66V28.8H63.29V34H58.13V18.45a10.16,10.16,0,0,1,.81-4,10.64,10.64,0,0,1,2.21-3.29A10.38,10.38,0,0,1,64.44,8.9a10.36,10.36,0,0,1,8.08,0,10.38,10.38,0,0,1,3.29,2.22A10.69,10.69,0,0,1,78,14.41a10.16,10.16,0,0,1,.81,4ZM73.66,23.64V18.45a5,5,0,0,0-.4-2,5.1,5.1,0,0,0-1.11-1.65,5.17,5.17,0,0,0-1.66-1.12,5,5,0,0,0-2-.4,5.13,5.13,0,0,0-2,.4,5.24,5.24,0,0,0-1.65,1.12,5.2,5.2,0,0,0-1.52,3.66v5.19Z"/><path d="M28.39,8.08V23.64a10.24,10.24,0,0,1-3,7.32,10.42,10.42,0,0,1-3.3,2.22,10.48,10.48,0,0,1-8.08,0,10.46,10.46,0,0,1-5.5-5.5,10.16,10.16,0,0,1-.81-4V9.09H3.05V6l9.79-1.49v19.1a5,5,0,0,0,.4,2,5.38,5.38,0,0,0,1.11,1.65A5.26,5.26,0,0,0,16,28.4a5.05,5.05,0,0,0,2,.41,5.14,5.14,0,0,0,2-.41,5.18,5.18,0,0,0,2.76-2.76,5,5,0,0,0,.41-2V8.08Z"/></svg>