<svg xmlns="http://www.w3.org/2000/svg" xmlns:xlink="http://www.w3.org/1999/xlink" viewBox="0 0 500 400"><defs><style>.cls-1,.cls-38,.cls-40{fill:url(#Gradiente_sem_nome_21);}.cls-1,.cls-2,.cls-3,.cls-4,.cls-5{clip-rule:evenodd;}.cls-2,.cls-54,.cls-56{fill:url(#Gradiente_sem_nome_21-2);}.cls-3,.cls-68,.cls-70{fill:url(#Gradiente_sem_nome_21-3);}.cls-4,.cls-82,.cls-84{fill:url(#Gradiente_sem_nome_21-4);}.cls-100,.cls-5,.cls-98{fill:url(#Gradiente_sem_nome_21-5);}.cls-6{isolation:isolate;}.cls-101,.cls-102,.cls-103,.cls-104,.cls-105,.cls-106,.cls-107,.cls-108,.cls-109,.cls-11,.cls-110,.cls-111,.cls-112,.cls-113,.cls-114,.cls-115,.cls-116,.cls-117,.cls-118,.cls-119,.cls-12,.cls-120,.cls-121,.cls-122,.cls-123,.cls-124,.cls-125,.cls-126,.cls-127,.cls-128,.cls-129,.cls-13,.cls-130,.cls-131,.cls-135,.cls-136,.cls-137,.cls-138,.cls-139,.cls-14,.cls-140,.cls-143,.cls-144,.cls-145,.cls-146,.cls-147,.cls-148,.cls-15,.cls-16,.cls-17,.cls-18,.cls-19,.cls-20,.cls-21,.cls-22,.cls-23,.cls-24,.cls-25,.cls-26,.cls-27,.cls-28,.cls-29,.cls-30,.cls-31,.cls-32,.cls-33,.cls-34,.cls-35,.cls-36,.cls-37,.cls-38,.cls-41,.cls-42,.cls-43,.cls-44,.cls-45,.cls-46,.cls-47,.cls-48,.cls-49,.cls-50,.cls-51,.cls-52,.cls-53,.cls-54,.cls-57,.cls-58,.cls-59,.cls-60,.cls-61,.cls-62,.cls-63,.cls-64,.cls-65,.cls-66,.cls-67,.cls-68,.cls-7,.cls-71,.cls-72,.cls-73,.cls-74,.cls-75,.cls-78,.cls-79,.cls-8,.cls-80,.cls-81,.cls-82,.cls-85,.cls-86,.cls-87,.cls-88,.cls-89,.cls-9,.cls-90,.cls-91,.cls-92,.cls-93,.cls-94,.cls-95,.cls-96,.cls-97,.cls-98{fill-rule:evenodd;}.cls-7{fill:url(#Áåçûìÿííûé_ãðàäèåíò_284);}.cls-8{fill:#aea1cf;opacity:0.63;}.cls-10,.cls-119,.cls-122,.cls-131,.cls-15,.cls-18,.cls-20,.cls-24,.cls-32,.cls-8{mix-blend-mode:multiply;}.cls-9{fill:#9e89b1;}.cls-10,.cls-122,.cls-18{opacity:0.3;}.cls-11{fill:#d1b5cf;}.cls-12{mix-blend-mode:hard-light;fill:url(#Gradiente_sem_nome_61);}.cls-13,.cls-14{fill:#f94852;}.cls-119,.cls-121,.cls-131,.cls-14,.cls-15,.cls-32{opacity:0.5;}.cls-15{fill:#8d3c67;}.cls-132,.cls-16{fill:#006bde;}.cls-17{fill:#264cbe;}.cls-18{fill:#540041;}.cls-19{fill:url(#Gradiente_sem_nome_21-6);}.cls-20{fill:#b01734;}.cls-20,.cls-24{opacity:0.2;}.cls-21{fill:url(#Gradiente_sem_nome_67);}.cls-22{fill:url(#Áåçûìÿííûé_ãðàäèåíò_201);}.cls-23{fill:#ff9f57;}.cls-118,.cls-121,.cls-146,.cls-23,.cls-25{mix-blend-mode:soft-light;}.cls-24,.cls-32{fill:#811734;}.cls-25{fill:#ffbf57;}.cls-26{fill:url(#Áåçûìÿííûé_ãðàäèåíò_13);}.cls-27{fill:url(#Áåçûìÿííûé_ãðàäèåíò_13-2);}.cls-28{fill:#ffd1b3;}.cls-29{fill:url(#Áåçûìÿííûé_ãðàäèåíò_192);}.cls-30{fill:#ff8d90;}.cls-31{fill:url(#Áåçûìÿííûé_ãðàäèåíò_192-2);}.cls-33{fill:url(#Gradiente_sem_nome_79);}.cls-34{fill:url(#Gradiente_sem_nome_79-2);}.cls-35{fill:url(#Gradiente_sem_nome_79-3);}.cls-36{fill:url(#Gradiente_sem_nome_79-4);}.cls-37{fill:url(#Gradiente_sem_nome_79-5);}.cls-39{clip-path:url(#clip-path);}.cls-41{fill:url(#Gradiente_sem_nome_21-9);}.cls-42{fill:url(#Gradiente_sem_nome_21-26);}.cls-43{fill:url(#Gradiente_sem_nome_21-27);}.cls-44{fill:url(#Gradiente_sem_nome_21-28);}.cls-45{fill:url(#Gradiente_sem_nome_21-29);}.cls-46{fill:url(#Gradiente_sem_nome_21-30);}.cls-47{fill:url(#Gradiente_sem_nome_21-31);}.cls-48{fill:url(#Gradiente_sem_nome_21-32);}.cls-49{fill:url(#Gradiente_sem_nome_21-33);}.cls-50{fill:url(#Gradiente_sem_nome_21-34);}.cls-51{fill:url(#Gradiente_sem_nome_21-35);}.cls-52{fill:url(#Gradiente_sem_nome_21-36);}.cls-53{fill:url(#Gradiente_sem_nome_21-37);}.cls-55{clip-path:url(#clip-path-2);}.cls-57{fill:url(#Gradiente_sem_nome_21-40);}.cls-58{fill:url(#Gradiente_sem_nome_21-72);}.cls-59{fill:url(#Gradiente_sem_nome_21-73);}.cls-60{fill:url(#Gradiente_sem_nome_21-74);}.cls-61{fill:url(#Gradiente_sem_nome_21-75);}.cls-62{fill:url(#Gradiente_sem_nome_21-76);}.cls-63{fill:url(#Gradiente_sem_nome_21-77);}.cls-64{fill:url(#Gradiente_sem_nome_21-78);}.cls-65{fill:url(#Gradiente_sem_nome_21-79);}.cls-66{fill:url(#Gradiente_sem_nome_21-80);}.cls-67{fill:url(#Gradiente_sem_nome_21-81);}.cls-69{clip-path:url(#clip-path-3);}.cls-71{fill:url(#Gradiente_sem_nome_21-84);}.cls-72{fill:url(#Gradiente_sem_nome_21-126);}.cls-73{fill:url(#Gradiente_sem_nome_21-127);}.cls-74{fill:url(#Gradiente_sem_nome_21-128);}.cls-75{fill:url(#Gradiente_sem_nome_21-129);}.cls-76{fill:url(#Gradiente_sem_nome_21-130);}.cls-77{fill:url(#Gradiente_sem_nome_21-131);}.cls-78{fill:url(#Gradiente_sem_nome_21-132);}.cls-79{fill:url(#Gradiente_sem_nome_21-133);}.cls-80{fill:url(#Gradiente_sem_nome_21-134);}.cls-81{fill:url(#Gradiente_sem_nome_21-135);}.cls-83{clip-path:url(#clip-path-4);}.cls-85{fill:url(#Gradiente_sem_nome_21-138);}.cls-86{fill:url(#Gradiente_sem_nome_21-170);}.cls-87{fill:url(#Gradiente_sem_nome_21-171);}.cls-88{fill:url(#Gradiente_sem_nome_21-172);}.cls-89{fill:url(#Gradiente_sem_nome_21-173);}.cls-90{fill:url(#Gradiente_sem_nome_21-174);}.cls-91{fill:url(#Gradiente_sem_nome_21-175);}.cls-92{fill:url(#Gradiente_sem_nome_21-176);}.cls-93{fill:url(#Gradiente_sem_nome_21-177);}.cls-94{fill:url(#Gradiente_sem_nome_21-178);}.cls-95{fill:url(#Gradiente_sem_nome_21-179);}.cls-96{fill:url(#Gradiente_sem_nome_21-180);}.cls-97{fill:url(#Gradiente_sem_nome_21-181);}.cls-99{clip-path:url(#clip-path-5);}.cls-101{fill:url(#Gradiente_sem_nome_21-184);}.cls-102{fill:url(#Gradiente_sem_nome_21-201);}.cls-103{fill:url(#Gradiente_sem_nome_21-202);}.cls-104{fill:url(#Gradiente_sem_nome_21-203);}.cls-105{fill:url(#Gradiente_sem_nome_21-204);}.cls-106{fill:url(#Gradiente_sem_nome_21-205);}.cls-107{fill:url(#Gradiente_sem_nome_21-206);}.cls-108{fill:url(#Gradiente_sem_nome_21-207);}.cls-109{fill:url(#Gradiente_sem_nome_21-208);}.cls-110{fill:url(#Gradiente_sem_nome_21-209);}.cls-111{fill:url(#Gradiente_sem_nome_21-210);}.cls-112{fill:url(#Gradiente_sem_nome_21-211);}.cls-113{fill:url(#Gradiente_sem_nome_21-212);}.cls-114{fill:url(#Gradiente_sem_nome_21-213);}.cls-115{fill:#ffdec8;}.cls-116,.cls-117,.cls-123,.cls-142,.cls-147,.cls-148{mix-blend-mode:screen;}.cls-116{fill:url(#Áåçûìÿííûé_ãðàäèåíò_267);}.cls-117{fill:url(#Áåçûìÿííûé_ãðàäèåíò_267-2);}.cls-118{fill:#ffb657;}.cls-119{fill:#ac2a41;}.cls-120{fill:#009cf8;}.cls-121{fill:#ffe856;}.cls-122{fill:#d67995;}.cls-123{fill:url(#Áåçûìÿííûé_ãðàäèåíò_310);}.cls-124{fill:#fff;}.cls-125{fill:url(#Áåçûìÿííûé_ãðàäèåíò_233);}.cls-126{fill:url(#Áåçûìÿííûé_ãðàäèåíò_102);}.cls-127{fill:url(#Áåçûìÿííûé_ãðàäèåíò_233-2);}.cls-128{fill:url(#Áåçûìÿííûé_ãðàäèåíò_7);}.cls-129{fill:url(#Áåçûìÿííûé_ãðàäèåíò_233-3);}.cls-130{fill:url(#Áåçûìÿííûé_ãðàäèåíò_50);}.cls-131{fill:url(#Áåçûìÿííûé_ãðàäèåíò_321);}.cls-133{fill:url(#Gradiente_sem_nome_49);}.cls-134{opacity:0.43;}.cls-135{fill:url(#Gradiente_sem_nome_27);}.cls-136{fill:url(#Gradiente_sem_nome_27-2);}.cls-137{fill:url(#Áåçûìÿííûé_ãðàäèåíò_132);}.cls-138{fill:#1c31b5;}.cls-139{fill:#b870a1;}.cls-140{fill:#a9528d;}.cls-141{fill:#e7daff;}.cls-142{fill:url(#Áåçûìÿííûé_ãðàäèåíò_108);}.cls-143{fill:url(#Áåçûìÿííûé_ãðàäèåíò_50-2);}.cls-144{fill:url(#Áåçûìÿííûé_ãðàäèåíò_13-3);}.cls-145{fill:url(#Áåçûìÿííûé_ãðàäèåíò_6);}.cls-146{fill:#fbf9fa;opacity:0.8;}.cls-147{fill:url(#Áåçûìÿííûé_ãðàäèåíò_225);}.cls-148{fill:url(#Áåçûìÿííûé_ãðàäèåíò_129);}</style><linearGradient id="Gradiente_sem_nome_21" x1="169.08" y1="139.33" x2="193.26" y2="139.33" gradientUnits="userSpaceOnUse"><stop offset="0" stop-color="#a7d4ef"/><stop offset="1" stop-color="#d4d4d4"/></linearGradient><linearGradient id="Gradiente_sem_nome_21-2" x1="204.88" y1="139.79" x2="223.93" y2="139.79" xlink:href="#Gradiente_sem_nome_21"/><linearGradient id="Gradiente_sem_nome_21-3" x1="240.1" y1="139.94" x2="258.27" y2="139.94" xlink:href="#Gradiente_sem_nome_21"/><linearGradient id="Gradiente_sem_nome_21-4" x1="271.97" y1="139.62" x2="294.23" y2="139.62" xlink:href="#Gradiente_sem_nome_21"/><linearGradient id="Gradiente_sem_nome_21-5" x1="305.01" y1="138.94" x2="329.91" y2="138.94" xlink:href="#Gradiente_sem_nome_21"/><radialGradient id="Áåçûìÿííûé_ãðàäèåíò_284" cx="250" cy="299.16" r="175.6" gradientUnits="userSpaceOnUse"><stop offset="0" stop-color="#ffe6ee"/><stop offset="0.38" stop-color="#f8e4ed"/><stop offset="0.92" stop-color="#e5ddeb"/><stop offset="0.98" stop-color="#e2dceb"/></radialGradient><linearGradient id="Gradiente_sem_nome_61" x1="56.53" y1="301.01" x2="309.66" y2="301.01" gradientUnits="userSpaceOnUse"><stop offset="0.01" stop-color="#006bde"/><stop offset="1" stop-color="#009cf8"/></linearGradient><linearGradient id="Gradiente_sem_nome_21-6" x1="249.5" y1="144.63" x2="249.5" y2="83.31" xlink:href="#Gradiente_sem_nome_21"/><linearGradient id="Gradiente_sem_nome_67" x1="249.79" y1="258.18" x2="249.79" y2="135.74" gradientUnits="userSpaceOnUse"><stop offset="0" stop-color="#bbe2f2"/><stop offset="1" stop-color="#006bde"/></linearGradient><radialGradient id="Áåçûìÿííûé_ãðàäèåíò_201" cx="248.83" cy="258.96" r="57.73" gradientUnits="userSpaceOnUse"><stop offset="0" stop-color="#ffd1a9"/><stop offset="0.99" stop-color="#f9b7a0"/></radialGradient><radialGradient id="Áåçûìÿííûé_ãðàäèåíò_13" cx="170.32" cy="164.79" r="14.22" gradientUnits="userSpaceOnUse"><stop offset="0" stop-color="#ebd7e3"/><stop offset="0.98" stop-color="#bdafd2"/></radialGradient><radialGradient id="Áåçûìÿííûé_ãðàäèåíò_13-2" cx="-5326.25" cy="164.79" r="14.22" gradientTransform="matrix(-1, 0, 0, 1, -4999.09, 0)" xlink:href="#Áåçûìÿííûé_ãðàäèåíò_13"/><radialGradient id="Áåçûìÿííûé_ãðàäèåíò_192" cx="217.8" cy="238.78" r="51.7" gradientUnits="userSpaceOnUse"><stop offset="0" stop-color="aqua"/><stop offset="0.99" stop-color="#26a9ff"/></radialGradient><radialGradient id="Áåçûìÿííûé_ãðàäèåíò_192-2" cx="289.72" cy="239.95" r="31.18" xlink:href="#Áåçûìÿííûé_ãðàäèåíò_192"/><radialGradient id="Gradiente_sem_nome_79" cx="967.33" cy="2327.71" r="17.15" gradientTransform="translate(-575.91 -2132.06) scale(0.78 0.99)" gradientUnits="userSpaceOnUse"><stop offset="0" stop-color="#bbe2f2"/><stop offset="0.99" stop-color="#e3e3e3"/></radialGradient><radialGradient id="Gradiente_sem_nome_79-2" cx="1012.88" cy="2327.71" r="16.69" xlink:href="#Gradiente_sem_nome_79"/><radialGradient id="Gradiente_sem_nome_79-3" cx="1058.55" cy="2327.71" r="16.39" xlink:href="#Gradiente_sem_nome_79"/><radialGradient id="Gradiente_sem_nome_79-4" cx="1104.16" cy="2327.71" r="16.77" xlink:href="#Gradiente_sem_nome_79"/><radialGradient id="Gradiente_sem_nome_79-5" cx="1149.71" cy="2327.71" r="17.23" xlink:href="#Gradiente_sem_nome_79"/><clipPath id="clip-path"><polygon class="cls-1" points="169.08 146.36 182.2 131.59 193.26 131.47 186.9 147.18 169.08 146.36"/></clipPath><linearGradient id="Gradiente_sem_nome_21-9" x1="168.12" y1="139.33" x2="194.22" y2="139.33" xlink:href="#Gradiente_sem_nome_21"/><linearGradient id="Gradiente_sem_nome_21-26" x1="166.51" y1="138.82" x2="194.22" y2="138.82" xlink:href="#Gradiente_sem_nome_21"/><linearGradient id="Gradiente_sem_nome_21-27" x1="168.88" y1="139.6" x2="194.22" y2="139.6" xlink:href="#Gradiente_sem_nome_21"/><linearGradient id="Gradiente_sem_nome_21-28" x1="171.26" y1="139.71" x2="194.22" y2="139.71" xlink:href="#Gradiente_sem_nome_21"/><linearGradient id="Gradiente_sem_nome_21-29" x1="173.64" y1="136.96" x2="194.22" y2="136.96" xlink:href="#Gradiente_sem_nome_21"/><linearGradient id="Gradiente_sem_nome_21-30" x1="176.02" y1="140.06" x2="194.22" y2="140.06" xlink:href="#Gradiente_sem_nome_21"/><linearGradient id="Gradiente_sem_nome_21-31" x1="178.4" y1="140.17" x2="194.22" y2="140.17" xlink:href="#Gradiente_sem_nome_21"/><linearGradient id="Gradiente_sem_nome_21-32" x1="180.78" y1="140.28" x2="194.22" y2="140.28" xlink:href="#Gradiente_sem_nome_21"/><linearGradient id="Gradiente_sem_nome_21-33" x1="183.16" y1="140.39" x2="194.22" y2="140.39" xlink:href="#Gradiente_sem_nome_21"/><linearGradient id="Gradiente_sem_nome_21-34" x1="185.54" y1="140.5" x2="194.22" y2="140.5" xlink:href="#Gradiente_sem_nome_21"/><linearGradient id="Gradiente_sem_nome_21-35" x1="187.92" y1="138.38" x2="194.22" y2="138.38" xlink:href="#Gradiente_sem_nome_21"/><linearGradient id="Gradiente_sem_nome_21-36" x1="190.3" y1="138.58" x2="195.14" y2="138.58" xlink:href="#Gradiente_sem_nome_21"/><linearGradient id="Gradiente_sem_nome_21-37" x1="192.68" y1="138.77" x2="197.33" y2="138.77" xlink:href="#Gradiente_sem_nome_21"/><clipPath id="clip-path-2"><polygon class="cls-2" points="204.88 147.84 208.62 131.36 223.93 131.29 222.41 148.29 204.88 147.84"/></clipPath><linearGradient id="Gradiente_sem_nome_21-40" x1="203.92" y1="139.79" x2="224.89" y2="139.79" xlink:href="#Gradiente_sem_nome_21"/><linearGradient id="Gradiente_sem_nome_21-72" x1="202.19" y1="139.28" x2="224.89" y2="139.28" xlink:href="#Gradiente_sem_nome_21"/><linearGradient id="Gradiente_sem_nome_21-73" x1="204.57" y1="140.62" x2="224.89" y2="140.62" xlink:href="#Gradiente_sem_nome_21"/><linearGradient id="Gradiente_sem_nome_21-74" x1="206.95" y1="137.95" x2="224.89" y2="137.95" xlink:href="#Gradiente_sem_nome_21"/><linearGradient id="Gradiente_sem_nome_21-75" x1="209.33" y1="138.31" x2="224.89" y2="138.31" xlink:href="#Gradiente_sem_nome_21"/><linearGradient id="Gradiente_sem_nome_21-76" x1="211.71" y1="141.5" x2="224.89" y2="141.5" xlink:href="#Gradiente_sem_nome_21"/><linearGradient id="Gradiente_sem_nome_21-77" x1="214.1" y1="139.61" x2="224.89" y2="139.61" xlink:href="#Gradiente_sem_nome_21"/><linearGradient id="Gradiente_sem_nome_21-78" x1="216.48" y1="139.93" x2="226.42" y2="139.93" xlink:href="#Gradiente_sem_nome_21"/><linearGradient id="Gradiente_sem_nome_21-79" x1="218.86" y1="140.25" x2="228.09" y2="140.25" xlink:href="#Gradiente_sem_nome_21"/><linearGradient id="Gradiente_sem_nome_21-80" x1="221.24" y1="140.56" x2="229.76" y2="140.56" xlink:href="#Gradiente_sem_nome_21"/><linearGradient id="Gradiente_sem_nome_21-81" x1="223.62" y1="140.88" x2="231.43" y2="140.88" xlink:href="#Gradiente_sem_nome_21"/><clipPath id="clip-path-3"><polygon class="cls-3" points="240.66 148.57 240.1 131.38 256.72 131.31 258.27 148.57 240.66 148.57"/></clipPath><linearGradient id="Gradiente_sem_nome_21-84" x1="239.14" y1="139.94" x2="259.23" y2="139.94" xlink:href="#Gradiente_sem_nome_21"/><linearGradient id="Gradiente_sem_nome_21-126" x1="232.72" y1="137.4" x2="259.23" y2="137.4" xlink:href="#Gradiente_sem_nome_21"/><linearGradient id="Gradiente_sem_nome_21-127" x1="234.44" y1="138.37" x2="265.52" y2="138.37" xlink:href="#Gradiente_sem_nome_21"/><linearGradient id="Gradiente_sem_nome_21-128" x1="236.15" y1="139.33" x2="263.79" y2="139.33" xlink:href="#Gradiente_sem_nome_21"/><linearGradient id="Gradiente_sem_nome_21-129" x1="232.77" y1="140.3" x2="262.05" y2="140.3" xlink:href="#Gradiente_sem_nome_21"/><linearGradient id="Gradiente_sem_nome_21-130" x1="235.21" y1="144.58" x2="264.52" y2="144.58" gradientTransform="translate(392.14 -106.61) rotate(89.47)" xlink:href="#Gradiente_sem_nome_21"/><linearGradient id="Gradiente_sem_nome_21-131" x1="237.65" y1="144.58" x2="262.08" y2="144.58" gradientTransform="translate(392.14 -106.61) rotate(89.47)" xlink:href="#Gradiente_sem_nome_21"/><linearGradient id="Gradiente_sem_nome_21-132" x1="240.1" y1="144.58" x2="259.64" y2="144.58" xlink:href="#Gradiente_sem_nome_21"/><linearGradient id="Gradiente_sem_nome_21-133" x1="242.54" y1="144.58" x2="257.2" y2="144.58" xlink:href="#Gradiente_sem_nome_21"/><linearGradient id="Gradiente_sem_nome_21-134" x1="244.98" y1="144.58" x2="254.75" y2="144.58" xlink:href="#Gradiente_sem_nome_21"/><linearGradient id="Gradiente_sem_nome_21-135" x1="247.42" y1="144.58" x2="252.31" y2="144.58" xlink:href="#Gradiente_sem_nome_21"/><clipPath id="clip-path-4"><polygon class="cls-4" points="276.24 148.31 271.97 131.01 286.88 130.92 294.23 147.85 276.24 148.31"/></clipPath><linearGradient id="Gradiente_sem_nome_21-138" x1="271.01" y1="139.62" x2="295.19" y2="139.62" xlink:href="#Gradiente_sem_nome_21"/><linearGradient id="Gradiente_sem_nome_21-170" x1="271.01" y1="136.46" x2="297.73" y2="136.46" xlink:href="#Gradiente_sem_nome_21"/><linearGradient id="Gradiente_sem_nome_21-171" x1="271.01" y1="138.36" x2="295.34" y2="138.36" xlink:href="#Gradiente_sem_nome_21"/><linearGradient id="Gradiente_sem_nome_21-172" x1="271.01" y1="138.68" x2="292.95" y2="138.68" xlink:href="#Gradiente_sem_nome_21"/><linearGradient id="Gradiente_sem_nome_21-173" x1="271.01" y1="139" x2="290.56" y2="139" xlink:href="#Gradiente_sem_nome_21"/><linearGradient id="Gradiente_sem_nome_21-174" x1="271.01" y1="137.06" x2="288.17" y2="137.06" xlink:href="#Gradiente_sem_nome_21"/><linearGradient id="Gradiente_sem_nome_21-175" x1="271.01" y1="140.17" x2="285.78" y2="140.17" xlink:href="#Gradiente_sem_nome_21"/><linearGradient id="Gradiente_sem_nome_21-176" x1="271.01" y1="140.45" x2="283.4" y2="140.45" xlink:href="#Gradiente_sem_nome_21"/><linearGradient id="Gradiente_sem_nome_21-177" x1="271.01" y1="140.73" x2="281.01" y2="140.73" xlink:href="#Gradiente_sem_nome_21"/><linearGradient id="Gradiente_sem_nome_21-178" x1="270.37" y1="141.01" x2="278.62" y2="141.01" xlink:href="#Gradiente_sem_nome_21"/><linearGradient id="Gradiente_sem_nome_21-179" x1="268.67" y1="141.29" x2="276.23" y2="141.29" xlink:href="#Gradiente_sem_nome_21"/><linearGradient id="Gradiente_sem_nome_21-180" x1="266.97" y1="141.58" x2="273.84" y2="141.58" xlink:href="#Gradiente_sem_nome_21"/><linearGradient id="Gradiente_sem_nome_21-181" x1="265.27" y1="141.86" x2="271.45" y2="141.86" xlink:href="#Gradiente_sem_nome_21"/><clipPath id="clip-path-5"><polygon class="cls-5" points="312.1 147.2 305.01 130.82 317.97 130.68 329.91 146.38 312.1 147.2"/></clipPath><linearGradient id="Gradiente_sem_nome_21-184" x1="304.05" y1="138.94" x2="330.87" y2="138.94" xlink:href="#Gradiente_sem_nome_21"/><linearGradient id="Gradiente_sem_nome_21-201" x1="304.05" y1="136.44" x2="331.81" y2="136.44" xlink:href="#Gradiente_sem_nome_21"/><linearGradient id="Gradiente_sem_nome_21-202" x1="304.05" y1="138.03" x2="331" y2="138.03" xlink:href="#Gradiente_sem_nome_21"/><linearGradient id="Gradiente_sem_nome_21-203" x1="304.05" y1="138.19" x2="328.62" y2="138.19" xlink:href="#Gradiente_sem_nome_21"/><linearGradient id="Gradiente_sem_nome_21-204" x1="304.05" y1="138.36" x2="326.25" y2="138.36" xlink:href="#Gradiente_sem_nome_21"/><linearGradient id="Gradiente_sem_nome_21-205" x1="304.05" y1="138.52" x2="323.87" y2="138.52" xlink:href="#Gradiente_sem_nome_21"/><linearGradient id="Gradiente_sem_nome_21-206" x1="304.05" y1="138.68" x2="321.49" y2="138.68" xlink:href="#Gradiente_sem_nome_21"/><linearGradient id="Gradiente_sem_nome_21-207" x1="304.05" y1="138.84" x2="319.11" y2="138.84" xlink:href="#Gradiente_sem_nome_21"/><linearGradient id="Gradiente_sem_nome_21-208" x1="304.05" y1="139.18" x2="316.73" y2="139.18" xlink:href="#Gradiente_sem_nome_21"/><linearGradient id="Gradiente_sem_nome_21-209" x1="304.05" y1="139.34" x2="314.35" y2="139.34" xlink:href="#Gradiente_sem_nome_21"/><linearGradient id="Gradiente_sem_nome_21-210" x1="304.05" y1="139.5" x2="311.97" y2="139.5" xlink:href="#Gradiente_sem_nome_21"/><linearGradient id="Gradiente_sem_nome_21-211" x1="304.05" y1="139.65" x2="309.6" y2="139.65" xlink:href="#Gradiente_sem_nome_21"/><linearGradient id="Gradiente_sem_nome_21-212" x1="302.89" y1="139.81" x2="307.22" y2="139.81" xlink:href="#Gradiente_sem_nome_21"/><linearGradient id="Gradiente_sem_nome_21-213" x1="300.69" y1="139.96" x2="304.84" y2="139.96" xlink:href="#Gradiente_sem_nome_21"/><linearGradient id="Áåçûìÿííûé_ãðàäèåíò_267" x1="223.92" y1="236.85" x2="223.92" y2="189.78" gradientUnits="userSpaceOnUse"><stop offset="0" stop-color="#953d5e"/><stop offset="1" stop-color="#86ccd9"/></linearGradient><linearGradient id="Áåçûìÿííûé_ãðàäèåíò_267-2" x1="290.94" y1="239.91" x2="290.94" y2="199.84" xlink:href="#Áåçûìÿííûé_ãðàäèåíò_267"/><radialGradient id="Áåçûìÿííûé_ãðàäèåíò_310" cx="325.93" cy="265.34" r="7.89" gradientUnits="userSpaceOnUse"><stop offset="0" stop-color="#ffc206"/><stop offset="1"/></radialGradient><linearGradient id="Áåçûìÿííûé_ãðàäèåíò_233" x1="78.09" y1="714.18" x2="78.09" y2="648.88" gradientTransform="translate(-80.19 -411.46) rotate(-8.9)" gradientUnits="userSpaceOnUse"><stop offset="0" stop-color="#ff6e27"/><stop offset="1" stop-color="#e03347"/></linearGradient><linearGradient id="Áåçûìÿííûé_ãðàäèåíò_102" x1="81.62" y1="714.18" x2="81.62" y2="650.59" gradientTransform="translate(-80.19 -411.46) rotate(-8.9)" gradientUnits="userSpaceOnUse"><stop offset="0" stop-color="#c73e27"/><stop offset="1" stop-color="#a4152c"/></linearGradient><linearGradient id="Áåçûìÿííûé_ãðàäèåíò_233-2" x1="75.08" y1="716.39" x2="75.08" y2="628.92" xlink:href="#Áåçûìÿííûé_ãðàäèåíò_233"/><linearGradient id="Áåçûìÿííûé_ãðàäèåíò_7" x1="96.19" y1="716.23" x2="96.19" y2="624.83" gradientTransform="translate(-80.19 -411.46) rotate(-8.9)" gradientUnits="userSpaceOnUse"><stop offset="0" stop-color="#ff8647"/><stop offset="1" stop-color="#ffb934"/></linearGradient><linearGradient id="Áåçûìÿííûé_ãðàäèåíò_233-3" x1="121.53" y1="708.89" x2="121.53" y2="691.07" xlink:href="#Áåçûìÿííûé_ãðàäèåíò_233"/><linearGradient id="Áåçûìÿííûé_ãðàäèåíò_50" x1="68.93" y1="662.01" x2="121.53" y2="662.01" gradientTransform="translate(-80.19 -411.46) rotate(-8.9)" gradientUnits="userSpaceOnUse"><stop offset="0" stop-color="#603082"/><stop offset="0.99" stop-color="#2a0e51"/></linearGradient><linearGradient id="Áåçûìÿííûé_ãðàäèåíò_321" x1="321.76" y1="297.22" x2="346.06" y2="297.22" gradientUnits="userSpaceOnUse"><stop offset="0" stop-color="#af8190"/><stop offset="1" stop-color="#efe0d8"/></linearGradient><radialGradient id="Gradiente_sem_nome_49" cx="4.26" cy="1768.24" r="31.29" gradientTransform="translate(-553.77 -1224.66) rotate(-32.8)" gradientUnits="userSpaceOnUse"><stop offset="0.02" stop-color="#009cf8"/><stop offset="0.25" stop-color="#0085ec"/><stop offset="0.52" stop-color="#0072e2"/><stop offset="0.7" stop-color="#006bde"/><stop offset="0.98" stop-color="#009cf8"/></radialGradient><radialGradient id="Gradiente_sem_nome_27" cx="3.42" cy="1768.21" r="27.39" gradientTransform="translate(-553.77 -1224.66) rotate(-32.8)" gradientUnits="userSpaceOnUse"><stop offset="0" stop-color="#ffb657"/><stop offset="0.99" stop-color="#006bde"/></radialGradient><radialGradient id="Gradiente_sem_nome_27-2" cx="395.5" cy="598.88" r="27.39" gradientTransform="translate(-40.47 -305.87) rotate(-6.99)" xlink:href="#Gradiente_sem_nome_27"/><linearGradient id="Áåçûìÿííûé_ãðàäèåíò_132" x1="3.38" y1="1756.47" x2="3.38" y2="1756.28" gradientTransform="translate(-553.77 -1224.66) rotate(-32.8)" gradientUnits="userSpaceOnUse"><stop offset="0" stop-color="#fdcdd3"/><stop offset="1" stop-color="#ffeacd"/></linearGradient><radialGradient id="Áåçûìÿííûé_ãðàäèåíò_108" cx="911.23" cy="444.94" r="21.96" gradientTransform="matrix(-0.88, -0.08, -0.08, 0.89, 880.92, -63.07)" gradientUnits="userSpaceOnUse"><stop offset="0.23"/><stop offset="0.52" stop-color="#010102"/><stop offset="0.62" stop-color="#040509"/><stop offset="0.69" stop-color="#0a0d14"/><stop offset="0.75" stop-color="#131725"/><stop offset="0.81" stop-color="#1e243b"/><stop offset="0.85" stop-color="#2c3557"/><stop offset="0.89" stop-color="#3c4977"/><stop offset="0.93" stop-color="#4f609d"/><stop offset="0.96" stop-color="#657ac8"/><stop offset="0.99" stop-color="#7c96f6"/><stop offset="1" stop-color="#819cff"/></radialGradient><linearGradient id="Áåçûìÿííûé_ãðàäèåíò_50-2" x1="890.58" y1="461.31" x2="890.58" y2="452.81" gradientTransform="matrix(-0.88, -0.09, -0.08, 1, 880.92, -95.44)" xlink:href="#Áåçûìÿííûé_ãðàäèåíò_50"/><radialGradient id="Áåçûìÿííûé_ãðàäèåíò_13-3" cx="873.74" cy="171.31" r="19.13" gradientTransform="matrix(-0.88, 0, 0, 0.89, 847.67, 147.99)" xlink:href="#Áåçûìÿííûé_ãðàäèåíò_13"/><linearGradient id="Áåçûìÿííûé_ãðàäèåíò_6" x1="855.4" y1="483.46" x2="868.09" y2="483.46" gradientTransform="matrix(-0.88, -0.09, -0.08, 1, 880.92, -95.44)" gradientUnits="userSpaceOnUse"><stop offset="0" stop-color="#9993b4"/><stop offset="1" stop-color="#775ba2"/></linearGradient><linearGradient id="Áåçûìÿííûé_ãðàäèåíò_225" x1="864.73" y1="472.48" x2="893.28" y2="472.48" gradientTransform="matrix(-0.88, -0.09, -0.08, 1, 880.92, -95.44)" gradientUnits="userSpaceOnUse"><stop offset="0"/><stop offset="1" stop-color="#bd9f65"/></linearGradient><linearGradient id="Áåçûìÿííûé_ãðàäèåíò_129" x1="909.92" y1="456.39" x2="909.92" y2="417.34" gradientTransform="matrix(-0.88, -0.09, -0.08, 1, 880.92, -95.44)" gradientUnits="userSpaceOnUse"><stop offset="0"/><stop offset="1" stop-color="#959f9a"/></linearGradient></defs><g class="cls-6"><g id="DESIGNED_BY_FREEPIK" data-name="DESIGNED BY FREEPIK"><path class="cls-7" d="M3.89,323.63l91.64-17.42,93.76,26.15,41-27.14,10.2,27.14,105.56-31.19C389,320.7,421.53,330,461,331.43l35.07-3.49-58.24-14-65.18-28.17-45-19.8-75,18.79-5.37-15.43-26.9,24.4-62.59-20.19L95.53,290.36Z"/><path class="cls-8" d="M346.06,301.17,327.68,266l112.42,49L461,331.43C420.06,329.56,390.38,321.11,346.06,301.17Z"/><polygon class="cls-8" points="252.68 284.76 240.5 332.36 230.31 305.22 247.31 269.33 252.68 284.76"/><polygon class="cls-8" points="220.41 293.73 189.29 332.36 95.53 306.21 157.82 273.54 220.41 293.73"/><path class="cls-9" d="M496.11,327.94l-1.66,3-35.34,2.86c-43.59-4.94-71.41-12.18-114.18-29.28l-105.56,30-9.07-27-41,26.66L95.53,308.41c-36.77,3.91-56.65,8.33-89.66,18.65l-2-3.43c35.1-8.95,56.23-13.45,91.64-17.42l93.76,26.15,41-27.14,10.2,27.14,105.56-31.19c38.81,16.69,64.17,27.39,115,30.26Z"/><g class="cls-10"><polygon class="cls-11" points="107.24 304.52 125.15 298.74 143.35 304.52 137.73 313.26 107.24 304.52"/><polygon class="cls-11" points="52.44 306 103.99 296.74 85.56 306 16.62 319.01 52.44 306"/><polygon class="cls-11" points="108.95 286.73 95.53 292.91 128.48 286.73 138.83 278.67 108.95 286.73"/><polygon class="cls-11" points="155.65 274.68 143.35 281.13 141.81 288.25 171.8 296.74 186.47 284.36 155.65 274.68"/><polygon class="cls-11" points="190.68 285.68 176.73 298.74 198.73 304.52 206.78 302.95 213.5 292.91 190.68 285.68"/><polygon class="cls-11" points="160.35 319.75 173.81 304.52 195.11 309.9 200.78 318.1 215.72 307.88 212.64 314.57 192.11 328.86 160.35 319.75"/><polygon class="cls-11" points="199.37 306 204.03 313.26 210.45 304.52 199.37 306"/><polygon class="cls-11" points="208.45 310.07 223.07 300.35 230.31 284.76 219.53 294.75 208.45 310.07"/><polygon class="cls-11" points="215.72 312.43 217.94 306 231.19 297.42 229.36 302.95 215.72 312.43"/><polygon class="cls-11" points="234.33 281.48 229.31 292.91 238.84 287.2 246.88 270.23 234.33 281.48"/><polygon class="cls-11" points="239.06 289.58 236.94 303.84 246.88 307.4 251.55 289.17 247.4 271.69 239.06 289.58"/><polygon class="cls-11" points="241.81 326.56 236.94 308.89 246.18 310.15 241.81 326.56"/><polygon class="cls-11" points="244.24 327.6 247.68 310.07 262.42 307.88 273.21 312.43 289 313.26 244.24 327.6"/><polygon class="cls-11" points="293.45 311.84 277.13 310.07 280.54 306 299.53 301.95 311.65 306 293.45 311.84"/><polygon class="cls-11" points="276.04 308.89 269.63 307.88 278.13 304.92 276.04 308.89"/><polygon class="cls-11" points="248.67 306.91 261.17 306 264.05 296.74 250.82 298.74 248.67 306.91"/><polygon class="cls-11" points="266.62 294.23 278.77 278.92 256.11 285.79 253.32 288.71 251.55 296.74 266.62 294.23"/><polygon class="cls-11" points="141.81 314.43 146.81 304.52 173.34 302.95 160.35 316.69 154.58 317.73 141.81 314.43"/><polygon class="cls-11" points="125.3 296.74 145.1 302.95 171.71 301.17 131.98 291.2 125.3 291.2 108.95 300.35 125.3 296.74"/><polygon class="cls-11" points="68 300.35 90.25 296.24 95.53 290.36 68 300.35"/><polygon class="cls-11" points="265.16 304.92 266.62 297.08 283.82 293.28 277.13 301.83 265.16 304.92"/><polygon class="cls-11" points="268.92 295.1 281.32 278.27 299.28 274.68 284.91 291.2 268.92 295.1"/><polygon class="cls-11" points="278.13 304.92 286.91 293.28 298.03 300.35 282.42 304.52 278.13 304.92"/><polygon class="cls-11" points="289 291.2 296.46 283.71 331.23 278.92 341.25 296.52 316.29 304.52 289 291.2"/><polygon class="cls-11" points="298.03 281.57 303.12 272.7 324 267.37 329.02 268.53 333.02 276.19 298.03 281.57"/><polygon class="cls-11" points="335.56 277.25 380.54 297.42 387.7 306 385.04 306.89 344.93 296.31 335.56 277.25"/><polygon class="cls-11" points="333.02 268.29 335.06 274.47 344.93 279.92 377.71 294.25 381.42 289.55 333.02 268.29"/><polygon class="cls-11" points="389.21 292.91 383.37 294.25 435.57 320.91 455.71 321.62 389.21 292.91"/><polygon class="cls-11" points="387.7 307.92 401.36 305.95 427.62 318.75 387.7 307.92"/></g><polygon class="cls-12" points="56.53 304.52 107.24 294.33 129.73 288.33 142.73 291.2 179.59 302.95 198.73 307.88 202.57 314.94 226.69 298.74 228.06 295.1 237.35 290.36 235.44 304.92 246.5 308.89 262.8 306.89 265.16 296.74 285.54 292.91 305.15 302.99 309.66 301.83 286.1 291.45 264.55 295.77 262.05 306.26 247.43 307.88 236.5 303.76 238.54 287.83 227.4 294.66 226.02 298.64 204.03 313.26 199.94 306.89 181.34 301.95 142.66 289.08 131.73 287.08 62.11 302.49 56.53 304.52"/><path class="cls-13" d="M313,301.27c.19,1.05-2.21,2.38-5.36,3s-5.87.21-6.07-.84,2.21-2.38,5.36-3S312.81,300.22,313,301.27Z"/><path class="cls-14" d="M319,300.14c.41,2.17-4.52,4.9-11,6.11s-12.07.44-12.47-1.72,4.52-4.9,11-6.11S318.63,298,319,300.14Z"/><polygon class="cls-15" points="141.81 277.86 135.01 283.47 145.1 281.27 212.99 302.95 244.03 278.92 250.25 294.25 334.44 278.92 414.88 310.34 407.66 301.52 327.68 265.96 252.68 284.76 247.31 269.33 220.41 293.73 157.82 273.54 141.81 277.86"/><polygon class="cls-16" points="167.78 263.73 123.47 273.62 379.26 266.92 338.43 256.99 167.78 263.73"/><polygon class="cls-17" points="123.47 273.62 126.95 278.55 374.84 274.43 379.26 266.92 123.47 273.62"/><polygon class="cls-18" points="339.88 275.01 343.12 267.98 360.39 267.48 357.11 274.51 339.88 275.01"/><polygon class="cls-19" points="158.69 83.87 162.82 142.28 337.1 144.63 340.3 83.31 158.69 83.87"/><polygon class="cls-20" points="158.69 83.87 163.06 117.48 338.34 113.97 337.48 137.26 162.43 136.75 158.69 83.87"/><polygon class="cls-21" points="171.08 257.56 165.92 136.27 333.65 135.74 328.16 258.18 171.08 257.56"/><polygon class="cls-22" points="167.25 256.31 167.86 262.1 329.99 262.1 330.41 255.83 267.33 257.56 167.25 256.31"/><polygon class="cls-23" points="172.57 245.62 193.16 244.82 193.15 252.04 172.59 252.04 172.57 245.62"/><polygon class="cls-23" points="257.01 238.84 277.6 238.04 277.58 245.26 257.03 245.26 257.01 238.84"/><polygon class="cls-23" points="206.79 253.02 227.38 252.22 227.37 257.06 206.8 256.8 206.79 253.02"/><polygon class="cls-23" points="302.79 204.2 323.38 203.4 323.37 210.63 302.82 210.63 302.79 204.2"/><polygon class="cls-23" points="268.57 171.82 289.16 171.02 289.14 178.24 268.59 178.24 268.57 171.82"/><polygon class="cls-23" points="179.21 238.4 199.8 237.6 199.78 244.82 179.23 244.82 179.21 238.4"/><polygon class="cls-24" points="177.14 214.18 197.73 213.38 197.72 220.6 177.17 220.6 177.14 214.18"/><polygon class="cls-24" points="245.7 246.56 264.03 245.85 264.02 252.28 245.72 252.28 245.7 246.56"/><polygon class="cls-24" points="184.09 170.67 202.42 169.95 202.41 176.38 184.11 176.38 184.09 170.67"/><polygon class="cls-24" points="258.13 180.23 276.47 179.51 276.45 185.95 258.16 185.95 258.13 180.23"/><polygon class="cls-24" points="311.42 212.29 330.25 211.55 329.73 218 311.44 218 311.42 212.29"/><polygon class="cls-24" points="277.6 179.91 296.43 179.18 295.91 185.63 277.62 185.63 277.6 179.91"/><polygon class="cls-25" points="172.94 207.01 195.52 207.24 195.52 213.17 172.94 213.38 172.94 207.01"/><path class="cls-26" d="M177.67,181.77l-17.06-34.59h5.31L180,181.77S178.76,183.19,177.67,181.77Z"/><path class="cls-27" d="M319.81,181.77l17.05-34.59h-5.31l-14.09,34.59S318.72,183.19,319.81,181.77Z"/><polygon class="cls-28" points="186.87 245.15 185.44 178 252.92 178 251.36 244.36 186.87 245.15"/><polygon class="cls-29" points="189.62 241.65 248.21 241.03 249.56 181.33 188.79 181.35 189.62 241.65"/><polygon class="cls-30" points="252.92 178 254.03 178 252.92 244.36 251.36 244.36 252.92 178"/><polygon class="cls-30" points="189.62 241.65 188.79 181.35 190.25 181.33 190.25 241.65 189.62 241.65"/><polygon class="cls-28" points="267.3 261.74 267.8 191.78 313.09 192.38 309.71 262.1 267.3 261.74"/><polygon class="cls-16" points="270.45 262.1 271.66 195.61 309.6 195.61 306.64 262.1 270.45 262.1"/><polygon class="cls-30" points="309.6 195.61 307.97 195.61 305.35 262.08 306.64 262.1 309.6 195.61"/><polygon class="cls-31" points="274.79 248.67 274.79 198.92 305.38 198.92 302.74 248.67 274.79 248.67"/><polygon class="cls-32" points="331.21 190.15 332.84 153.72 166.86 158.35 168.01 185.4 331.21 190.15"/><polygon class="cls-17" points="169.15 131.61 167.86 124.26 331.13 124.26 329.07 130.68 169.15 131.61"/><path class="cls-17" d="M162,168.34h0a9.92,9.92,0,0,1-9.58-8.94l-1.32-14H169l1.07,14A8.09,8.09,0,0,1,162,168.34Z"/><path class="cls-33" d="M179.5,168.34h0a9.7,9.7,0,0,1-9.42-8.94l-1.07-14H186.9l.82,14A8.25,8.25,0,0,1,179.5,168.34Z"/><path class="cls-17" d="M197,168.34h0a9.48,9.48,0,0,1-9.26-8.94l-.82-14h17.88l.58,14A8.42,8.42,0,0,1,197,168.34Z"/><path class="cls-34" d="M214.46,168.34h0a9.28,9.28,0,0,1-9.1-8.94l-.58-14h17.89l.33,14A8.6,8.6,0,0,1,214.46,168.34Z"/><path class="cls-17" d="M231.94,168.34h0A9.09,9.09,0,0,1,223,159.4l-.33-14h17.89l.08,14A8.79,8.79,0,0,1,231.94,168.34Z"/><path class="cls-35" d="M249.43,168.34h0a8.89,8.89,0,0,1-8.79-8.94l-.08-14h17.88l-.16,14A9,9,0,0,1,249.43,168.34Z"/><path class="cls-17" d="M266.91,168.34h0a8.71,8.71,0,0,1-8.63-8.94l.16-14h17.89l-.42,14A9.15,9.15,0,0,1,266.91,168.34Z"/><path class="cls-36" d="M284.39,168.34h0a8.54,8.54,0,0,1-8.48-8.94l.42-14h17.88l-.66,14A9.36,9.36,0,0,1,284.39,168.34Z"/><path class="cls-17" d="M301.87,168.34h0a8.36,8.36,0,0,1-8.32-8.94l.66-14H312.1l-.91,14A9.57,9.57,0,0,1,301.87,168.34Z"/><path class="cls-37" d="M319.36,168.34h0a8.19,8.19,0,0,1-8.17-8.94l.91-14H330l-1.16,14A9.77,9.77,0,0,1,319.36,168.34Z"/><path class="cls-17" d="M336.84,168.34h0a8,8,0,0,1-8-8.94l1.16-14h17.88l-1.4,14A10,10,0,0,1,336.84,168.34Z"/><path class="cls-16" d="M169.15,131.61l-18,13.79c72.81,4.14,122.11,4.31,196.75,0l-18.8-14.72Z"/><polygon class="cls-38" points="169.08 146.36 182.2 131.59 193.26 131.47 186.9 147.18 169.08 146.36"/><g class="cls-39"><rect class="cls-40" x="169.08" y="131.47" width="24.17" height="15.71"/><polygon class="cls-41" points="194.22 144.64 194.22 148.14 168.13 148.14 168.13 130.51 194.22 130.51 194.22 144.64"/><polygon class="cls-41" points="194.22 144.62 194.22 148.14 168.13 148.14 168.13 130.51 194.22 130.51 194.22 144.62"/><polygon class="cls-41" points="194.22 144.6 194.22 148.14 168.13 148.14 168.13 130.51 194.22 130.51 194.22 144.6"/><polygon class="cls-41" points="194.22 144.58 194.22 148.14 168.13 148.14 168.13 130.51 194.22 130.51 194.22 144.58"/><polygon class="cls-41" points="194.22 144.56 194.22 148.14 168.13 148.14 168.13 130.51 194.22 130.51 194.22 144.56"/><polygon class="cls-41" points="194.22 144.53 194.22 148.14 168.13 148.14 168.13 130.51 194.22 130.51 194.22 144.53"/><polygon class="cls-41" points="194.22 144.51 194.22 148.14 168.13 148.14 168.13 130.51 194.22 130.51 194.22 144.51"/><polygon class="cls-41" points="194.22 144.49 194.22 148.14 168.13 148.14 168.13 130.51 194.22 130.51 194.22 144.49"/><polygon class="cls-41" points="194.22 144.47 194.22 148.14 168.13 148.14 168.13 130.51 194.22 130.51 194.22 144.47"/><polygon class="cls-41" points="194.22 144.45 194.22 148.14 168.13 148.14 168.13 130.51 194.22 130.51 194.22 144.45"/><polygon class="cls-41" points="194.22 144.43 194.22 148.14 168.13 148.14 168.13 130.51 194.22 130.51 194.22 144.43"/><polygon class="cls-41" points="194.22 144.4 194.22 148.14 168.13 148.14 168.13 130.51 194.22 130.51 194.22 144.4"/><polygon class="cls-41" points="194.22 144.38 194.22 148.14 168.13 148.14 168.13 130.51 194.22 130.51 194.22 144.38"/><polygon class="cls-41" points="194.22 144.36 194.22 148.14 168.13 148.14 168.13 130.51 194.22 130.51 194.22 144.36"/><polygon class="cls-41" points="194.22 144.34 194.22 148.14 168.13 148.14 168.13 130.51 194.22 130.51 194.22 144.34"/><polygon class="cls-41" points="194.22 144.32 194.22 148.14 168.13 148.14 168.13 130.51 194.22 130.51 194.22 144.32"/><polygon class="cls-41" points="194.22 144.29 194.22 148.14 168.13 148.14 168.13 130.51 194.22 130.51 194.22 144.29"/><path class="cls-42" d="M194.22,144.27v3.87h-26.1v-5.4h-1.61a52.59,52.59,0,0,1,1.81-13.24v1h25.9Z"/><path class="cls-43" d="M194.22,144.25v3.89h-25v1.16a52.46,52.46,0,0,1-.35-6.54,51,51,0,0,1,1.76-12.86v.61h23.57Z"/><path class="cls-44" d="M194.22,144.23v3.91H171.61v1a51.27,51.27,0,0,1-.35-6.34A49.46,49.46,0,0,1,173,130.3v.21h21.24Z"/><path class="cls-45" d="M194.22,144.21v3.93H174V149a50.15,50.15,0,0,1-.34-6.15,48.27,48.27,0,0,1,1.66-12.11,50.4,50.4,0,0,1,1.93-5.75v5.56h17Z"/><path class="cls-46" d="M194.22,144.18v4H177.41v6.45A47.44,47.44,0,0,1,176,142.83a46.75,46.75,0,0,1,1.61-11.73,47.3,47.3,0,0,1,1.87-5.57v5h14.72Z"/><path class="cls-47" d="M194.22,144.16v4H179.75v6.09A45.11,45.11,0,0,1,180,131.5a46.73,46.73,0,0,1,1.81-5.39v4.4h12.45Z"/><path class="cls-48" d="M194.22,144.14v4H182.08v5.73a44.17,44.17,0,0,1-1.3-11,43.59,43.59,0,0,1,1.51-11,45.48,45.48,0,0,1,1.74-5.21v3.82h10.19Z"/><path class="cls-49" d="M194.22,144.12v4h-9.8v5.38a42.22,42.22,0,0,1,.19-21.22,44.34,44.34,0,0,1,1.69-5v3.24h7.92Z"/><path class="cls-50" d="M194.22,144.1v4h-7.47v5a41.07,41.07,0,0,1-1.21-10.24,40.38,40.38,0,0,1,1.4-10.22,41.23,41.23,0,0,1,1.63-4.85v2.66h5.65Z"/><path class="cls-51" d="M194.22,144.08v4.06h-5.13v4.66a39,39,0,0,1-1.17-9.86,40,40,0,0,1,5-19v6.55h1.26Z"/><path class="cls-52" d="M194.22,144.05v4.09h-2.8v4.3A37.85,37.85,0,0,1,190.3,143a38.55,38.55,0,0,1,4.84-18.25l-.92,5.8Z"/><path class="cls-53" d="M194.22,144v4.11h-.46v4a35.9,35.9,0,0,1-1.08-9.11,37,37,0,0,1,4.65-17.52l-3.11,5Z"/></g><polygon class="cls-54" points="204.88 147.84 208.62 131.36 223.93 131.29 222.41 148.29 204.88 147.84"/><g class="cls-55"><rect class="cls-56" x="204.88" y="131.29" width="19.05" height="17"/><polygon class="cls-57" points="224.89 145.5 224.89 149.25 203.92 149.25 203.92 130.33 224.89 130.33 224.89 145.5"/><polygon class="cls-57" points="224.89 145.48 224.89 149.25 203.92 149.25 203.92 130.33 224.89 130.33 224.89 145.48"/><polygon class="cls-57" points="224.89 145.46 224.89 149.25 203.92 149.25 203.92 130.33 224.89 130.33 224.89 145.46"/><polygon class="cls-57" points="224.89 145.44 224.89 149.25 203.92 149.25 203.92 130.33 224.89 130.33 224.89 145.44"/><polygon class="cls-57" points="224.89 145.42 224.89 149.25 203.92 149.25 203.92 130.33 224.89 130.33 224.89 145.42"/><polygon class="cls-57" points="224.89 145.4 224.89 149.25 203.92 149.25 203.92 130.33 224.89 130.33 224.89 145.4"/><polygon class="cls-57" points="224.89 145.37 224.89 149.25 203.92 149.25 203.92 130.33 224.89 130.33 224.89 145.37"/><polygon class="cls-57" points="224.89 145.35 224.89 149.25 203.92 149.25 203.92 130.33 224.89 130.33 224.89 145.35"/><polygon class="cls-57" points="224.89 145.33 224.89 149.25 203.92 149.25 203.92 130.33 224.89 130.33 224.89 145.33"/><polygon class="cls-57" points="224.89 145.31 224.89 149.25 203.92 149.25 203.92 130.33 224.89 130.33 224.89 145.31"/><polygon class="cls-57" points="224.89 145.29 224.89 149.25 203.92 149.25 203.92 130.33 224.89 130.33 224.89 145.29"/><polygon class="cls-57" points="224.89 145.26 224.89 149.25 203.92 149.25 203.92 130.33 224.89 130.33 224.89 145.26"/><polygon class="cls-57" points="224.89 145.24 224.89 149.25 203.92 149.25 203.92 130.33 224.89 130.33 224.89 145.24"/><polygon class="cls-57" points="224.89 145.22 224.89 149.25 203.92 149.25 203.92 130.33 224.89 130.33 224.89 145.22"/><polygon class="cls-57" points="224.89 145.2 224.89 149.25 203.92 149.25 203.92 130.33 224.89 130.33 224.89 145.2"/><polygon class="cls-57" points="224.89 145.18 224.89 149.25 203.92 149.25 203.92 130.33 224.89 130.33 224.89 145.18"/><polygon class="cls-57" points="224.89 145.15 224.89 149.25 203.92 149.25 203.92 130.33 224.89 130.33 224.89 145.15"/><polygon class="cls-57" points="224.89 145.13 224.89 149.25 203.92 149.25 203.92 130.33 224.89 130.33 224.89 145.13"/><polygon class="cls-57" points="224.89 145.11 224.89 149.25 203.92 149.25 203.92 130.33 224.89 130.33 224.89 145.11"/><polygon class="cls-57" points="224.89 145.09 224.89 149.25 203.92 149.25 203.92 130.33 224.89 130.33 224.89 145.09"/><polygon class="cls-57" points="224.89 145.07 224.89 149.25 203.92 149.25 203.92 130.33 224.89 130.33 224.89 145.07"/><polygon class="cls-57" points="224.89 145.04 224.89 149.25 203.92 149.25 203.92 130.33 224.89 130.33 224.89 145.04"/><polygon class="cls-57" points="224.89 145.02 224.89 149.25 203.92 149.25 203.92 130.33 224.89 130.33 224.89 145.02"/><polygon class="cls-57" points="224.89 145 224.89 149.25 203.92 149.25 203.92 130.33 224.89 130.33 224.89 145"/><polygon class="cls-57" points="224.89 144.98 224.89 149.25 203.92 149.25 203.92 130.33 224.89 130.33 224.89 144.98"/><polygon class="cls-57" points="224.89 144.96 224.89 149.25 203.92 149.25 203.92 130.33 224.89 130.33 224.89 144.96"/><polygon class="cls-57" points="224.89 144.94 224.89 149.25 203.92 149.25 203.92 130.33 224.89 130.33 224.89 144.94"/><polygon class="cls-57" points="224.89 144.91 224.89 149.25 203.92 149.25 203.92 130.33 224.89 130.33 224.89 144.91"/><polygon class="cls-57" points="224.89 144.89 224.89 149.25 203.92 149.25 203.92 130.33 224.89 130.33 224.89 144.89"/><polygon class="cls-57" points="224.89 144.87 224.89 149.25 203.92 149.25 203.92 130.33 224.89 130.33 224.89 144.87"/><polygon class="cls-57" points="224.89 144.85 224.89 149.25 203.92 149.25 203.92 130.33 224.89 130.33 224.89 144.85"/><polygon class="cls-57" points="224.89 144.83 224.89 149.25 203.92 149.25 203.92 130.33 224.89 130.33 224.89 144.83"/><path class="cls-58" d="M224.89,144.8v4.45h-21v-5.32h-1.73a30.81,30.81,0,0,1,3.88-14.62v1h18.82Z"/><path class="cls-59" d="M224.89,144.78v4.47H205.42v1.91a28.81,28.81,0,0,1-.85-7.21,29.43,29.43,0,0,1,3.68-13.88v.26h16.64Z"/><path class="cls-60" d="M224.89,144.76v4.49H207.76v1.56A27.31,27.31,0,0,1,207,144a27.94,27.94,0,0,1,3.49-13.15,32.59,32.59,0,0,1,4-5.72v5.23h10.44Z"/><path class="cls-61" d="M224.89,144.74v4.51H210.1v1.2a25.73,25.73,0,0,1-.77-6.46,26.3,26.3,0,0,1,3.3-12.42,30.73,30.73,0,0,1,3.78-5.4v4.16h8.48Z"/><path class="cls-62" d="M224.89,144.72v4.53H214.6v6.51a24.47,24.47,0,0,1,.22-23.44,28.55,28.55,0,0,1,3.56-5.08v3.09h6.51Z"/><path class="cls-63" d="M224.89,144.69v4.56H216.8v5.8a23.17,23.17,0,0,1-2.7-11c.07-7.8,4.13-14.82,10.64-19.87v6.16h.15Z"/><path class="cls-64" d="M224.89,144.67v4.58H219v5.09a21.74,21.74,0,0,1-2.52-10.28c.07-7.28,3.86-13.83,9.94-18.54l-1.53,4.81Z"/><path class="cls-65" d="M224.89,144.65v4.6h-3.68v4.38a20.12,20.12,0,0,1-2.35-9.55c.06-6.75,3.58-12.84,9.23-17.21l-3.2,3.46Z"/><path class="cls-66" d="M224.89,144.63v4.62h-1.48v3.66a18.5,18.5,0,0,1-2.17-8.81c.06-6.23,3.31-11.85,8.52-15.89l-4.87,2.12Z"/><path class="cls-67" d="M224.89,144.61v4.64l.72,2.95a17.09,17.09,0,0,1-2-8.07c.06-5.72,3-10.87,7.81-14.57l-6.54.77Z"/></g><polygon class="cls-68" points="240.66 148.57 240.1 131.38 256.72 131.31 258.27 148.57 240.66 148.57"/><g class="cls-69"><rect class="cls-70" x="240.1" y="131.31" width="18.17" height="17.26"/><polygon class="cls-71" points="259.23 145.74 259.23 149.53 239.14 149.53 239.14 130.35 259.23 130.35 259.23 145.74"/><polygon class="cls-71" points="259.23 145.72 259.23 149.53 239.14 149.53 239.14 130.35 259.23 130.35 259.23 145.72"/><polygon class="cls-71" points="259.23 145.7 259.23 149.53 239.14 149.53 239.14 130.35 259.23 130.35 259.23 145.7"/><polygon class="cls-71" points="259.23 145.68 259.23 149.53 239.14 149.53 239.14 130.35 259.23 130.35 259.23 145.68"/><polygon class="cls-71" points="259.23 145.65 259.23 149.53 239.14 149.53 239.14 130.35 259.23 130.35 259.23 145.65"/><polygon class="cls-71" points="259.23 145.63 259.23 149.53 239.14 149.53 239.14 130.35 259.23 130.35 259.23 145.63"/><polygon class="cls-71" points="259.23 145.61 259.23 149.53 239.14 149.53 239.14 130.35 259.23 130.35 259.23 145.61"/><polygon class="cls-71" points="259.23 145.59 259.23 149.53 239.14 149.53 239.14 130.35 259.23 130.35 259.23 145.59"/><polygon class="cls-71" points="259.23 145.56 259.23 149.53 239.14 149.53 239.14 130.35 259.23 130.35 259.23 145.56"/><polygon class="cls-71" points="259.23 145.54 259.23 149.53 239.14 149.53 239.14 130.35 259.23 130.35 259.23 145.54"/><polygon class="cls-71" points="259.23 145.52 259.23 149.53 239.14 149.53 239.14 130.35 259.23 130.35 259.23 145.52"/><polygon class="cls-71" points="259.23 145.5 259.23 149.53 239.14 149.53 239.14 130.35 259.23 130.35 259.23 145.5"/><polygon class="cls-71" points="259.23 145.47 259.23 149.53 239.14 149.53 239.14 130.35 259.23 130.35 259.23 145.47"/><polygon class="cls-71" points="259.23 145.45 259.23 149.53 239.14 149.53 239.14 130.35 259.23 130.35 259.23 145.45"/><polygon class="cls-71" points="259.23 145.43 259.23 149.53 239.14 149.53 239.14 130.35 259.23 130.35 259.23 145.43"/><polygon class="cls-71" points="259.23 145.41 259.23 149.53 239.14 149.53 239.14 130.35 259.23 130.35 259.23 145.41"/><polygon class="cls-71" points="259.23 145.38 259.23 149.53 239.14 149.53 239.14 130.35 259.23 130.35 259.23 145.38"/><polygon class="cls-71" points="259.23 145.36 259.23 149.53 239.14 149.53 239.14 130.35 259.23 130.35 259.23 145.36"/><polygon class="cls-71" points="259.23 145.34 259.23 149.53 239.14 149.53 239.14 130.35 259.23 130.35 259.23 145.34"/><polygon class="cls-71" points="259.23 145.32 259.23 149.53 239.14 149.53 239.14 130.35 259.23 130.35 259.23 145.32"/><polygon class="cls-71" points="259.23 145.29 259.23 149.53 239.14 149.53 239.14 130.35 259.23 130.35 259.23 145.29"/><polygon class="cls-71" points="259.23 145.27 259.23 149.53 239.14 149.53 239.14 130.35 259.23 130.35 259.23 145.27"/><polygon class="cls-71" points="259.23 145.25 259.23 149.53 239.14 149.53 239.14 130.35 259.23 130.35 259.23 145.25"/><polygon class="cls-71" points="259.23 145.23 259.23 149.53 239.14 149.53 239.14 130.35 259.23 130.35 259.23 145.23"/><polygon class="cls-71" points="259.23 145.21 259.23 149.53 239.14 149.53 239.14 130.35 259.23 130.35 259.23 145.21"/><polygon class="cls-71" points="259.23 145.18 259.23 149.53 239.14 149.53 239.14 130.35 259.23 130.35 259.23 145.18"/><polygon class="cls-71" points="259.23 145.16 259.23 149.53 239.14 149.53 239.14 130.35 259.23 130.35 259.23 145.16"/><polygon class="cls-71" points="259.23 145.14 259.23 149.53 239.14 149.53 239.14 130.35 259.23 130.35 259.23 145.14"/><polygon class="cls-71" points="259.23 145.12 259.23 149.53 239.14 149.53 239.14 130.35 259.23 130.35 259.23 145.12"/><polygon class="cls-71" points="259.23 145.09 259.23 149.53 239.14 149.53 239.14 130.35 259.23 130.35 259.23 145.09"/><polygon class="cls-71" points="259.23 145.07 259.23 149.53 239.14 149.53 239.14 130.35 259.23 130.35 259.23 145.07"/><polygon class="cls-71" points="259.23 145.05 259.23 149.53 239.14 149.53 239.14 130.35 259.23 130.35 259.23 145.05"/><polygon class="cls-71" points="259.23 145.03 259.23 149.53 239.14 149.53 239.14 130.35 259.23 130.35 259.23 145.03"/><polygon class="cls-71" points="259.23 145 259.23 149.53 239.14 149.53 239.14 130.35 259.23 130.35 259.23 145"/><polygon class="cls-71" points="259.23 144.98 259.23 149.53 239.14 149.53 239.14 130.35 259.23 130.35 259.23 144.98"/><polygon class="cls-71" points="259.23 144.96 259.23 149.53 239.14 149.53 239.14 130.35 259.23 130.35 259.23 144.96"/><polygon class="cls-71" points="259.23 144.94 259.23 149.53 239.14 149.53 239.14 130.35 259.23 130.35 259.23 144.94"/><polygon class="cls-71" points="259.23 144.91 259.23 149.53 239.14 149.53 239.14 130.35 259.23 130.35 259.23 144.91"/><polygon class="cls-71" points="259.23 144.89 259.23 149.53 239.14 149.53 239.14 130.35 259.23 130.35 259.23 144.89"/><polygon class="cls-71" points="259.23 144.87 259.23 149.53 239.14 149.53 239.14 130.35 259.23 130.35 259.23 144.87"/><polygon class="cls-71" points="259.23 144.85 259.23 149.53 239.14 149.53 239.14 130.35 259.23 130.35 259.23 144.85"/><polygon class="cls-71" points="259.23 144.82 259.23 149.53 239.14 149.53 239.14 130.35 259.23 130.35 259.23 144.82"/><path class="cls-72" d="M259.23,144.8v4.73H239.14V130.77h-6.42A28,28,0,0,1,250,125.28v5.07h9.19Z"/><path class="cls-73" d="M259.23,144.78v4.75H239.14V132.15h-4.7a26.29,26.29,0,0,1,31.08.29h-6.29Z"/><path class="cls-74" d="M259.23,144.76v4.77H239.14v-16h-3a23.39,23.39,0,0,1,27.64.26h-4.56Z"/><path class="cls-75" d="M259.23,144.73v4.8H239.14v-5.11h-6.37c.07-7.46,7.78-13.44,17.22-13.35a19.53,19.53,0,0,1,12.06,4.07h-2.82Z"/><ellipse class="cls-76" cx="249.87" cy="144.58" rx="11.58" ry="14.66" transform="translate(103 393.1) rotate(-89.47)"/><ellipse class="cls-77" cx="249.87" cy="144.58" rx="9.65" ry="12.21" transform="translate(103 393.11) rotate(-89.47)"/><path class="cls-78" d="M259.64,144.67c0,4.26-4.45,7.68-9.84,7.63s-9.74-3.55-9.7-7.81,4.44-7.68,9.84-7.63S259.68,140.4,259.64,144.67Z"/><path class="cls-79" d="M257.2,144.64c0,3.2-3.34,5.76-7.39,5.73s-7.3-2.66-7.27-5.86,3.33-5.76,7.38-5.72S257.22,141.45,257.2,144.64Z"/><path class="cls-80" d="M254.75,144.62c0,2.13-2.22,3.84-4.92,3.82s-4.87-1.78-4.85-3.91,2.22-3.84,4.92-3.81S254.77,142.49,254.75,144.62Z"/><path class="cls-81" d="M252.31,144.6a2.52,2.52,0,1,1-2.42-1.95A2.23,2.23,0,0,1,252.31,144.6Z"/></g><polygon class="cls-82" points="276.24 148.31 271.97 131.01 286.88 130.92 294.23 147.85 276.24 148.31"/><g class="cls-83"><rect class="cls-84" x="271.97" y="130.92" width="22.26" height="17.39"/><polygon class="cls-85" points="295.19 145.54 295.19 149.27 271.01 149.27 271.01 129.96 295.19 129.96 295.19 145.54"/><polygon class="cls-85" points="295.19 145.51 295.19 149.27 271.01 149.27 271.01 129.96 295.19 129.96 295.19 145.51"/><polygon class="cls-85" points="295.19 145.49 295.19 149.27 271.01 149.27 271.01 129.96 295.19 129.96 295.19 145.49"/><polygon class="cls-85" points="295.19 145.47 295.19 149.27 271.01 149.27 271.01 129.96 295.19 129.96 295.19 145.47"/><polygon class="cls-85" points="295.19 145.45 295.19 149.27 271.01 149.27 271.01 129.96 295.19 129.96 295.19 145.45"/><polygon class="cls-85" points="295.19 145.43 295.19 149.27 271.01 149.27 271.01 129.96 295.19 129.96 295.19 145.43"/><polygon class="cls-85" points="295.19 145.41 295.19 149.27 271.01 149.27 271.01 129.96 295.19 129.96 295.19 145.41"/><polygon class="cls-85" points="295.19 145.38 295.19 149.27 271.01 149.27 271.01 129.96 295.19 129.96 295.19 145.38"/><polygon class="cls-85" points="295.19 145.36 295.19 149.27 271.01 149.27 271.01 129.96 295.19 129.96 295.19 145.36"/><polygon class="cls-85" points="295.19 145.34 295.19 149.27 271.01 149.27 271.01 129.96 295.19 129.96 295.19 145.34"/><polygon class="cls-85" points="295.19 145.32 295.19 149.27 271.01 149.27 271.01 129.96 295.19 129.96 295.19 145.32"/><polygon class="cls-85" points="295.19 145.3 295.19 149.27 271.01 149.27 271.01 129.96 295.19 129.96 295.19 145.3"/><polygon class="cls-85" points="295.19 145.27 295.19 149.27 271.01 149.27 271.01 129.96 295.19 129.96 295.19 145.27"/><polygon class="cls-85" points="295.19 145.25 295.19 149.27 271.01 149.27 271.01 129.96 295.19 129.96 295.19 145.25"/><polygon class="cls-85" points="295.19 145.23 295.19 149.27 271.01 149.27 271.01 129.96 295.19 129.96 295.19 145.23"/><polygon class="cls-85" points="295.19 145.21 295.19 149.27 271.01 149.27 271.01 129.96 295.19 129.96 295.19 145.21"/><polygon class="cls-85" points="295.19 145.19 295.19 149.27 271.01 149.27 271.01 129.96 295.19 129.96 295.19 145.19"/><polygon class="cls-85" points="295.19 145.16 295.19 149.27 271.01 149.27 271.01 129.96 295.19 129.96 295.19 145.16"/><polygon class="cls-85" points="295.19 145.14 295.19 149.27 271.01 149.27 271.01 129.96 295.19 129.96 295.19 145.14"/><polygon class="cls-85" points="295.19 145.12 295.19 149.27 271.01 149.27 271.01 129.96 295.19 129.96 295.19 145.12"/><polygon class="cls-85" points="295.19 145.1 295.19 149.27 271.01 149.27 271.01 129.96 295.19 129.96 295.19 145.1"/><polygon class="cls-85" points="295.19 145.08 295.19 149.27 271.01 149.27 271.01 129.96 295.19 129.96 295.19 145.08"/><polygon class="cls-85" points="295.19 145.05 295.19 149.27 271.01 149.27 271.01 129.96 295.19 129.96 295.19 145.05"/><polygon class="cls-85" points="295.19 145.03 295.19 149.27 271.01 149.27 271.01 129.96 295.19 129.96 295.19 145.03"/><polygon class="cls-85" points="295.19 145.01 295.19 149.27 271.01 149.27 271.01 129.96 295.19 129.96 295.19 145.01"/><polygon class="cls-85" points="295.19 144.99 295.19 149.27 271.01 149.27 271.01 129.96 295.19 129.96 295.19 144.99"/><polygon class="cls-85" points="295.19 144.97 295.19 149.27 271.01 149.27 271.01 129.96 295.19 129.96 295.19 144.97"/><polygon class="cls-85" points="295.19 144.94 295.19 149.27 271.01 149.27 271.01 129.96 295.19 129.96 295.19 144.94"/><polygon class="cls-85" points="295.19 144.92 295.19 149.27 271.01 149.27 271.01 129.96 295.19 129.96 295.19 144.92"/><polygon class="cls-85" points="295.19 144.9 295.19 149.27 271.01 149.27 271.01 129.96 295.19 129.96 295.19 144.9"/><polygon class="cls-85" points="295.19 144.88 295.19 149.27 271.01 149.27 271.01 129.96 295.19 129.96 295.19 144.88"/><polygon class="cls-85" points="295.19 144.86 295.19 149.27 271.01 149.27 271.01 129.96 295.19 129.96 295.19 144.86"/><path class="cls-86" d="M295.19,144.83v4.44H271V130h18.75v-6.3a36,36,0,0,1,4.35,6.45,31.1,31.1,0,0,1,3.62,14.72Z"/><path class="cls-87" d="M295.34,144.81a29.38,29.38,0,0,1-1,7.22v-2.76H271V130h16.76V124.7a34.61,34.61,0,0,1,4.13,6.12A29.44,29.44,0,0,1,295.34,144.81Z"/><path class="cls-88" d="M293,144.79a27.33,27.33,0,0,1-.94,6.84v-2.36H271V130h14.77v-4.23a32.5,32.5,0,0,1,3.91,5.81A27.85,27.85,0,0,1,293,144.79Z"/><path class="cls-89" d="M290.56,144.77a25.81,25.81,0,0,1-.88,6.46v-2H271V130h12.78v-3.19a30.78,30.78,0,0,1,3.69,5.48A26.34,26.34,0,0,1,290.56,144.77Z"/><path class="cls-90" d="M288.17,144.75a24.09,24.09,0,0,1-.83,6.07v-1.55H271V130h6.17v-6.67C284,128.82,288.25,136.41,288.17,144.75Z"/><path class="cls-91" d="M285.78,144.73a23.2,23.2,0,0,1-2.91,11v-6.45H271V130h4.46v-5.35C281.91,129.8,285.86,136.91,285.78,144.73Z"/><path class="cls-92" d="M283.39,144.7A21.62,21.62,0,0,1,280.67,155v-5.69H271V130h2.76v-4C279.78,130.77,283.46,137.41,283.39,144.7Z"/><path class="cls-93" d="M281,144.68a20.09,20.09,0,0,1-2.53,9.53v-4.94H271V130h1.06v-2.71C277.65,131.74,281.07,137.91,281,144.68Z"/><path class="cls-94" d="M278.62,144.66a18.5,18.5,0,0,1-2.34,8.79v-4.18H271V130l-.64-1.39C275.52,132.72,278.68,138.41,278.62,144.66Z"/><path class="cls-95" d="M276.23,144.64a17.11,17.11,0,0,1-2.14,8.06v-3.43H271V130l-2.34-.07C273.39,133.69,276.28,138.91,276.23,144.64Z"/><path class="cls-96" d="M273.84,144.62a15.39,15.39,0,0,1-1.94,7.32v-2.67H271V131.21h-4C271.26,134.66,273.89,139.4,273.84,144.62Z"/><path class="cls-97" d="M271.45,144.59a13.87,13.87,0,0,1-1.75,6.6l1.31-1.92V132.53h-5.74C269.13,135.64,271.5,139.9,271.45,144.59Z"/></g><polygon class="cls-98" points="312.1 147.2 305.01 130.82 317.97 130.68 329.91 146.38 312.1 147.2"/><g class="cls-99"><rect class="cls-100" x="305.01" y="130.68" width="24.9" height="16.52"/><polygon class="cls-101" points="330.87 144.68 330.87 148.16 304.05 148.16 304.05 129.72 330.87 129.72 330.87 144.68"/><polygon class="cls-101" points="330.87 144.66 330.87 148.16 304.05 148.16 304.05 129.72 330.87 129.72 330.87 144.66"/><polygon class="cls-101" points="330.87 144.63 330.87 148.16 304.05 148.16 304.05 129.72 330.87 129.72 330.87 144.63"/><polygon class="cls-101" points="330.87 144.61 330.87 148.16 304.05 148.16 304.05 129.72 330.87 129.72 330.87 144.61"/><polygon class="cls-101" points="330.87 144.59 330.87 148.16 304.05 148.16 304.05 129.72 330.87 129.72 330.87 144.59"/><polygon class="cls-101" points="330.87 144.57 330.87 148.16 304.05 148.16 304.05 129.72 330.87 129.72 330.87 144.57"/><polygon class="cls-101" points="330.87 144.55 330.87 148.16 304.05 148.16 304.05 129.72 330.87 129.72 330.87 144.55"/><polygon class="cls-101" points="330.87 144.53 330.87 148.16 304.05 148.16 304.05 129.72 330.87 129.72 330.87 144.53"/><polygon class="cls-101" points="330.87 144.5 330.87 148.16 304.05 148.16 304.05 129.72 330.87 129.72 330.87 144.5"/><polygon class="cls-101" points="330.87 144.48 330.87 148.16 304.05 148.16 304.05 129.72 330.87 129.72 330.87 144.48"/><polygon class="cls-101" points="330.87 144.46 330.87 148.16 304.05 148.16 304.05 129.72 330.87 129.72 330.87 144.46"/><polygon class="cls-101" points="330.87 144.44 330.87 148.16 304.05 148.16 304.05 129.72 330.87 129.72 330.87 144.44"/><polygon class="cls-101" points="330.87 144.42 330.87 148.16 304.05 148.16 304.05 129.72 330.87 129.72 330.87 144.42"/><polygon class="cls-101" points="330.87 144.39 330.87 148.16 304.05 148.16 304.05 129.72 330.87 129.72 330.87 144.39"/><polygon class="cls-101" points="330.87 144.37 330.87 148.16 304.05 148.16 304.05 129.72 330.87 129.72 330.87 144.37"/><polygon class="cls-101" points="330.87 144.35 330.87 148.16 304.05 148.16 304.05 129.72 330.87 129.72 330.87 144.35"/><polygon class="cls-101" points="330.87 144.33 330.87 148.16 304.05 148.16 304.05 129.72 330.87 129.72 330.87 144.33"/><path class="cls-102" d="M330.87,144.31v3.85H304.05V129.72h25.77v-5a56,56,0,0,1,2,6.33h-.94Z"/><path class="cls-103" d="M331,144.28a50.3,50.3,0,0,1-.48,6.53v-2.65H304.05V129.72h23.49v-4.47a53.31,53.31,0,0,1,1.94,6.14A51.68,51.68,0,0,1,331,144.28Z"/><path class="cls-104" d="M328.62,144.26a49.27,49.27,0,0,1-.46,6.34v-2.44H304.05V129.72h21.21v-3.93a50.22,50.22,0,0,1,1.88,6A49.65,49.65,0,0,1,328.62,144.26Z"/><path class="cls-105" d="M326.24,144.24a48.12,48.12,0,0,1-.45,6.15v-2.23H304.05V129.72H323v-3.39a51,51,0,0,1,1.82,5.78A48,48,0,0,1,326.24,144.24Z"/><path class="cls-106" d="M323.86,144.22a45,45,0,0,1-.43,5.95v-2H304.05V129.72h16.66v-2.85a47.67,47.67,0,0,1,1.76,5.59A46.57,46.57,0,0,1,323.86,144.22Z"/><path class="cls-107" d="M321.49,144.2a45.94,45.94,0,0,1-.42,5.76v-1.8h-17V129.72h14.38V127.4a47.29,47.29,0,0,1,1.71,5.42A45.4,45.4,0,0,1,321.49,144.2Z"/><path class="cls-108" d="M319.11,144.18a44.5,44.5,0,0,1-.41,5.56v-1.58H304.05V129.72h12.11v-1.78a47.54,47.54,0,0,1,1.65,5.24A44.22,44.22,0,0,1,319.11,144.18Z"/><path class="cls-109" d="M316.73,144.15a42,42,0,0,1-1.45,10.6v-6.59H304.05V129.72h7.63v-6.1A43.06,43.06,0,0,1,316.73,144.15Z"/><path class="cls-110" d="M314.35,144.13a40.51,40.51,0,0,1-1.4,10.22v-6.19h-8.9V129.72h5.44v-5.38A41.58,41.58,0,0,1,314.35,144.13Z"/><path class="cls-111" d="M312,144.11a39.38,39.38,0,0,1-1.34,9.84v-5.79h-6.58V129.72h3.24v-4.67A40.12,40.12,0,0,1,312,144.11Z"/><path class="cls-112" d="M309.59,144.09a37.66,37.66,0,0,1-1.29,9.45v-5.38h-4.25V129.72h1v-4A38.49,38.49,0,0,1,309.59,144.09Z"/><path class="cls-113" d="M307.22,144.07a36,36,0,0,1-1.25,9.07v-5h-1.92V129.72l-1.16-3.25A37.07,37.07,0,0,1,307.22,144.07Z"/><path class="cls-114" d="M304.84,144a34.91,34.91,0,0,1-1.19,8.7l.4-4.58V129.72l-3.36-2.54A35.54,35.54,0,0,1,304.84,144Z"/></g><polygon class="cls-115" points="182.45 244.36 182.59 246.94 253.23 246.94 253.23 243.5 182.45 244.36"/><polygon class="cls-32" points="186.9 246.94 189.5 252.28 249.85 252.22 252.7 246.94 186.9 246.94"/><polygon class="cls-30" points="253.23 243.5 255.38 243.9 255.36 246.94 253.23 246.94 253.23 243.5"/><polygon class="cls-116" points="198.33 190.15 201 223.79 213.4 223.79 214.2 236.85 216.66 236.85 215.58 226.76 230.15 226.76 230.83 236.85 233.69 236.85 234.1 220.34 248.74 217.62 249.5 189.78 198.33 190.15"/><polygon class="cls-117" points="277.6 200.44 278.86 225.21 285.06 225.21 285.06 235.36 287.59 235.36 287.01 228.46 293.81 228.46 293.74 235.36 299.55 235.36 302.79 239.91 304.27 199.84 277.6 200.44"/><polygon class="cls-16" points="195.52 124.26 227.38 74.72 354.1 65.44 351.06 107.67 275.91 124.26 195.52 124.26"/><polygon class="cls-17" points="351.06 107.67 338.34 116.92 338.34 113.97 285.06 124.26 275.91 124.26 351.06 107.67"/><polygon class="cls-118" points="275.91 124.26 204.32 110.57 195.52 124.26 275.91 124.26"/><polygon class="cls-118" points="227.38 74.72 275.91 124.26 215.85 92.63 227.38 74.72"/><polygon class="cls-118" points="252.7 72.86 275.91 124.26 271.97 71.45 252.7 72.86"/><polygon class="cls-118" points="299.04 69.47 275.91 124.26 320.58 67.89 299.04 69.47"/><polygon class="cls-118" points="354.1 65.44 275.91 124.26 351.06 94.85 354.1 65.44"/><polygon class="cls-119" points="174.5 263.46 164.52 268.7 329.99 262.1 211.63 262.1 174.5 263.46"/><path class="cls-120" d="M346.77,240.83a27.24,27.24,0,0,0-5.33.16c-.4,0-.79.1-1.18.15-16.32,2.46-30.49,20.29-26.45,32.32l8.61,22.28L347.21,271C359.7,257.92,360.09,241.88,346.77,240.83Zm-15.35,28.91c-5.18.41-7.9-3.63-6.06-9s7.82-10.25,13.35-10.84,8.25,3.45,6.07,9S336.61,269.33,331.42,269.74Z"/><path class="cls-17" d="M317.34,295.8l5.18-.14s26.83-25,31.4-32.67,3.52-13.7,3.52-13.7-.54-10.54-10.55-12.84c0,0,5,7.3,3.24,15.07S317.34,295.8,317.34,295.8Z"/><path class="cls-16" d="M344,236.11a28.88,28.88,0,0,0-5.33.16c-.4,0-.79.1-1.18.16-11.23,1.68-21.43,10.65-25.4,20-1.81,4.25-2.32,8.56-1,12.32l1.16,5,5.14,22.14,27.1-29.61a41.58,41.58,0,0,0,4.68-5.84,26.69,26.69,0,0,0,4.76-12.91C354.19,241.33,351,236.67,344,236.11Zm-2,18.07c-2.18,5.58-8.17,10.43-13.36,10.84s-7.89-3.64-6.05-9a13.52,13.52,0,0,1,.88-2c2.45-4.54,7.64-8.32,12.47-8.84,4-.42,6.5,1.54,6.79,4.74A9.41,9.41,0,0,1,342,254.18Z"/><path class="cls-121" d="M349.06,260.51l4.11,2.53a26,26,0,0,0,3.55-13.23l-2.82-2.3A28.13,28.13,0,0,1,349.06,260.51Z"/><path class="cls-16" d="M327.19,249.36l3.93,3.76s6.47-5.05,11.64-2.67C342.92,247.51,338.83,240.77,327.19,249.36Z"/><path class="cls-120" d="M353.9,247.51a24.3,24.3,0,0,1-4.78,12.92s-.05.05-.06.08L312.2,273.74l-1.16-5c-1.27-3.76-.76-8.07,1-12.32L323.47,254a13.52,13.52,0,0,0-.88,2c-1.84,5.39.87,9.44,6.05,9s11.18-5.26,13.36-10.84a9.41,9.41,0,0,0,.73-4.29l11.15-2.37Z"/><polygon class="cls-122" points="314.83 285.08 327.19 285.11 327.73 290.6 322.42 295.74 317.34 295.88 314.83 285.08"/><path class="cls-120" d="M321.13,291.78s19.73-21,26.92-31.27c7.49-10.7,5.4-18.54,3-21.51,0,0,5.25,5.29,1.87,14.65C349.06,264.28,321.13,291.78,321.13,291.78Z"/><path class="cls-123" d="M322.59,256s-3.58,9,3.27,10,14.41-6.65,15.51-10.4c0,.4-5.74,10.66-14.7,9.38C320.08,264,322.59,256,322.59,256Z"/><path class="cls-124" d="M352.4,252.18s-2.28,1.24-2.82,2.89,1.41,2.52,1.41,2.52S354,253.78,352.4,252.18Z"/><polygon class="cls-125" points="108.85 215.75 91.34 284.59 93.92 284.19 113.73 216.72 108.85 215.75"/><polygon class="cls-126" points="93.92 284.19 95.94 283.87 118.43 217.91 113.73 216.72 93.92 284.19"/><polygon class="cls-127" points="80.72 199.95 78.53 202.81 115.83 283 117.93 282.5 80.72 199.95"/><polygon class="cls-128" points="117.93 282.5 120.29 281.58 113.57 264.04 146.2 252.6 153.43 269.43 155.83 268.45 123.53 189.1 80.72 199.95 117.93 282.5"/><polygon class="cls-129" points="143 253.72 150.9 269.91 153.43 269.43 146.2 252.6 143 253.72"/><polygon class="cls-130" points="86.47 201.08 86.01 204.3 111.39 260.12 145.67 249 146.12 248.2 86.47 201.08"/><polygon class="cls-16" points="86.47 201.08 112.57 258.87 146.12 248.2 122.72 191.93 86.47 201.08"/><polygon class="cls-32" points="145.67 249 144.22 250.53 111.65 262.54 85.18 206.1 86.01 204.3 111.39 260.12 145.67 249"/><polygon class="cls-131" points="321.76 299.16 334.56 295.1 342.51 293.28 346.06 301.17 323.33 301.01 321.76 299.16"/><path class="cls-132" d="M107.36,167.43l-2.8-4.24A23.67,23.67,0,0,1,117.11,156a23.41,23.41,0,0,1,14.19,1.56l-.86,5a20,20,0,0,0-23.08,4.89Z"/><path class="cls-132" d="M112,173.85l-2.8-4.24a18.3,18.3,0,0,1,9.57-5.52,18,18,0,0,1,10.82,1.2l-.88,5A14.66,14.66,0,0,0,112,173.85Z"/><path class="cls-132" d="M117,180.06l-2.83-4.19A11.63,11.63,0,0,1,127.59,173l-.87,5A8.47,8.47,0,0,0,117,180.06Z"/><path class="cls-133" d="M430.48,256.4a21.36,21.36,0,0,1,2.45,5.22,21.78,21.78,0,0,1-9,24.89,20.62,20.62,0,0,1-3,1.63,21.8,21.8,0,0,1-21.23-2.07h0a21.75,21.75,0,0,1-9.27-16.32,21.83,21.83,0,0,1,9.93-19.86l.11-.07.16-.09a21.73,21.73,0,0,1,18.23-2.25,21.17,21.17,0,0,1,4.55,2.07A21.71,21.71,0,0,1,430.48,256.4Z"/><g class="cls-134"><path class="cls-135" d="M430.48,256.4a21.36,21.36,0,0,1,2.45,5.22,4.62,4.62,0,0,1-2.15,1c-1.2.2-2.37.52-3.62.66-2.5.29-3.33-1.51-5.19-2.78a22.72,22.72,0,0,0-2.31-1.55c-.87-.44-2-.62-2.76-1.13-.93,1.09,1.34,1.14,1.79,1.43,1,.62.66,1.75.91,2.68.53,1.94,2,3.68,1.08,5.64-.35.69-.62,1.5-1,2.11s-1.2,1-1.7,1.57c-.73.91-1.09,4.48-2.63,3.8-.93-.4-.67-1.71-1.22-2.27s-1.33-.53-1.9-1.28-1-1.32-1.49-1.95a21.12,21.12,0,0,0-1.54-1.73c-.56-.61-.91-1.44-1.48-2.09-.31-.35-.66-.41-.91-.83s-.15-.85-.39-1.21c-.62-.93-1.43-.48-.89-1.77a8.84,8.84,0,0,1,1.16-1.89c.46-.46,1.28-.86,1.84-1.34a7.52,7.52,0,0,1,2-1.25c.84-.35,1.92-.37,2.7-.78.61-.33,1.3-.87,1.93-1.28-.34-1-2.46-.71-3.38-.59,1,2.31-2.36,1.48-3.18,2-.17-1.77,0-3.62,1.33-4.64,1.06-.83,2.89-2.39,4.2-2.47.11,2.55,4.63.15,5.8.13a17.22,17.22,0,0,0,3.25-.21l.29-.07A21.71,21.71,0,0,1,430.48,256.4Z"/><path class="cls-136" d="M426.76,274.71a6.54,6.54,0,0,0-3.09-.62c-1.36-.1-1.82.49-2.94,1-.64.28-.57.11-1.16.2a2.58,2.58,0,0,0-1.52.43c-1,.86-.49,1.93-.54,3.15a23,23,0,0,1-.3,3.64c.49-.07.91-.29,1.31-.38a11.11,11.11,0,0,1,1.8-.1,28.87,28.87,0,0,1,3.08.27c2.52.1,3.68-2.53,4.21-4.62C427.8,276.91,428.22,274.38,426.76,274.71Z"/><path class="cls-135" d="M396.86,257.25a8.36,8.36,0,0,1-.74,3.21c-.43,1-.52,2.31-1.19,3.26-1.29,1.76-3.43,6.51-4.5,6a21.82,21.82,0,0,1,4-14.18C395.47,255.66,396.77,256.35,396.86,257.25Z"/></g><path class="cls-137" d="M400.47,249.81c0,.07,0,.14,0,.21l-.08-.18Z"/><path class="cls-132" d="M381.83,243.5a4.74,4.74,0,1,1-4.74-4.75A4.74,4.74,0,0,1,381.83,243.5Z"/><circle class="cls-132" cx="70.32" cy="179.18" r="4.74"/><circle class="cls-132" cx="431.75" cy="163.74" r="4.74"/><path class="cls-132" d="M375.17,126.74a2.48,2.48,0,1,1-2.48-2.48A2.48,2.48,0,0,1,375.17,126.74Z"/><path class="cls-132" d="M490,242.89a1.24,1.24,0,0,1-2.48,0,1.24,1.24,0,1,1,2.48,0Z"/><path class="cls-132" d="M351.54,208.81a2.48,2.48,0,1,1-2.48-2.48A2.48,2.48,0,0,1,351.54,208.81Z"/><circle class="cls-132" cx="123.47" cy="137.26" r="1.75"/><path class="cls-132" d="M451,161.46a2.48,2.48,0,1,1-2.48-2.48A2.48,2.48,0,0,1,451,161.46Z"/><circle class="cls-132" cx="149.23" cy="190.91" r="3.49"/><path class="cls-132" d="M456,247.64a2.48,2.48,0,1,1-2.48-2.48A2.48,2.48,0,0,1,456,247.64Z"/><path class="cls-132" d="M364.06,146.14a1.74,1.74,0,1,1-1.74-1.74A1.74,1.74,0,0,1,364.06,146.14Z"/><circle class="cls-132" cx="149.23" cy="199.84" r="0.83"/><polygon class="cls-16" points="453.68 228.05 471.37 177.13 459.37 177.55 446.3 226.41 453.68 228.05"/><polygon class="cls-16" points="441.56 225.79 451.59 193.38 442.38 193.07 435.22 224.39 441.56 225.79"/><polygon class="cls-16" points="428.57 223.37 433.63 206.55 425.74 205.76 422.22 221.99 428.57 223.37"/><polygon class="cls-138" points="471.37 177.13 477.22 180.78 459.16 229.32 453.68 228.05 471.37 177.13"/><polygon class="cls-138" points="451.59 193.38 455.03 193.8 446.3 226.41 441.56 225.79 451.59 193.38"/><polygon class="cls-138" points="433.63 206.55 438.91 208.26 435.22 224.39 428.57 223.37 433.63 206.55"/><polygon class="cls-139" points="459.16 228.68 416.34 219.83 415.89 221.47 458.86 229.72 459.16 228.68"/><polygon class="cls-140" points="458.86 229.72 466.07 233.94 466.75 233.39 459.16 228.68 458.86 229.72"/><polygon class="cls-17" points="415.89 221.47 428.96 227.34 466.07 233.94 458.86 229.72 415.89 221.47"/><ellipse class="cls-141" cx="47.1" cy="261.44" rx="19.36" ry="19.53"/><path class="cls-138" d="M49.4,239.33a23.4,23.4,0,1,1-25.1,21.3A23.32,23.32,0,0,1,49.4,239.33ZM45.75,282.1A19.53,19.53,0,1,0,28.13,261,19.41,19.41,0,0,0,45.75,282.1Z"/><ellipse class="cls-142" cx="47.1" cy="261.44" rx="19.36" ry="19.53"/><path class="cls-143" d="M63.55,279l5,5.09-4.69,3.48-3.79-5.65S61.16,279.25,63.55,279Z"/><path class="cls-144" d="M68.86,281.27s-5-.93-7.74,5.4l20.57,29.8,11.89-8.69Z"/><path class="cls-145" d="M93.58,307.78s-1.79,7-11.89,8.69A58.86,58.86,0,0,1,93.58,307.78Z"/><path class="cls-17" d="M49.09,238.13A23.4,23.4,0,1,1,24,259.43,23.32,23.32,0,0,1,49.09,238.13Zm-3.65,42.76a19.53,19.53,0,1,0-17.62-21.13A19.39,19.39,0,0,0,45.44,280.89Z"/><path class="cls-146" d="M49,238.21a21.68,21.68,0,0,1,2.7.41l-.53,2.7a18.9,18.9,0,0,0-2.41-.36,19.8,19.8,0,0,0-17.2,7.4l-2-1.87A22.53,22.53,0,0,1,49,238.21Z"/><path class="cls-146" d="M67.1,250l-2.29,1.51A20,20,0,0,0,54,242.16l.67-2.68A22.76,22.76,0,0,1,67.1,250Z"/><path class="cls-147" d="M85.16,310,62.57,284.31a2.78,2.78,0,0,0-.8,1.08l20.42,29.53A22.17,22.17,0,0,1,85.16,310Z"/><path class="cls-148" d="M63.5,251.07,43.59,280.64a19.06,19.06,0,0,1-9.65-4.89l8.43-33.25s7.22-2,13.42,1.49S63.5,251.07,63.5,251.07Z"/></g></g></svg>