<svg id="Camada_1" data-name="Camada 1" xmlns="http://www.w3.org/2000/svg" viewBox="0 0 1518 965"><defs><style>.cls-1,.cls-2{fill:#007cdc;}.cls-1{opacity:0.53;}</style></defs><path class="cls-1" d="M1504.24,77.57l-39,689.29c-.5,8.86-5.51,16-11.59,16.61L12,922C5,922.63-.67,914.27-.09,904l39-689.3c.5-8.86,5.5-16,11.59-16.61L1492.12,59.61C1499.18,58.94,1504.82,67.29,1504.24,77.57Z"/><path class="cls-2" d="M1518,57.52l-39,689.29c-.5,8.86-5.5,16-11.58,16.62L25.74,901.9c-7.06.68-12.7-7.68-12.11-18l39-689.3c.51-8.86,5.51-16,11.59-16.61L1505.84,39.56C1512.89,38.89,1518.53,47.25,1518,57.52Z"/></svg>