<svg xmlns="http://www.w3.org/2000/svg" viewBox="0 0 63.58 50.47"><defs><style>.cls-1{fill:#fff;}</style></defs><g id="Camada_2" data-name="Camada 2"><g id="Camada_1-2" data-name="Camada 1"><path class="cls-1" d="M10.19,33.89a8.86,8.86,0,0,1-4.7-1.32A9.75,9.75,0,0,1,2.06,29,9.53,9.53,0,0,1,.78,24.19l.1-24A.17.17,0,0,1,1.07,0H6.45a.17.17,0,0,1,.19.19v24a3.92,3.92,0,0,0,1,2.76,3.3,3.3,0,0,0,2.52,1.13A3.35,3.35,0,0,0,12.76,27a3.92,3.92,0,0,0,1-2.76V.19A.17.17,0,0,1,14,0h5.38a.17.17,0,0,1,.19.19l.1,24A9.7,9.7,0,0,1,15,32.59,9,9,0,0,1,10.19,33.89Z"/><path class="cls-1" d="M23.87,33.41c-.25,0-.38-.11-.38-.34l0-32.69A.34.34,0,0,1,23.82,0h4.32l8.12,18.91L36,.38c0-.25.14-.38.43-.38H41.2c.19,0,.29.13.29.38l0,32.74c0,.19-.08.29-.24.29H37.07l-8.3-17.67L29.1,33c0,.26-.14.39-.43.39Z"/><path class="cls-1" d="M44.08,33.17l6-33A.22.22,0,0,1,50.27,0h7a.22.22,0,0,1,.24.19l5.71,33c0,.16,0,.24-.19.24H57.66q-.19,0-.24-.24l-.52-3.51H50.37l-.53,3.51q0,.24-.24.24H44.27C44.14,33.41,44.08,33.33,44.08,33.17Zm7.25-8.64h4.61L54,11l-.29-1.78L53.49,11Z"/><path class="cls-1" d="M3.92,50.47a3.77,3.77,0,0,1-2-.55A4.14,4.14,0,0,1,.52,48.45,4.1,4.1,0,0,1,0,46.39l0-6.24a4,4,0,0,1,.51-2,3.92,3.92,0,0,1,1.4-1.46,3.68,3.68,0,0,1,2-.55,3.73,3.73,0,0,1,2,.54,4,4,0,0,1,1.92,3.48v.92a.07.07,0,0,1-.08.08H5.5a.07.07,0,0,1-.08-.08v-.92A1.64,1.64,0,0,0,5,39a1.38,1.38,0,0,0-1.07-.48,1.3,1.3,0,0,0-1.1.49,1.79,1.79,0,0,0-.38,1.13v6.24a1.68,1.68,0,0,0,.43,1.2,1.42,1.42,0,0,0,1,.46A1.34,1.34,0,0,0,5,47.54a1.73,1.73,0,0,0,.43-1.15v-.92c0-.06,0-.08.08-.08H7.76s.08,0,.08.08v.92A4.11,4.11,0,0,1,5.9,49.92,3.73,3.73,0,0,1,3.92,50.47Z"/><path class="cls-1" d="M13,50.47a3.72,3.72,0,0,1-2-.55A4.34,4.34,0,0,1,9.6,48.46a3.88,3.88,0,0,1-.54-2l0-6.34a3.88,3.88,0,0,1,.53-2A4,4,0,0,1,11,36.67a3.73,3.73,0,0,1,2-.54,3.68,3.68,0,0,1,2,.54,4.05,4.05,0,0,1,1.41,1.44,3.88,3.88,0,0,1,.53,2l0,6.34a4,4,0,0,1-.53,2A4.22,4.22,0,0,1,15,49.92,3.72,3.72,0,0,1,13,50.47Zm0-2.42a1.41,1.41,0,0,0,1.05-.49,1.61,1.61,0,0,0,.45-1.11l0-6.34A1.59,1.59,0,0,0,14.06,39,1.36,1.36,0,0,0,13,38.53a1.43,1.43,0,0,0-1.06.45,1.55,1.55,0,0,0-.44,1.13v6.34a1.62,1.62,0,0,0,.44,1.13A1.41,1.41,0,0,0,13,48.05Z"/><path class="cls-1" d="M18.52,50.27c-.05,0-.08,0-.08-.1l0-13.74c0-.06,0-.08.08-.08H21a.16.16,0,0,1,.14.08L23,39.07l1.82-2.64a.16.16,0,0,1,.14-.08h2.46c.05,0,.08,0,.08.08l0,13.74c0,.06,0,.1-.08.1H25.16c-.05,0-.08,0-.08-.1l0-10.2L23,43l-2.08-3,0,10.2c0,.06,0,.1-.08.1Z"/><path class="cls-1" d="M29.28,50.27a.09.09,0,0,1-.1-.1l0-13.74c0-.06,0-.08.08-.08h3.84a3.81,3.81,0,0,1,2.91,1.12,4.22,4.22,0,0,1,1.07,3A5.19,5.19,0,0,1,36.56,43a4.2,4.2,0,0,1-1.46,1.6,3.66,3.66,0,0,1-2,.56H31.62v5a.09.09,0,0,1-.1.1Zm2.34-7.56h1.52a1.38,1.38,0,0,0,1.11-.61,2.57,2.57,0,0,0,.47-1.59,1.92,1.92,0,0,0-.42-1.28,1.42,1.42,0,0,0-1.16-.5l-1.52,0Z"/><path class="cls-1" d="M38.56,50.27c-.05,0-.08,0-.08-.1l0-13.74c0-.06,0-.08.08-.08h4a3.83,3.83,0,0,1,2,.53,4,4,0,0,1,1.45,1.42,4.06,4.06,0,0,1,.32,3.34,4.46,4.46,0,0,1-.52,1,3.89,3.89,0,0,1-.54.61,4.08,4.08,0,0,1,1.08,2.82l0,4.1a.09.09,0,0,1-.1.1H44.08s-.08,0-.08-.06V46.07a1.74,1.74,0,0,0-.51-1.25,1.65,1.65,0,0,0-1.25-.53H40.92l0,5.88c0,.06,0,.1-.08.1Zm2.36-8.38h1.72a1.58,1.58,0,0,0,1.1-.46,1.5,1.5,0,0,0,.48-1.12,1.48,1.48,0,0,0-.47-1.1,1.51,1.51,0,0,0-1.11-.46H40.92Z"/><path class="cls-1" d="M47.44,50.17l2.48-13.74a.09.09,0,0,1,.1-.08h2.9a.09.09,0,0,1,.1.08L55.4,50.17c0,.06,0,.1-.08.1H53.1a.11.11,0,0,1-.1-.1l-.22-1.46H50.06l-.22,1.46a.11.11,0,0,1-.1.1H47.52C47.47,50.27,47.44,50.23,47.44,50.17Zm3-3.6h1.92L51.56,41l-.12-.74-.08.74Z"/><path class="cls-1" d="M59.66,50.47a3.72,3.72,0,0,1-2-.55,4.22,4.22,0,0,1-1.42-1.46,4,4,0,0,1-.53-2v-.92c0-.07,0-.1.1-.1h2.24c.05,0,.08,0,.08.1v.92a1.62,1.62,0,0,0,.44,1.13,1.41,1.41,0,0,0,1.06.47,1.39,1.39,0,0,0,1.06-.48,1.63,1.63,0,0,0,.44-1.12c0-.5-.32-.92-1-1.28l-1-.56-1.28-.72a4.27,4.27,0,0,1-1.63-1.61,4.55,4.55,0,0,1-.53-2.19,3.78,3.78,0,0,1,.54-2,3.94,3.94,0,0,1,1.43-1.41,3.7,3.7,0,0,1,1.93-.52,3.66,3.66,0,0,1,2,.53A3.94,3.94,0,0,1,63,38.1a3.82,3.82,0,0,1,.53,2v1.64a.07.07,0,0,1-.08.08H61.24a.07.07,0,0,1-.08-.08l0-1.64A1.54,1.54,0,0,0,60.7,39a1.39,1.39,0,0,0-1-.44A1.38,1.38,0,0,0,58.6,39a1.57,1.57,0,0,0-.44,1.11,2,2,0,0,0,.28,1.1,2.73,2.73,0,0,0,1,.84l.39.21.63.34.61.33.33.18A4.83,4.83,0,0,1,63,44.46a3.3,3.3,0,0,1,.58,2,4,4,0,0,1-.53,2,4.17,4.17,0,0,1-1.42,1.44A3.8,3.8,0,0,1,59.66,50.47Z"/></g></g></svg>