<?xml version="1.0" encoding="utf-8"?>
<!-- Generator: Adobe Illustrator 24.1.2, SVG Export Plug-In . SVG Version: 6.00 Build 0)  -->
<svg version="1.1" id="Camada_1" xmlns="http://www.w3.org/2000/svg" xmlns:xlink="http://www.w3.org/1999/xlink" x="0px" y="0px"
	 viewBox="0 0 82 57" style="enable-background:new 0 0 82 57;" xml:space="preserve">
<style type="text/css">
	.st0{fill:#FFFFFF;}
</style>
<path class="st0" d="M11.7,52.5c-0.7,0-1.4-0.2-2-0.5c-1.2-0.8-2-2.1-1.9-3.5v-6.2c0-0.7,0.2-1.4,0.5-2c0.3-0.6,0.8-1.1,1.4-1.5
	c1.2-0.7,2.8-0.7,4,0c0.6,0.4,1.1,0.9,1.4,1.5c0.3,0.6,0.5,1.3,0.5,2V43c0,0,0,0.1-0.1,0.1h-2.2c0,0-0.1,0-0.1-0.1c0,0,0,0,0,0v-0.9
	c0-0.4-0.1-0.8-0.4-1.1c-0.3-0.3-0.7-0.5-1.1-0.5c-0.4,0-0.8,0.2-1.1,0.5c-0.3,0.3-0.4,0.7-0.4,1.1v6.2c0,0.4,0.1,0.9,0.4,1.2
	c0.3,0.3,0.6,0.5,1.1,0.5c0.4,0,0.8-0.2,1.1-0.5c0.3-0.3,0.4-0.7,0.4-1.2v-0.9c0,0,0-0.1,0.1-0.1c0,0,0,0,0,0h2.3
	c0.1,0,0.1,0,0.1,0.1v0.9c0,0.7-0.2,1.4-0.5,2.1c-0.3,0.6-0.8,1.1-1.4,1.5C13.1,52.3,12.4,52.5,11.7,52.5z"/>
<path class="st0" d="M22.1,52.5c-0.7,0-1.4-0.2-2-0.5c-0.6-0.4-1.1-0.9-1.4-1.5c-0.4-0.6-0.5-1.3-0.5-2v-6.3c0-0.7,0.2-1.4,0.5-2
	c0.3-0.6,0.8-1.1,1.4-1.4c0.6-0.4,1.3-0.6,2-0.5c0.7,0,1.4,0.2,2,0.5c0.6,0.4,1.1,0.8,1.4,1.4c0.4,0.6,0.5,1.3,0.5,2v6.3
	c0,0.7-0.2,1.4-0.5,2c-0.4,0.6-0.9,1.1-1.5,1.5C23.4,52.3,22.8,52.5,22.1,52.5z M22.1,50c0.4,0,0.8-0.2,1-0.5
	c0.3-0.3,0.4-0.7,0.5-1.1v-6.3c0-0.4-0.2-0.8-0.4-1.1c-0.3-0.3-0.7-0.5-1.1-0.5c-0.4,0-0.8,0.2-1.1,0.5c-0.3,0.3-0.5,0.7-0.4,1.1
	v6.3c0,0.4,0.2,0.8,0.4,1.1C21.3,49.9,21.7,50,22.1,50L22.1,50z"/>
<path class="st0" d="M28.9,52.3C28.8,52.3,28.8,52.3,28.9,52.3l-0.1-13.8c0,0,0-0.1,0.1-0.1c0,0,0,0,0,0h2.4c0.1,0,0.1,0,0.1,0.1
	l1.8,2.6l1.8-2.6c0,0,0.1-0.1,0.1-0.1h2.5c0.1,0,0.1,0,0.1,0.1v13.7c0,0.1,0,0.1-0.1,0.1h-2.2c0,0-0.1,0-0.1-0.1V42l-2.1,3l-2.1-3
	v10.2c0,0.1,0,0.1-0.1,0.1L28.9,52.3z"/>
<path class="st0" d="M40.9,52.3C40.8,52.3,40.8,52.2,40.9,52.3C40.8,52.2,40.8,52.2,40.9,52.3l-0.1-13.8c0,0,0-0.1,0.1-0.1
	c0,0,0,0,0,0h3.8c1.1-0.1,2.1,0.3,2.9,1.1c0.7,0.8,1.1,1.9,1.1,3c0.1,0.9-0.1,1.8-0.5,2.5c-0.3,0.7-0.8,1.2-1.5,1.6
	c-0.6,0.4-1.3,0.6-2,0.6h-1.5v5c0,0.1,0,0.1-0.1,0.1H40.9z M43.2,44.7h1.5c0.4,0,0.9-0.2,1.1-0.6c0.3-0.5,0.5-1,0.5-1.6
	c0-0.5-0.1-0.9-0.4-1.3c-0.3-0.3-0.7-0.5-1.2-0.5h-1.5L43.2,44.7z"/>
<path class="st0" d="M51.4,52.3C51.4,52.3,51.3,52.3,51.4,52.3l-0.1-13.8c0,0,0-0.1,0.1-0.1c0,0,0,0,0,0h4c0.7,0,1.4,0.2,2,0.5
	c0.6,0.3,1.1,0.8,1.5,1.4c0.4,0.6,0.5,1.3,0.5,2c0,0.5-0.1,0.9-0.2,1.3c-0.1,0.4-0.3,0.7-0.5,1c-0.2,0.2-0.3,0.4-0.5,0.6
	c0.7,0.8,1.1,1.8,1.1,2.8v4.1c0,0.1,0,0.1-0.1,0.1h-2.2c0,0-0.1,0-0.1-0.1v-4.1c0-0.5-0.2-0.9-0.5-1.3c-0.3-0.3-0.8-0.5-1.3-0.5
	h-1.3v5.9c0,0.1,0,0.1-0.1,0.1L51.4,52.3z M53.8,43.9h1.7c0.4,0,0.8-0.2,1.1-0.5c0.3-0.3,0.5-0.7,0.5-1.1c0-0.4-0.2-0.8-0.5-1.1
	c-0.3-0.3-0.7-0.5-1.1-0.5h-1.7V43.9z"/>
<path class="st0" d="M61.5,52.2L64,38.4c0,0,0.1-0.1,0.1-0.1H67c0,0,0.1,0,0.1,0.1c0,0,0,0,0,0l2.4,13.7c0,0.1,0,0.1-0.1,0.1h-2.2
	c0,0-0.1,0-0.1-0.1l-0.2-1.5h-2.7L64,52.2c0,0.1,0,0.1-0.1,0.1L61.5,52.2C61.6,52.3,61.5,52.2,61.5,52.2z M64.6,48.6h1.9l-0.8-5.6
	l-0.1-0.7l-0.1,0.7L64.6,48.6z"/>
<path class="st0" d="M75,52.5c-0.7,0-1.4-0.2-2-0.5c-0.6-0.4-1.1-0.9-1.4-1.5c-0.3-0.6-0.5-1.3-0.5-2v-0.9c0,0,0-0.1,0.1-0.1
	c0,0,0,0,0,0h2.2c0.1,0,0.1,0,0.1,0.1v0.9c0,0.4,0.2,0.8,0.5,1.1c0.3,0.3,0.6,0.4,1,0.4c0.4,0,0.8-0.2,1.1-0.5
	c0.3-0.3,0.4-0.7,0.4-1.1c-0.1-0.6-0.5-1.1-1-1.3l-1-0.6l-1.3-0.7c-0.7-0.4-1.2-0.9-1.6-1.6c-0.4-0.7-0.5-1.4-0.5-2.2
	c0-0.7,0.2-1.4,0.5-2c0.4-0.6,0.8-1.1,1.4-1.4c1.2-0.7,2.7-0.7,3.9,0c0.6,0.3,1.1,0.8,1.4,1.4c0.4,0.6,0.5,1.3,0.5,2v1.6
	c0,0,0,0.1-0.1,0.1h-2.2c0,0-0.1,0-0.1-0.1c0,0,0,0,0,0V42c0-0.4-0.1-0.8-0.4-1.1c-0.6-0.6-1.5-0.5-2,0c0,0,0,0-0.1,0.1
	c-0.3,0.3-0.4,0.7-0.4,1.1c0,0.4,0.1,0.8,0.3,1.1c0.3,0.4,0.6,0.6,1,0.8l0.4,0.2c0.2,0.1,0.4,0.2,0.6,0.3l0.6,0.3l0.3,0.2
	c0.6,0.3,1.2,0.8,1.6,1.4c0.4,0.6,0.6,1.3,0.6,2c0,0.7-0.2,1.4-0.5,2c-0.3,0.6-0.8,1.1-1.4,1.4C76.4,52.3,75.7,52.5,75,52.5z"/>
<path class="st0" d="M53.6,34h-5.5l-10-17.1V34h-5.2V8.1h5.5l10,17.1V8.1h5.2V34z"/>
<path class="st0" d="M78.8,34h-5.2v-5.2H63.3V34h-5.2V18.5c0-1.4,0.3-2.7,0.8-4c0.5-1.2,1.3-2.3,2.2-3.3c0.9-1,2.1-1.7,3.3-2.3
	c2.6-1.1,5.5-1.1,8.1,0c1.2,0.5,2.3,1.3,3.3,2.2c0.9,1,1.7,2.1,2.2,3.3c0.5,1.3,0.8,2.6,0.8,4L78.8,34z M73.7,23.6v-5.2
	c0-0.7-0.1-1.4-0.4-2c-0.3-0.6-0.6-1.2-1.1-1.6c-0.5-0.5-1-0.9-1.7-1.1c-0.6-0.3-1.3-0.4-2-0.4c-0.7,0-1.4,0.1-2,0.4
	c-0.6,0.3-1.2,0.6-1.7,1.1c-1,1-1.5,2.3-1.5,3.7v5.2L73.7,23.6z"/>
<path class="st0" d="M28.4,8.1v15.6c0,2.7-1.1,5.4-3,7.3c-0.9,0.9-2.1,1.7-3.3,2.2c-2.6,1.1-5.5,1.1-8.1,0c-2.5-1.1-4.4-3-5.5-5.5
	c-0.5-1.3-0.8-2.6-0.8-4V9.1H3V6l9.8-1.5v19.1c0,0.7,0.1,1.4,0.4,2c0.3,0.6,0.6,1.2,1.1,1.6c0.5,0.5,1,0.9,1.7,1.1
	c0.6,0.3,1.3,0.4,2,0.4c0.7,0,1.4-0.1,2-0.4c1.2-0.5,2.2-1.5,2.8-2.8c0.3-0.6,0.4-1.3,0.4-2V8.1H28.4z"/>
</svg>
