<svg id="Layer_1" data-name="Layer 1" xmlns="http://www.w3.org/2000/svg" viewBox="0 0 1401.31 138.9"><defs><style>.cls-1{fill:#083e7a;}</style></defs><path class="cls-1" d="M106.82,1.75V50.82c0,12.11-4.94,22.67-14.84,31.27a51.6,51.6,0,0,1-35,13c-13.64,0-25.51-4.39-35.2-13S7.12,62.93,7.12,50.82V1.75H0V50.82C0,64.7,5.52,76.66,16.61,86.51Q33.52,101.27,57,101.26c15.44,0,28.7-4.91,40-14.75s16.81-21.81,16.81-35.69V1.75Z"/><path id="_1" data-name="1" class="cls-1" d="M260,50.46c0-13.88-5.74-25.68-17-35.51C231.66,4.92,218.22,0,202.58,0S173.5,4.92,162.23,15c-11.29,9.83-16.83,21.63-16.83,35.51v49h7.32v-49q0-18.19,14.83-31.12a51,51,0,0,1,35-13.2c13.66,0,25.33,4.4,35.22,13.2q14.85,12.91,14.84,31.12v49H260v-49Z"/><path id="_2" data-name="2" class="cls-1" d="M364,91.76a56.85,56.85,0,0,1-19.38,3.53c-14.24,0-26.11-4.39-35.8-13.35q-14.25-13.48-14.24-31.12c0-12.67,4.94-23.23,15-31.66A54.15,54.15,0,0,1,379.45,19c10.09,8.43,15.24,18.63,15.24,30.58V99.5h6.92V50.82c0-14.6-5.75-26.55-17.21-36.22C373.13,4.92,359.86.18,344.62.18c-16,0-29.47,5.1-40.54,15.1-10.89,10-16.42,21.81-16.42,35.54,0,14.41,5.73,26.53,17.22,36.2a59.74,59.74,0,0,0,39.74,14.41,63,63,0,0,0,22.16-4L364,91.76Z"/><path id="_3" data-name="3" class="cls-1" d="M592.14,80.34c-9.71,9.85-22.15,14.77-37,14.77-13.67,0-25.53-4.39-35.23-13s-14.44-19-14.44-31.12c0-11.95,4.95-22.31,14.64-30.94q14.53-13.17,35-13.18c13.25,0,25.71,4.93,37.18,15l5.15-4.06C587.77,7,571.16.69,555.14.69c-15.63,0-28.9,4.92-40,14.77S498.56,37.09,498.56,51s5.52,25.51,16.62,35.54c11.26,9.84,24.53,14.75,40,14.75,15.62,0,29.68-5.62,42.13-16.71l-5.13-4.21Z"/><path id="_4" data-name="4" class="cls-1" d="M718,15.1C706.88,5.1,693.62.18,678,.18S648.9,5.1,637.83,15.1C626.74,25,621.22,36.73,621.22,50.64s5.52,25.66,16.61,35.69C649.1,96.17,662.37,101.1,678,101.1s28.88-4.93,40-14.77c11.29-10,16.81-21.81,16.81-35.69S729.24,25.13,718,15.1ZM713.2,81.93c-9.69,8.61-21.56,13-35.2,13s-25.53-4.39-35.22-13-14.64-19.16-14.64-31.29c0-12,5-22.34,14.64-31.12,9.89-8.81,21.56-13.2,35.22-13.2s25.31,4.39,35,13.2q14.85,13.17,14.84,31.12C727.84,62.77,722.9,73.31,713.2,81.93Z"/><path id="_5" data-name="5" class="cls-1" d="M908.69,33.58c0-9.14-4-17.06-11.69-23.55A40.14,40.14,0,0,0,870.29.18c-14.44,0-27.88,7.21-34.42,18.27C829.35,7.21,815.71.18,801.44.18A41.44,41.44,0,0,0,774,10c-7.72,6.49-11.49,14.41-11.49,23.55V99.5h7.32V35c0-7.74,3.17-14.42,9.3-20a31.37,31.37,0,0,1,22.35-8.63c14.07,0,26.13,8.1,30.68,20.59v72.6h7.32V26.91c4.15-12.14,16.81-20.59,30.85-20.59,8.92,0,16.24,2.82,22.16,8.45A26.71,26.71,0,0,1,901.37,35V99.5h7.32V33.58Z"/><path id="_6" data-name="6" class="cls-1" d="M1054.48,50.82c0-13.56-5.52-25.33-16.41-35.36C1027.18,5.28,1013.54.18,997.52.18a60.88,60.88,0,0,0-40,14.59c-11.46,9.67-17.21,21.63-17.21,36.05V138.9h7.12V49.57c0-11.77,4.95-21.8,14.84-30.41A52.36,52.36,0,0,1,997.52,6.32a51.33,51.33,0,0,1,34.81,12.84c10.09,8.61,15,19.17,15,31.66q0,17.66-14.24,31.12c-9.29,9-21.16,13.35-35.6,13.35a57.11,57.11,0,0,1-19.58-3.53l-2.78,5.64a65,65,0,0,0,22.36,4A59.6,59.6,0,0,0,1037.07,87C1048.76,77.34,1054.48,65.23,1054.48,50.82Z"/><path id="_7" data-name="7" class="cls-1" d="M1139,0a59.66,59.66,0,0,0-39.57,14.42c-11.47,9.49-17.21,21.62-17.21,36.22V99.5h6.92V50.64c0-12.13,5-22.69,14.64-31.3,9.69-8.8,21.58-13.2,35.22-13.2V0Z"/><path id="_8" data-name="8" class="cls-1" d="M1229.18,91.76a56.94,56.94,0,0,1-19.38,3.53c-14.24,0-26.11-4.39-35.8-13.35q-14.25-13.48-14.27-31.12c0-12.67,5-23.23,15-31.66a54.19,54.19,0,0,1,69.85-.17c10.09,8.43,15.24,18.63,15.24,30.58V99.5h6.92V50.82c0-14.6-5.74-26.55-17.21-36.22C1238.3,4.92,1225,.18,1209.8.18c-16,0-29.48,5.1-40.55,15.1-10.89,10-16.44,21.81-16.44,35.54,0,14.41,5.75,26.53,17.22,36.2a59.83,59.83,0,0,0,39.77,14.41,63,63,0,0,0,22.16-4l-2.78-5.64Z"/><path id="_9" data-name="9" class="cls-1" d="M1303.78,30.41c3.75-7,9.89-12.84,18-17.24a52.31,52.31,0,0,1,25.93-6.85c15.63,0,31.45,6.68,41.54,20.05l6-3.52C1384.89,8.78,1366.88.18,1347.7.18c-12.47,0-23.36,3.15-32.85,9.31-9.3,6.15-16.22,14.07-20.37,23.74l97.73,38c-8.11,13.53-23.93,23.91-44.51,23.91a54.8,54.8,0,0,1-27.91-7.38c-8.49-4.93-14.64-11.43-18.39-19.7l-6.54,2.11A50,50,0,0,0,1321,95.47c10.87,4,19.59,5.79,26.71,5.79a58.87,58.87,0,0,0,32.45-9.14A54.61,54.61,0,0,0,1401.31,68Z"/><path id="_10" data-name="10" class="cls-1" d="M106.82,1.75V50.82c0,12.11-4.94,22.67-14.84,31.27a51.6,51.6,0,0,1-35,13c-13.64,0-25.51-4.39-35.2-13S7.12,62.93,7.12,50.82V1.75H0V50.82C0,64.7,5.52,76.66,16.61,86.51Q33.52,101.27,57,101.26c15.44,0,28.7-4.91,40-14.75s16.81-21.81,16.81-35.69V1.75Z"/><path id="_11" data-name="11" class="cls-1" d="M260,50.46c0-13.88-5.74-25.68-17-35.51C231.66,4.92,218.22,0,202.58,0S173.5,4.92,162.23,15c-11.29,9.83-16.83,21.63-16.83,35.51v49h7.32v-49q0-18.19,14.83-31.12a51,51,0,0,1,35-13.2c13.66,0,25.33,4.4,35.22,13.2q14.85,12.91,14.84,31.12v49H260v-49Z"/><path id="_12" data-name="12" class="cls-1" d="M364,91.76a56.85,56.85,0,0,1-19.38,3.53c-14.24,0-26.11-4.39-35.8-13.35q-14.25-13.48-14.24-31.12c0-12.67,4.94-23.23,15-31.66A54.15,54.15,0,0,1,379.45,19c10.09,8.43,15.24,18.63,15.24,30.58V99.5h6.92V50.82c0-14.6-5.75-26.55-17.21-36.22C373.13,4.92,359.86.18,344.62.18c-16,0-29.47,5.1-40.54,15.1-10.89,10-16.42,21.81-16.42,35.54,0,14.41,5.73,26.53,17.22,36.2a59.74,59.74,0,0,0,39.74,14.41,63,63,0,0,0,22.16-4L364,91.76Z"/><path id="_13" data-name="13" class="cls-1" d="M592.14,80.34c-9.71,9.85-22.15,14.77-37,14.77-13.67,0-25.53-4.39-35.23-13s-14.44-19-14.44-31.12c0-11.95,4.95-22.31,14.64-30.94q14.53-13.17,35-13.18c13.25,0,25.71,4.93,37.18,15l5.15-4.06C587.77,7,571.16.69,555.14.69c-15.63,0-28.9,4.92-40,14.77S498.56,37.09,498.56,51s5.52,25.51,16.62,35.54c11.26,9.84,24.53,14.75,40,14.75,15.62,0,29.68-5.62,42.13-16.71l-5.13-4.21Z"/><path id="_14" data-name="14" class="cls-1" d="M718,15.1C706.88,5.1,693.62.18,678,.18S648.9,5.1,637.83,15.1C626.74,25,621.22,36.73,621.22,50.64s5.52,25.66,16.61,35.69C649.1,96.17,662.37,101.1,678,101.1s28.88-4.93,40-14.77c11.29-10,16.81-21.81,16.81-35.69S729.24,25.13,718,15.1ZM713.2,81.93c-9.69,8.61-21.56,13-35.2,13s-25.53-4.39-35.22-13-14.64-19.16-14.64-31.29c0-12,5-22.34,14.64-31.12,9.89-8.81,21.56-13.2,35.22-13.2s25.31,4.39,35,13.2q14.85,13.17,14.84,31.12C727.84,62.77,722.9,73.31,713.2,81.93Z"/><path id="_15" data-name="15" class="cls-1" d="M908.69,33.58c0-9.14-4-17.06-11.69-23.55A40.14,40.14,0,0,0,870.29.18c-14.44,0-27.88,7.21-34.42,18.27C829.35,7.21,815.71.18,801.44.18A41.44,41.44,0,0,0,774,10c-7.72,6.49-11.49,14.41-11.49,23.55V99.5h7.32V35c0-7.74,3.17-14.42,9.3-20a31.37,31.37,0,0,1,22.35-8.63c14.07,0,26.13,8.1,30.68,20.59v72.6h7.32V26.91c4.15-12.14,16.81-20.59,30.85-20.59,8.92,0,16.24,2.82,22.16,8.45A26.71,26.71,0,0,1,901.37,35V99.5h7.32V33.58Z"/><path id="_16" data-name="16" class="cls-1" d="M1054.48,50.82c0-13.56-5.52-25.33-16.41-35.36C1027.18,5.28,1013.54.18,997.52.18a60.88,60.88,0,0,0-40,14.59c-11.46,9.67-17.21,21.63-17.21,36.05V138.9h7.12V49.57c0-11.77,4.95-21.8,14.84-30.41A52.36,52.36,0,0,1,997.52,6.32a51.33,51.33,0,0,1,34.81,12.84c10.09,8.61,15,19.17,15,31.66q0,17.66-14.24,31.12c-9.29,9-21.16,13.35-35.6,13.35a57.11,57.11,0,0,1-19.58-3.53l-2.78,5.64a65,65,0,0,0,22.36,4A59.6,59.6,0,0,0,1037.07,87C1048.76,77.34,1054.48,65.23,1054.48,50.82Z"/><path id="_17" data-name="17" class="cls-1" d="M1139,0a59.66,59.66,0,0,0-39.57,14.42c-11.47,9.49-17.21,21.62-17.21,36.22V99.5h6.92V50.64c0-12.13,5-22.69,14.64-31.3,9.69-8.8,21.58-13.2,35.22-13.2V0Z"/><path id="_18" data-name="18" class="cls-1" d="M1229.18,91.76a56.94,56.94,0,0,1-19.38,3.53c-14.24,0-26.11-4.39-35.8-13.35q-14.25-13.48-14.27-31.12c0-12.67,5-23.23,15-31.66a54.19,54.19,0,0,1,69.85-.17c10.09,8.43,15.24,18.63,15.24,30.58V99.5h6.92V50.82c0-14.6-5.74-26.55-17.21-36.22C1238.3,4.92,1225,.18,1209.8.18c-16,0-29.48,5.1-40.55,15.1-10.89,10-16.44,21.81-16.44,35.54,0,14.41,5.75,26.53,17.22,36.2a59.83,59.83,0,0,0,39.77,14.41,63,63,0,0,0,22.16-4l-2.78-5.64Z"/><path id="_19" data-name="19" class="cls-1" d="M1303.78,30.41c3.75-7,9.89-12.84,18-17.24a52.31,52.31,0,0,1,25.93-6.85c15.63,0,31.45,6.68,41.54,20.05l6-3.52C1384.89,8.78,1366.88.18,1347.7.18c-12.47,0-23.36,3.15-32.85,9.31-9.3,6.15-16.22,14.07-20.37,23.74l97.73,38c-8.11,13.53-23.93,23.91-44.51,23.91a54.8,54.8,0,0,1-27.91-7.38c-8.49-4.93-14.64-11.43-18.39-19.7l-6.54,2.11A50,50,0,0,0,1321,95.47c10.87,4,19.59,5.79,26.71,5.79a58.87,58.87,0,0,0,32.45-9.14A54.61,54.61,0,0,0,1401.31,68Z"/></svg>