<svg id="OBJECTS" xmlns="http://www.w3.org/2000/svg" viewBox="0 0 500 400"><defs><style>.cls-1{fill:#bbe2f2;}.cls-2{fill:#1c31b5;}.cls-3{fill:#009cf8;}.cls-4{fill:#006bde;}.cls-5{fill:#18315b;}.cls-6{fill:#000b29;}.cls-7{fill:#f97853;}.cls-8{fill:#ea5143;}.cls-9{fill:#ffa681;}.cls-10{fill:#fff;}.cls-11{fill:#264cbe;}.cls-12{fill:#e3e3e3;}.cls-13{fill:#1d567e;}</style></defs><path class="cls-1" d="M219.39,97.55C203.76,40.86,133.34,22.59,93,65q-.87.92-1.74,1.86C33.39,129.71,60.72,284.7,181.47,324s246.34-32.45,253.4-96.58-48.65-84.28-135.1-66.35C250.92,171.2,229.12,132.84,219.39,97.55Z"/><path class="cls-1" d="M319.83,107.24c-16.15,2.63-20.63,17-8.15,27.1,4.12,3.36,10,6.15,18.4,7.54,31.95,5.3,48.91-8.84,36.1-27.17C358.27,103.4,335.85,104.64,319.83,107.24Z"/><path class="cls-1" d="M62.24,221.79c-10.05-12.93-24.76-10-27.7,5.81-1,5.22-.6,11.73,2.19,19.76C47.38,278,67.91,286.07,77.87,266.05,84,253.69,72.19,234.59,62.24,221.79Z"/><path class="cls-1" d="M446.26,234.86c-1.49,7.79,4.94,13.31,12.23,10.31a15.42,15.42,0,0,0,7-6.27c8.24-12.81,4.07-23.8-7.4-22.67C451,216.92,447.73,227.14,446.26,234.86Z"/><path class="cls-1" d="M405.42,152.64c7.76,1.63,13.39-4.71,10.51-12a15.39,15.39,0,0,0-6.15-7.11c-12.67-8.45-23.73-4.47-22.8,7C387.56,147.58,397.72,151,405.42,152.64Z"/><path class="cls-1" d="M216.69,69.27c6.15,5,14.06,2,14.88-5.86a15.35,15.35,0,0,0-2.18-9.14c-7.36-13.34-19-14.89-23.47-4.27C203.17,56.56,210.6,64.3,216.69,69.27Z"/><path class="cls-2" d="M465.51,273.84c12.33-12.4,21.72-26.4,12.38-28.59s-25.05,22.23-27.79,44.44L447.36,297c2.28-16.16-3.26-35.84-11.36-36.65s-3.18,12,3.22,22.88c4.87,8.31,6.15,14.86,6.47,18.25l-12.93,34.65c3.53-25.6-5.24-56.65-18.06-57.94s-5.05,19,5.1,36.3c7.67,13.09,9.74,23.45,10.26,28.86l-2.58,6.9c1.13.64,2.26,1.27,3.4,1.89L446.26,311a49.92,49.92,0,0,1,13.9-7.06c12-4.06,24-10.51,17.42-15.18-5.74-4-19.23,3.75-28.52,14.76l5.32-14.25C456.78,285.09,460.19,279.19,465.51,273.84Z"/><path class="cls-2" d="M76.87,112.14c1.6-15,.36-29.44-7.09-25.87s-4.85,28.43,5.29,44.82l2.12,6.41C70,125.42,55.68,115.19,49.8,119s4.31,9.75,14.49,13.63c7.75,3,12.15,6.67,14.19,8.77l10,30.24c-11.43-19.1-34-35.22-43.36-29.17s6.84,15.46,23,21.62c12.2,4.66,19.17,10.5,22.44,13.85l2,6c1.1-.19,2.2-.37,3.3-.57L84,147.44a43,43,0,0,1,5.52-12.23C95.34,126,100,115.2,93,115.63c-6,.37-10.9,12.88-11.2,25.28l-4.11-12.44A62,62,0,0,1,76.87,112.14Z"/><path class="cls-3" d="M382.28,315c.16.85.34,1.77.55,2.76h0c2.22,10.32,7.67,27.22,19.94,30.54,0,0-6.68-34.8,17.11-43.87s21.16-17.69,19.8-33.06-6.61-18.29,9.89-32.68,13.35-35.82,13.35-35.82-15.62,24.47-32.31,25-19.6,14.81-18.89,25.4-13.46,11.79-21.13,17.94-9.11,38.4-9.11,38.4S381.69,311.77,382.28,315Z"/><path class="cls-4" d="M382.28,315c.16.85.34,1.77.55,2.76a53.19,53.19,0,0,1,6.37-12.87c5.34-7.9,12.86-14.4,19.61-16.95,10.77-4.05,16-14.61,17-34.23.59-11.38,12.5-18.11,12.63-18.17a.74.74,0,0,0,.28-1,.73.73,0,0,0-1-.28c-.52.29-12.74,7.17-13.37,19.37-1,19-6,29.13-16.1,33-7.14,2.69-14.73,9.23-20.3,17.49A54.73,54.73,0,0,0,382.28,315Z"/><path class="cls-4" d="M119,348.12h16.71c-9-1.49-31.42-11.11-33.42-30.38C99.72,293.32,91,293.62,76.37,291.07s-18.68,1.61-28-17.34-30.06-21.35-30.06-21.35S37.24,273,33.62,288.71s8.93,22,19,23.92,7.64,15.47,11.46,24.14c1.74,4,8.87,8.06,16.11,11.35Z"/><path class="cls-2" d="M82.75,324.08c.73,7.32,4.93,16,11.25,23.27l.69.77h1.9c-.55-.57-1.06-1.14-1.54-1.69-6-6.94-10.22-15.55-10.92-22.48-1.1-11-9.63-18.56-27.65-24.39-10.46-3.38-13.77-16.15-13.8-16.28a.7.7,0,0,0-.84-.51.71.71,0,0,0-.51.85c.14.55,3.51,13.65,14.72,17.27C73.47,306.52,81.71,313.67,82.75,324.08Z"/><path class="cls-3" d="M128,302.8c-.35,1.19-.75,2.48-1.2,3.85h0C122,321,112.26,345.27,94.26,348.12c0,0,14.25-49.58-18.3-66.17S48.5,253.45,52.8,231.74s12.25-25.07-9.09-48.14-13.53-53.16-13.53-53.16,18.52,37.31,42.24,40.69,25.69,24.14,23,39.15,17.39,18.88,27.38,28.83,7.09,56.19,7.09,56.19S129.32,298.28,128,302.8Z"/><path class="cls-4" d="M128,302.8c-.35,1.19-.75,2.48-1.2,3.85a75.87,75.87,0,0,0-7.11-19.33c-6.4-12.1-16.12-22.52-25.37-27.2-14.73-7.44-20.61-23.3-19.05-51.44.91-16.34-15-27.77-15.21-27.88a1,1,0,0,1-.25-1.44,1,1,0,0,1,1.44-.26c.7.49,17.07,12.19,16.1,29.69-1.52,27.2,4,42.47,17.9,49.49,9.76,4.93,19.58,15.42,26.27,28.07A78.54,78.54,0,0,1,128,302.8Z"/><path class="cls-5" d="M140.88,336.46c.06,3.77.13,7.69.21,11.66h36.36c.07-4.34.12-8.5.16-12.41.11-10.58.12-19.29.11-24.7,0-3.84,0-6,0-6l-37.07-.39s0,3.2,0,8.44C140.68,318.86,140.74,327.2,140.88,336.46Z"/><path class="cls-6" d="M140.66,313c0,5.82.09,14.16.22,23.42a182.31,182.31,0,0,0,36.73-.75c.11-10.58.12-19.29.11-24.7Z"/><path class="cls-5" d="M95.06,328.1c0,5.93.11,12.72.23,20h36.36c.09-4.28.16-8.5.22-12.54.13-8.66.19-16.46.23-22.07s0-8.91,0-8.91L95,305s0,3.93,0,10.55C95,319,95,323.28,95.06,328.1Z"/><path class="cls-6" d="M95,315.54c0,3.5,0,7.74,0,12.56a227.13,227.13,0,0,0,36.81,7.48c.13-8.66.19-16.46.23-22.07Z"/><path class="cls-5" d="M156,109.52s5.84-5.62,5.82-11.18-3.8-3.92-5.82-9.1-8.05-8.33-11.36-7.7-10.27-12.25-19.73-10S116.24,86,112.17,87.73s-2.94,9-.79,10.61,3.05,8.24,4.26,8.09S156,109.52,156,109.52Z"/><path class="cls-7" d="M116.64,109.39s-3.67-4.9-6.4-.85,1.13,16,7.81,13.09Z"/><path class="cls-8" d="M116.59,117.94a.57.57,0,0,1-.54-.42c-1-3.69-4.86-5.19-4.9-5.2a.57.57,0,0,1,.4-1.06c.18.07,4.39,1.71,5.59,6a.57.57,0,0,1-.39.7Z"/><path class="cls-8" d="M112.73,116.08a.57.57,0,0,1-.47-.87,5,5,0,0,1,2.12-1.71.56.56,0,1,1,.46,1,4,4,0,0,0-1.63,1.29A.56.56,0,0,1,112.73,116.08Z"/><path class="cls-7" d="M154.5,109.39s3.67-4.9,6.4-.85-1.13,16-7.81,13.09Z"/><path class="cls-8" d="M154.55,117.94a.57.57,0,0,0,.54-.42c1-3.69,4.86-5.19,4.9-5.2a.57.57,0,0,0-.4-1.06c-.18.07-4.39,1.71-5.59,6a.57.57,0,0,0,.39.7Z"/><path class="cls-8" d="M158.41,116.08a.57.57,0,0,0,.47-.87,5,5,0,0,0-2.12-1.71.56.56,0,0,0-.74.28.57.57,0,0,0,.28.75,4,4,0,0,1,1.63,1.29A.56.56,0,0,0,158.41,116.08Z"/><path class="cls-9" d="M144.61,131.78v11.9s-3.54,6.06-8.34,6.47-9.05-5.22-9.05-5.22V132.62Z"/><path class="cls-7" d="M144.61,131.78v5.28c-3.22,3.57-8.93,4.46-17.39,3.21v-7.65Z"/><path class="cls-9" d="M157.16,101.23a118,118,0,0,1-1.55,15c-.22,1.15-.47,2.23-.74,3.21-2.51,8.76-8.77,23.79-26.3,17.53-7.74-2.76-11.33-11.39-12.93-20.16a84.24,84.24,0,0,1-1.17-16.27A12.41,12.41,0,0,1,120.77,90c10.35-5.87,21.27-3.68,28.46-.92A12.4,12.4,0,0,1,157.16,101.23Z"/><path class="cls-5" d="M115.64,116.84s1.7,10.14,3.31,13.83,6,4.39,7.65,7.52c2.35,4.45,5.93,8,11.83,5.83,4.9-1.79,4.68-4.3,7.43-6.24,4.7-3.33,7-7,7.23-10s2.52-11.52,2.52-11.52l-2.52-.17a65.26,65.26,0,0,1-3.56,6.26c-2.13-4.66-12.37-1.27-12.37-1.27l-1.95.63-2-.63s-10.36-3.25-12.41,1.64a18.64,18.64,0,0,1-2.74-6.35Zm19.57,6.44c11.74-2,9.64,4.86,9.57,5.11h0a11.46,11.46,0,0,1-2.41,1.83c-4.55,2.46-5,2.09-6.84,2.17a13.57,13.57,0,0,1-6.9-1.89,18.91,18.91,0,0,1-3.29-2.5S123.48,121.7,135.21,123.28Z"/><path class="cls-5" d="M128.15,110.94c0,1.27-.66,2.3-1.46,2.3s-1.47-1-1.47-2.3.66-2.3,1.47-2.3S128.15,109.67,128.15,110.94Z"/><path class="cls-5" d="M145.53,110.94c0,1.27-.66,2.3-1.47,2.3s-1.46-1-1.46-2.3.66-2.3,1.46-2.3S145.53,109.67,145.53,110.94Z"/><path class="cls-5" d="M149.82,103.37s-6-2.39-10.69-.38l.46,2.59s6.83-.58,10.27.82A4.57,4.57,0,0,0,149.82,103.37Z"/><path class="cls-5" d="M121.1,103.38s6.08-2.4,10.77-.38l-.47,2.61s-6.88-.58-10.34.82A4.5,4.5,0,0,1,121.1,103.38Z"/><path class="cls-7" d="M135.77,120.58a6,6,0,0,0,2-.43.57.57,0,1,0-.43-1.05,3.34,3.34,0,0,1-2.26.21.62.62,0,0,1-.28-.52c-.2-2,.34-8.59.34-8.66a.56.56,0,1,0-1.12-.09,80.57,80.57,0,0,0-.34,8.87,1.69,1.69,0,0,0,.82,1.37A2.34,2.34,0,0,0,135.77,120.58Z"/><path class="cls-10" d="M128.56,124.41c.43,2.16,1.86,6.13,6.66,6.13s6.17-3.63,6.63-6.13Z"/><path class="cls-5" d="M157.16,101.23a118,118,0,0,1-1.55,15l-2.52-.18s.61-3.91.89-6.45.76-7.3-1.41-7.89-.89-6-3.9-8.36S139,89,134.52,91.68,125,92.9,123,93.38s-4.83,3.29-4.08,5.93-1.5,4.24-2.05,7,1.2,10.08,1.2,10.08l-2.41.48a84.24,84.24,0,0,1-1.17-16.27A12.41,12.41,0,0,1,120.77,90c10.35-5.87,21.27-3.68,28.46-.92A12.4,12.4,0,0,1,157.16,101.23Z"/><path class="cls-4" d="M185.39,322.87a202.47,202.47,0,0,1-34.32,5.63l-1.55.11c-1.57.1-3.14.19-4.72.26a195.72,195.72,0,0,1-23.35-.4q-2.36-.18-4.71-.42l-1.51-.16a203.76,203.76,0,0,1-27.89-5c-.09-8.57,0-35.67.54-65.05.06-3.53.13-7.09.21-10.66.82-38.72,2.41-78,5.28-82,2.74-3.77,11-8.56,18.9-12.88l1.41-.77,5.15-2.79c3.5-1.9,6.52-3.59,8.39-4.9v1.07s4.25,5.63,9.05,5.22c4.37-.38,7.69-5.43,8.26-6.33a111.61,111.61,0,0,0,10.05,5.72l3.69,2,1.4.74c8.74,4.63,18.16,9.86,21,13.74a4.86,4.86,0,0,1,.6,1.43c1.68,5.67,2.72,24.47,3.35,47.24v.25c0,.92,0,1.84.07,2.78,0,.12,0,.24,0,.36.21,8,.36,16.4.48,24.85,0,.67,0,1.34,0,2,0,.34,0,.67,0,1q0,2.49.06,5c0,1.22,0,2.44.05,3.67C185.64,285.08,185.51,313.89,185.39,322.87Z"/><path class="cls-11" d="M184.69,217.67c-2.75-4.5-5.71-9.08-8.49-13.14l0,0c-1.17-1.71-2.31-3.31-3.39-4.78a.22.22,0,0,0,0-.08l-1-1.34a.68.68,0,0,1-.12-.24h0a.76.76,0,0,1,1.33-.68c3.34,4.43,7.62,10.8,11.66,17.26v.25C184.64,215.81,184.67,216.73,184.69,217.67Z"/><path class="cls-4" d="M180.78,165.35S198,196.94,208.53,213c0,0,6-5.5,13.76-12.84,8.43-8,20-21.28,20-21.28l6.37,7.56S222.72,233,211.1,238.88s-33-35.61-33-35.61Z"/><path class="cls-11" d="M107.76,289.87h0a.78.78,0,0,1-.75-.81c.9-25.51-12.33-33.78-12.46-33.86a.78.78,0,0,1,.8-1.34c.15.09,3.65,2.21,7,7.66,3.1,5,6.68,13.79,6.19,27.6A.78.78,0,0,1,107.76,289.87Z"/><path class="cls-11" d="M164.2,265.83a.77.77,0,0,1-.77-.72c-.42-5.37,1.35-9.29,3.59-14.25.65-1.45,1.33-3,2-4.64,4.34-10.55,2.16-22.6,2.14-22.73a.78.78,0,1,1,1.53-.28c.1.51,2.29,12.64-2.23,23.61-.71,1.7-1.39,3.22-2.05,4.68-2.23,4.94-3.85,8.52-3.46,13.49a.78.78,0,0,1-.71.84Z"/><path class="cls-10" d="M118.83,148.76c.33,2.52.82,5.77,1.36,9.48.16,1.1.32,2.24.49,3.41.54,3.82,1.1,8,1.58,12.19.13,1.12.25,2.26.36,3.39.42,4.16.74,8.3.86,12.14,0,1.17,0,2.3,0,3.41a55.47,55.47,0,0,1-.52,7.94c-.23,1.46-.43,2.88-.61,4.28-.15,1.15-.28,2.29-.4,3.41-.45,4.33-.68,8.37-.75,12.18,0,1.16,0,2.29,0,3.4,0,4.32.28,8.35.64,12.19.11,1.14.22,2.27.34,3.39.47,4.19,1,8.18,1.57,12.12.16,1.13.31,2.26.46,3.38.23,1.8.45,3.61.64,5.42s.33,4.18.39,6.67c0,1.1,0,2.24,0,3.41,0,3.74-.08,7.87-.26,12.19,0,1.13-.09,2.28-.15,3.43-.19,4-.44,8.15-.73,12.23-.08,1.14-.17,2.28-.25,3.42-.32,4.24-.67,8.38-1,12.22-.1,1.17-.21,2.31-.32,3.42-.4,4.23-.8,8-1.14,11a193.64,193.64,0,0,0,23.35.4c.19-3.2.68-8.35,1.17-14.42q.14-1.67.27-3.42c.29-3.85.55-8,.73-12.14q.08-1.71.12-3.42c.12-4.15.12-8.28-.06-12.15-.05-1.17-.12-2.32-.21-3.44s-.2-2.26-.33-3.33a67.06,67.06,0,0,1-.5-8.85c0-1.14,0-2.28.08-3.42.18-3.95.61-7.92,1.11-12.13.14-1.11.28-2.25.42-3.41.45-3.74.92-7.72,1.29-12.06.1-1.12.18-2.26.27-3.42.26-3.73.43-7.74.46-12.1,0-1.13,0-2.27,0-3.45,0-3.78-.2-7.82-.5-12.17l-.09-1.17c0-.76-.1-1.53-.14-2.3a117,117,0,0,1,.08-12.13c.06-1.15.14-2.29.22-3.43.32-4.08.78-8.12,1.31-12q.22-1.72.48-3.42c.64-4.24,1.32-8.23,1.95-11.8l.6-3.38c.43-2.41.8-4.56,1.07-6.38a111.61,111.61,0,0,1-10.05-5.72c-.57.9-3.89,6-8.27,6.33-4.79.41-9-5.22-9-5.22v-1.07C125.35,145.16,122.33,146.86,118.83,148.76Z"/><path class="cls-12" d="M120.19,158.24c.16,1.1.32,2.24.49,3.41a64,64,0,0,0,15.44-2,40.94,40.94,0,0,1,16.79-.4l.6-3.38a44.37,44.37,0,0,0-18.16.46A59.33,59.33,0,0,1,120.19,158.24Z"/><path class="cls-12" d="M122.26,173.84c.13,1.12.25,2.26.36,3.39a69.5,69.5,0,0,0,13.5-1.95,41.15,41.15,0,0,1,14.36-.76q.22-1.72.48-3.42a44.67,44.67,0,0,0-15.61.86A65.85,65.85,0,0,1,122.26,173.84Z"/><path class="cls-12" d="M123.48,189.37c0,1.17,0,2.3,0,3.41a71.36,71.36,0,0,0,12.6-1.92,41.34,41.34,0,0,1,12.83-.92c.06-1.15.14-2.29.22-3.43a44.66,44.66,0,0,0-13.82,1A68.61,68.61,0,0,1,123.48,189.37Z"/><path class="cls-12" d="M122,208.41a67.76,67.76,0,0,0,14.13-2,41.08,41.08,0,0,1,13-.91l-.09-1.17c0-.76-.1-1.53-.14-2.3a44.94,44.94,0,0,0-13.52,1.05,65.9,65.9,0,0,1-13,1.88C122.24,206.15,122.11,207.29,122,208.41Z"/><path class="cls-12" d="M121.23,224a64.9,64.9,0,0,0,14.89-2,41.17,41.17,0,0,1,13.5-.87c0-1.13,0-2.27,0-3.45a45,45,0,0,0-14.25,1,62.09,62.09,0,0,1-14.11,1.88C121.23,221.75,121.22,222.88,121.23,224Z"/><path class="cls-12" d="M121.87,236.18c.11,1.14.22,2.27.34,3.39a68.19,68.19,0,0,0,13.91-2,41.3,41.3,0,0,1,12.77-.93c.1-1.12.18-2.26.27-3.42a44.56,44.56,0,0,0-13.81,1A65.19,65.19,0,0,1,121.87,236.18Z"/><path class="cls-12" d="M123.78,251.69c.16,1.13.31,2.26.46,3.38a74.89,74.89,0,0,0,11.88-1.87,41.63,41.63,0,0,1,11.06-1c.14-1.11.28-2.25.42-3.41a45.06,45.06,0,0,0-12.25,1.14A71.65,71.65,0,0,1,123.78,251.69Z"/><path class="cls-12" d="M125.27,267.16c0,1.1,0,2.24,0,3.41a75.84,75.84,0,0,0,10.8-1.79A41.74,41.74,0,0,1,146,267.7c0-1.14,0-2.28.08-3.42a45.62,45.62,0,0,0-10.72,1.18A75.74,75.74,0,0,1,125.27,267.16Z"/><path class="cls-12" d="M124.91,286.19a75.6,75.6,0,0,0,11.21-1.83,41.23,41.23,0,0,1,10.91-1c-.05-1.17-.12-2.32-.21-3.44A45.45,45.45,0,0,0,135.35,281a74.68,74.68,0,0,1-10.29,1.72C125,283.89,125,285,124.91,286.19Z"/><path class="cls-12" d="M123.93,301.84A73.69,73.69,0,0,0,136.12,300,41.68,41.68,0,0,1,147,298.89q.08-1.71.12-3.42a45.34,45.34,0,0,0-11.74,1.15,71.6,71.6,0,0,1-11.17,1.8C124.1,299.56,124,300.7,123.93,301.84Z"/><path class="cls-12" d="M122.59,317.48a69.1,69.1,0,0,0,13.53-2,42.11,42.11,0,0,1,9.85-1.08q.14-1.67.27-3.42a45,45,0,0,0-10.89,1.18,67.68,67.68,0,0,1-12.44,1.85C122.81,315.23,122.7,316.37,122.59,317.48Z"/><path class="cls-11" d="M149.52,328.61l1.55-.11c3.07-18.05,1.3-44.53.65-52.65-.69-8.42.62-19.26,3.59-29.72,2.3-8.12.89-27-.24-42.09-.32-4.25-.62-8.26-.8-11.56-.58-10.65,3.28-30.37,5.4-40.25l-1.4-.74c-2.13,9.78-6.12,29.95-5.52,41.08.19,3.31.49,7.33.81,11.58,1.12,15,2.52,33.7.3,41.57-3,10.62-4.35,21.65-3.65,30.25C150.86,284.1,152.64,310.75,149.52,328.61Z"/><path class="cls-11" d="M118.08,255.19c1.81,11.1,1.24,18.3.58,26.64-.21,2.7-.43,5.48-.59,8.56-.48,9.66-2.11,29.1-2.83,37.5l1.5.16c.73-8.4,2.36-27.89,2.85-37.58.15-3.06.37-5.83.58-8.52.67-8.43,1.24-15.72-.59-27-.39-2.42-.81-4.88-1.22-7.32-2-12.09-4.16-24.59-3.16-30.59.24-1.46.55-3.12.89-4.88,1.35-7.22,3-16.22,2.51-24s-3.7-28.69-4.91-36.59l-1.42.77c1.27,8.26,4.31,28.4,4.82,35.92s-1.15,16.5-2.49,23.64c-.33,1.77-.65,3.44-.9,4.91-1,6.25,1,18.31,3.16,31.09C117.28,250.32,117.69,252.77,118.08,255.19Z"/><path class="cls-9" d="M88.26,178.06S72.82,229.54,69,247.89s-4.12,56.48-4.12,56.48-6.75,14-6.91,20.25c-.17,6.64,3.32,11.93,2.92,16.28s4.9,2,3.41-6.82,2.74-16.79,4.58-16.53-1.52,9.62.11,13,3.73-3.18,5.82-7.16,2-13.14,1.06-19.57S86.54,258.31,86.6,247l14.76-49.89S96.48,176.28,88.26,178.06Z"/><path class="cls-4" d="M103.25,195.85c-.52,3.31-2.35,9-4.72,16.13h0l-.61,1.84a.46.46,0,0,0,0,.09c-.59,1.77-1.21,3.63-1.84,5.56v0c-2.62,8-5.52,17-8,26.39-.84,3.2-1.62,6.43-2.31,9.65-.89,4.11-1.64,8.21-2.19,12.22-2,14.46-5.75,32.76-5.75,32.76-5.53,2.28-14.19-.72-14.19-.72s-.22-26.37,1-36.62a275.19,275.19,0,0,1,5.88-32c6.63-28.49,18.3-56.37,21.51-63.76l.59-1.37H95.4C100.82,169.48,104.66,186.94,103.25,195.85Z"/><path class="cls-3" d="M63.2,294.53l.44,6.06s8.22,2.68,14.39.8L79.66,296C73.72,296.29,68.24,296.14,63.2,294.53Z"/><path class="cls-11" d="M98.53,212h0a.82.82,0,0,1,0,.26c-.19.51-.38,1-.57,1.58a.46.46,0,0,0,0,.09c-.6,1.72-1.22,3.59-1.84,5.56v0a296.32,296.32,0,0,0-8,31.37q0-2.49.06-5c-.84,3.2-1.62,6.43-2.31,9.65a115.29,115.29,0,0,1,2.35-12.67,297.33,297.33,0,0,1,8.93-31.15.76.76,0,0,1,1.47.25Z"/><path class="cls-5" d="M374.67,348.12h36.47c-.12-2.53-.24-4.95-.36-7.24-.64-12.49-1.18-21-1.18-21L380,321.21l-2.46.11-4.36.19s.42,7.61,1.07,18.74C374.35,342.72,374.51,345.36,374.67,348.12Z"/><path class="cls-6" d="M377.49,321.32l-4.36.19s.42,7.61,1.07,18.74a265.25,265.25,0,0,0,36.58.63c-.64-12.49-1.18-21-1.18-21L380,321.21Z"/><path class="cls-6" d="M381.46,348.12c-.67-11.56-1.21-21.43-1.51-26.91l-2.46.11c.3,5.46.84,15.28,1.51,26.8Z"/><path class="cls-5" d="M364,348.12c.19-3.13.37-6.1.53-8.83.63-10.61,1-17.78,1-17.78l-4.73-.21-2.46-.11L329,319.89s-.32,5.07-.76,13.12c-.23,4.29-.5,9.44-.77,15.11Z"/><path class="cls-6" d="M328.28,333a324,324,0,0,0,36.22,6.28c.63-10.61,1-17.78,1-17.78l-4.73-.21-2.46-.11L329,319.89S328.72,325,328.28,333Z"/><path class="cls-6" d="M359.28,348.12c.66-11.53,1.21-21.36,1.51-26.82l-2.46-.11c-.3,5.48-.85,15.36-1.51,26.93Z"/><path class="cls-4" d="M414.9,325.57a175.09,175.09,0,0,1-22.28,4.63q-3.89.54-7.75.9-5.22.48-10.44.65a165.74,165.74,0,0,1-17.26-.38,174.65,174.65,0,0,1-33.39-5.8c-.1-10.37.06-47.58.84-83.47,0-1.61.07-3.22.11-4.83,0-.34,0-.68,0-1l0-1.11c0-1.14.05-2.27.08-3.4q.09-3.47.19-6.85c0-1.36.08-2.7.12-4,0-.27,0-.55,0-.82l.09-2.63h0c0-.27,0-.54,0-.81,0-.8.06-1.6.08-2.39s.05-1.33.07-2c.86-24.21,2.12-43.31,3.93-46,3.06-4.56,13.48-10.62,21.86-15.55,3-1.76,6.56-3.58,8.6-4.94,3,2.4,5.13,4.57,9.55,4.42,4.93-.17,6.15-3.14,8-5.69,1.15.75,4.07,3.14,5.59,4,1.3.77,2.7,1.58,4.17,2.43,2.27,1.29,4.68,2.67,7.07,4.08,3.54,2.08,7,4.23,9.93,6.29A26,26,0,0,1,410.5,167c1.64,2.46,2.7,18.38,3.38,39.34,0,.74.05,1.48.08,2.23v.27c0,.76.05,1.55.07,2.33.07,2.36.13,4.77.2,7.22l0,1.55c0,.39,0,.79,0,1.17l.06,3c0,.21,0,.41,0,.61.05,2.69.1,5.42.15,8.17,0,.8,0,1.61,0,2.42C415.19,273.07,415,314.42,414.9,325.57Z"/><path class="cls-11" d="M414.56,235.34,402.8,247.27l-11-11.11-10.95,11.11-11-11.16-11,11.16L347.81,236l-11.07,11.23-12-12.13c0-1.14.05-2.27.08-3.4q.09-3.47.19-6.85L336.74,213l11.07,11.23L358.88,213l11,11.15,11-11.15,10.95,11.11,11-11.11,11.57,11.72c.05,2.69.1,5.42.15,8.17C414.54,233.72,414.55,234.53,414.56,235.34Z"/><path class="cls-11" d="M394.26,296.83h0c-15.75-.07-29.2-7.23-37.7-13.23a86.83,86.83,0,0,1-14.83-13.13.76.76,0,1,1,1.16-1,84.51,84.51,0,0,0,14.58,12.89c8.32,5.87,21.45,12.87,36.79,12.94a.76.76,0,0,1,.76.76A.75.75,0,0,1,394.26,296.83Z"/><path class="cls-11" d="M384.44,287.52c-13.41-2.64-25.29-12.91-25.82-13.38a.76.76,0,0,1-.08-1.07.77.77,0,0,1,1.07-.07c.14.12,14.11,12.2,28.35,13.5a.76.76,0,0,1-.14,1.51A31.62,31.62,0,0,1,384.44,287.52Z"/><path class="cls-11" d="M357.58,171a.76.76,0,0,1-.14-1.5c19.2-3.65,25-16,25-16.12a.76.76,0,0,1,1-.38.75.75,0,0,1,.37,1c-.24.54-6.17,13.2-26.14,17Z"/><path class="cls-11" d="M334.15,204.22h0a1.22,1.22,0,0,1-.1.24l-.89,1.42-.05.08c-1,1.55-2,3.25-3,5,0,0,0,0,0,0-1.61,2.82-3.27,5.88-4.91,9l.09-2.63h0c0-.27,0-.54,0-.81,2.64-4.89,5.26-9.46,7.47-12.93a.76.76,0,0,1,1.38.56Z"/><path class="cls-9" d="M430.91,176.13s24.55-7.89,31.82-24c2.1-4.67-15.21-52-15.21-52l-8.36.41s2.38,16.44,3.83,25.74c1.18,7.66,3.1,16.8,3.75,19.81.14.66.22,1,.22,1l-1.24.23c-11.47,2.33-26.12,9.81-26.12,9.81Z"/><path class="cls-7" d="M453.13,151.6a.77.77,0,0,0,1.09-.17.77.77,0,0,0-.17-1.1,61.82,61.82,0,0,0-7.31-4.29c.14.66.22,1,.22,1l-1.24.23A63.12,63.12,0,0,1,453.13,151.6Z"/><path class="cls-4" d="M393.34,154.46s-7.43,17.43,11.48,27.13c13.08,6.72,42.89-10.82,42.89-10.82l-10.62-22.56S409.81,159.46,393.34,154.46Z"/><path class="cls-9" d="M443.24,73.45c-.74.51-.59,3.72-.26,6.73l-.32,0c-.88-4-2.63-10.87-4.13-9.56-1,.86.34,6.76,1.23,10.29l-.56.17c-1.12-4.19-3.55-12.26-5.17-10.69-1.08,1,1,8.15,2.14,11.78l-.47.19c-1.1-3.52-3.45-10.17-5.06-8.61-1.46,1.41,2.72,11.47,2.72,11.47h0l1.1,4s-1.3.56-3.34-1.74-4.46-2.7-2.77.63c1.91,3.75,4.73,6.45,6,9.1s5.15,3.54,5.15,3.54l7.85-.38s1.52-13.26-1.41-19.58h0C445.41,77,444.53,72.54,443.24,73.45Z"/><path class="cls-5" d="M346.15,104c0,13.37,8.23,22.58,21.59,22.58s22.68-9.9,22.68-23.27a28.53,28.53,0,0,0-1.76-10.17,5,5,0,0,0-.21-.54c-.14-.35-.28-.69-.44-1-.24-.51-.5-1-.77-1.51-3.48-6.26-9.72-10.24-18.1-10.24C353.11,79.85,346.15,90.67,346.15,104Z"/><path class="cls-7" d="M349.15,109.79s-3.71-5-6.47-.86,1.14,16.19,7.9,13.23Z"/><path class="cls-8" d="M349.1,118.43a.58.58,0,0,1-.55-.42c-1-3.73-4.91-5.25-4.95-5.26a.57.57,0,0,1,.4-1.07c.18.07,4.45,1.72,5.65,6a.57.57,0,0,1-.39.71Z"/><path class="cls-8" d="M345.2,116.55a.59.59,0,0,1-.31-.09.57.57,0,0,1-.17-.79,5.15,5.15,0,0,1,2.14-1.73.58.58,0,0,1,.76.29.57.57,0,0,1-.29.75,4.07,4.07,0,0,0-1.65,1.31A.56.56,0,0,1,345.2,116.55Z"/><path class="cls-7" d="M387.42,109.79s3.71-5,6.47-.86-1.14,16.19-7.9,13.23Z"/><path class="cls-8" d="M387.47,118.43A.57.57,0,0,0,388,118c1.05-3.73,4.92-5.25,5-5.26a.57.57,0,1,0-.41-1.07c-.18.07-4.44,1.72-5.65,6a.59.59,0,0,0,.4.71Z"/><path class="cls-8" d="M391.37,116.55a.59.59,0,0,0,.31-.09.58.58,0,0,0,.17-.79,5.14,5.14,0,0,0-2.15-1.73.57.57,0,1,0-.46,1,4.16,4.16,0,0,1,1.65,1.31A.56.56,0,0,0,391.37,116.55Z"/><path class="cls-9" d="M377.42,132.42v12s-3.58,6.12-8.43,6.54-9.15-5.28-9.15-5.28V133.27Z"/><path class="cls-7" d="M377.42,132.42v5.34c-3.25,3.61-9,4.51-17.58,3.25v-7.74Z"/><path class="cls-9" d="M390.1,101.54a116.74,116.74,0,0,1-1.56,15.19c-.22,1.16-.47,2.26-.75,3.24-2.53,8.86-8.86,24.06-26.58,17.73-7.83-2.79-11.46-11.51-13.07-20.38A85.49,85.49,0,0,1,347,100.87a12.56,12.56,0,0,1,6.37-10.68c10.46-5.93,21.5-3.72,28.77-.93A12.52,12.52,0,0,1,390.1,101.54Z"/><path class="cls-5" d="M360.69,111.36c0,1.28-.67,2.32-1.48,2.32s-1.48-1-1.48-2.32.66-2.33,1.48-2.33S360.69,110.07,360.69,111.36Z"/><path class="cls-5" d="M378.1,111.31c0,1.28-.66,2.32-1.48,2.32s-1.47-1-1.47-2.32.66-2.33,1.47-2.33S378.1,110,378.1,111.31Z"/><path class="cls-5" d="M381.44,103.32s-4.66-1.84-8.25-.29l.36,2s5.27-.45,7.92.63A3.48,3.48,0,0,0,381.44,103.32Z"/><path class="cls-5" d="M354.28,103.32s4.66-1.84,8.25-.29l-.36,2s-5.27-.45-7.92.63A3.42,3.42,0,0,1,354.28,103.32Z"/><path class="cls-7" d="M368.48,121.1a6.05,6.05,0,0,0,2.07-.44.57.57,0,0,0,.31-.74.58.58,0,0,0-.74-.32,3.44,3.44,0,0,1-2.29.22.58.58,0,0,1-.28-.53,87.38,87.38,0,0,1,.34-8.75.57.57,0,1,0-1.14-.09,84.85,84.85,0,0,0-.34,9,1.74,1.74,0,0,0,.83,1.39A2.4,2.4,0,0,0,368.48,121.1Z"/><path class="cls-10" d="M360.81,124c.95,3.29,3.65,6.58,7.37,6.63s6.41-3.34,7.36-6.63Z"/><path class="cls-7" d="M367.86,134.21a6.06,6.06,0,0,0,2.79-.78.57.57,0,1,0-.6-1,4.77,4.77,0,0,1-2.19.62,4.54,4.54,0,0,1-2.08-.62.57.57,0,0,0-.6,1A5.78,5.78,0,0,0,367.86,134.21Z"/><path class="cls-5" d="M389.5,109.89h-2.59c.29-2.6.7-7.18-1.44-7.83-6.75-2.08,2-6.84-1.05-9.22s-10.62-1.36-15.89-1.53-13.83-.1-15.9.38-.93,3.92-.17,6.59-2.55,5.61-3.1,8.37a12,12,0,0,0,0,3.24H347.2c-.25-3.36-.29-6.49-.25-9a12.56,12.56,0,0,1,6.37-10.68c10.46-5.93,21.5-3.72,28.77-.93a12.52,12.52,0,0,1,8,12.28C390,104.1,389.79,107,389.5,109.89Z"/><path class="cls-10" d="M359,118.09a6.47,6.47,0,1,1,6.46-6.47A6.47,6.47,0,0,1,359,118.09Zm0-11.93a5.46,5.46,0,1,0,5.46,5.46A5.47,5.47,0,0,0,359,106.16Z"/><path class="cls-10" d="M376.62,118.09a6.47,6.47,0,1,1,6.47-6.47A6.47,6.47,0,0,1,376.62,118.09Zm0-11.93a5.46,5.46,0,1,0,5.46,5.46A5.46,5.46,0,0,0,376.62,106.16Z"/><path class="cls-10" d="M353.57,109.54a.5.5,0,0,1-.35-.15h0a7.94,7.94,0,0,0-6.82-2,.51.51,0,0,1-.61-.38.5.5,0,0,1,.38-.6,8.8,8.8,0,0,1,7.76,2.25.5.5,0,0,1,0,.71A.51.51,0,0,1,353.57,109.54Z"/><path class="cls-10" d="M382.12,109.54a.48.48,0,0,1-.42-.23.5.5,0,0,1,.14-.7c.19-.13,4.77-3.08,8.66-2.44a.51.51,0,0,1,.42.58.51.51,0,0,1-.58.42c-3.5-.58-7.9,2.26-7.95,2.28A.46.46,0,0,1,382.12,109.54Z"/><path class="cls-10" d="M370.51,110.17a4.06,4.06,0,0,0-2.78-1.64,3.72,3.72,0,0,0-2.65,1.63l-.85-.55a4.71,4.71,0,0,1,3.5-2.09,5,5,0,0,1,3.6,2.06Z"/><path class="cls-9" d="M332,203.27a183,183,0,0,1-14.84,23.64,60.63,60.63,0,0,1-7.27,8.12c-3.94,3.56-7.79,5.43-10.92,3.85-11.62-5.86-37.52-52.48-37.52-52.48l6.38-7.56s11.53,13.31,20,21.28c7.77,7.34,13.75,12.84,13.75,12.84,1.08-1.64,2.22-3.44,3.42-5.34s2.58-4.15,3.92-6.34c9.71-15.94,20.48-35.08,20.48-35.08Z"/><path class="cls-7" d="M317.18,226.91a60.63,60.63,0,0,1-7.27,8.12L305,207.62c1.26-2,2.58-4.15,3.92-6.34Z"/><path class="cls-4" d="M329.38,166.2l-23.29,36.62L313.91,235l19.27-31.37S335.51,182.19,329.38,166.2Z"/><path class="cls-4" d="M300.1,348.12c-1.66-9.21-3.3-19.61-4.79-29.7-.33-2.23-.65-4.45-1-6.63-1.2-8.36-2.26-16.26-3.12-22.82-.33-2.49-.62-4.79-.89-6.84-.83-6.55-1.32-10.61-1.32-10.61l-36.77,1.39-36.88-1.39s-1,8-2.47,19.71c-.28,2.12-.57,4.36-.89,6.7-.82,6.12-1.75,12.88-2.76,19.8,0,.1,0,.2,0,.31q-.48,3.22-1,6.5s0,0,0,.08h0c-.79,5.25-1.62,10.49-2.46,15.53-.35,2.08-.7,4.13-1.05,6.12l-.33,1.84Z"/><path class="cls-11" d="M223.85,282.56a3.47,3.47,0,1,1-3.47-3.46A3.47,3.47,0,0,1,223.85,282.56Z"/><path class="cls-11" d="M232.45,296a3.47,3.47,0,1,1-3.47-3.47A3.46,3.46,0,0,1,232.45,296Z"/><path class="cls-11" d="M249.37,289.06a3.47,3.47,0,1,1-3.47-3.47A3.46,3.46,0,0,1,249.37,289.06Z"/><path class="cls-11" d="M222.66,310.25a3.47,3.47,0,1,1-3.46-3.47A3.46,3.46,0,0,1,222.66,310.25Z"/><path class="cls-11" d="M243.81,308.76a3.47,3.47,0,1,1-3.47-3.46A3.47,3.47,0,0,1,243.81,308.76Z"/><path class="cls-11" d="M215.15,294.48a3.46,3.46,0,0,1-3.14,3.45c.32-2.34.61-4.58.89-6.7A3.46,3.46,0,0,1,215.15,294.48Z"/><path class="cls-11" d="M278.26,329.12a3.47,3.47,0,1,1-3.47-3.46A3.47,3.47,0,0,1,278.26,329.12Z"/><path class="cls-11" d="M276.62,310.25a3.47,3.47,0,1,1-3.46-3.47A3.46,3.46,0,0,1,276.62,310.25Z"/><path class="cls-11" d="M295.31,318.42a3.49,3.49,0,0,1-4.83-3.19,3.48,3.48,0,0,1,3.47-3.47,2.69,2.69,0,0,1,.4,0C294.66,314,295,316.19,295.31,318.42Z"/><path class="cls-11" d="M280.09,343a3.47,3.47,0,1,1-3.47-3.47A3.47,3.47,0,0,1,280.09,343Z"/><path class="cls-11" d="M294.91,337.43a3.47,3.47,0,1,1-3.47-3.47A3.46,3.46,0,0,1,294.91,337.43Z"/><path class="cls-11" d="M264.06,348.12a3.45,3.45,0,0,0-5.71,0Z"/><path class="cls-11" d="M220.38,332.14a3.47,3.47,0,1,1-3.46-3.47A3.46,3.46,0,0,1,220.38,332.14Z"/><path class="cls-11" d="M211.24,321.19a3.46,3.46,0,0,1-3,3.43s0-.05,0-.08q.49-3.27,1-6.5A3.47,3.47,0,0,1,211.24,321.19Z"/><path class="cls-11" d="M207.19,343a3.47,3.47,0,0,1-2.47,3.32c.35-2,.7-4,1.05-6.12A3.47,3.47,0,0,1,207.19,343Z"/><path class="cls-11" d="M229,344.42a3.47,3.47,0,1,1-3.46-3.46A3.46,3.46,0,0,1,229,344.42Z"/><path class="cls-11" d="M247.27,341.71a3.47,3.47,0,1,1-3.46-3.47A3.46,3.46,0,0,1,247.27,341.71Z"/><path class="cls-11" d="M234.22,324.67a3.47,3.47,0,1,1-3.46-3.46A3.47,3.47,0,0,1,234.22,324.67Z"/><path class="cls-11" d="M252.83,321.21a3.47,3.47,0,1,1-3.46-3.47A3.46,3.46,0,0,1,252.83,321.21Z"/><path class="cls-11" d="M261.21,302.92a3.47,3.47,0,1,1-3.47-3.47A3.46,3.46,0,0,1,261.21,302.92Z"/><path class="cls-11" d="M291.23,289a3.08,3.08,0,0,1-.75.09,3.47,3.47,0,0,1-.14-6.93C290.61,284.18,290.9,286.48,291.23,289Z"/><path class="cls-11" d="M273.16,289.06a3.47,3.47,0,1,1-3.47-3.47A3.47,3.47,0,0,1,273.16,289.06Z"/><path class="cls-11" d="M285.85,301.41a3.47,3.47,0,1,1-3.47-3.47A3.46,3.46,0,0,1,285.85,301.41Z"/><path class="cls-11" d="M264.67,332.14a3.47,3.47,0,1,1-3.46-3.47A3.46,3.46,0,0,1,264.67,332.14Z"/><path class="cls-3" d="M291.26,272.43c-19.4,12.66-55,11.67-77.39,0,2.13-13.32,4.95-26.65,4.34-44.38-.06-1.94-.15-3.87-.24-5.78-.09-1.67-.19-3.32-.29-5-1.93-29.48-7-53.59-4.49-56.71a23.29,23.29,0,0,1,5.1-4.34c.87-.59,1.8-1.19,2.78-1.8,2.33-1.41,4.91-2.84,7.5-4.23,6.15-3.29,12.4-6.33,15.53-8.41a19.8,19.8,0,0,0,8.24,2.07h.45a19.88,19.88,0,0,0,8.24-2.07c2.91,1.93,8.37,4.62,14,7.56a119.61,119.61,0,0,1,11.5,6.68,22.88,22.88,0,0,1,4.91,4.22c1.23,1.54.71,8.31-.33,18.35-1,9.87-2.59,22.9-3.53,37.23-.26,4-.48,8.06-.62,12.19C286.31,245.78,289.12,259.11,291.26,272.43Z"/><path class="cls-4" d="M279.4,257.7h0c-15.62-.07-28.95-7.17-37.38-13.13a85.61,85.61,0,0,1-14.71-13,.76.76,0,0,1,.1-1.06.75.75,0,0,1,1,.1,84.77,84.77,0,0,0,14.46,12.78c8.25,5.82,21.28,12.76,36.49,12.83a.75.75,0,0,1,0,1.5Z"/><path class="cls-4" d="M269.06,248.61c-13.3-2.62-25.08-12.8-25.61-13.27a.75.75,0,1,1,1-1.13c.14.12,14,12.1,28.11,13.39a.74.74,0,0,1,.68.81.75.75,0,0,1-.82.68A31.78,31.78,0,0,1,269.06,248.61Z"/><path class="cls-4" d="M249.37,179.8a.75.75,0,0,1-.14-1.49c19-3.61,24.78-15.86,24.84-16a.75.75,0,0,1,1-.37.73.73,0,0,1,.37,1c-.24.54-6.12,13.09-25.92,16.85Z"/><path class="cls-9" d="M275,149.38c-3.78,8.62-13.07,17.55-25.15,15.46-11.7-2-17.25-8.21-21.26-14.61,6.15-3.29,12.4-6.33,15.53-8.41a20,20,0,0,0,8.24,2.08h.45a20,20,0,0,0,8.24-2.08C263.94,143.75,269.41,146.44,275,149.38Z"/><path class="cls-10" d="M264.88,142.45a.59.59,0,0,0-.6.59c0,.49-.2,11.88-10.43,12.77-9.49.82-13.42-8.26-14.63-12a.54.54,0,0,0-.51-.37h-.11a.53.53,0,0,0-.51.7c1.29,3.89,5.43,13.28,15.1,12.93l.76,0c11.32-1,11.52-13.82,11.53-13.95A.6.6,0,0,0,264.88,142.45Z"/><path class="cls-5" d="M272.11,81.87s9.15,14.16,8.14,28.91,1.35,31.78-11.85,31-36.74,5.29-44.22-6.2S272.11,81.87,272.11,81.87Z"/><path class="cls-6" d="M275.5,107.91s2.37,21.38-7.77,27.27-17.49-.68-17.49-.68S271.63,104.69,275.5,107.91Z"/><path class="cls-7" d="M233.36,107.81S229.71,103,227,107s1.13,15.88,7.76,13Z"/><path class="cls-8" d="M233.31,116.29a.56.56,0,0,1-.54-.41c-1-3.66-4.82-5.15-4.86-5.16a.56.56,0,0,1,.4-1c.17.07,4.36,1.69,5.54,5.91a.56.56,0,0,1-.39.69Z"/><path class="cls-8" d="M229.48,114.44a.54.54,0,0,1-.3-.08.57.57,0,0,1-.17-.78,5.18,5.18,0,0,1,2.1-1.7.56.56,0,0,1,.46,1,4,4,0,0,0-1.62,1.28A.57.57,0,0,1,229.48,114.44Z"/><path class="cls-7" d="M270.9,107.81s3.65-4.86,6.35-.84-1.12,15.88-7.75,13Z"/><path class="cls-8" d="M271,116.29a.56.56,0,0,0,.54-.41c1-3.66,4.82-5.15,4.86-5.16a.56.56,0,0,0-.4-1c-.18.07-4.36,1.69-5.54,5.91a.56.56,0,0,0,.39.69Z"/><path class="cls-8" d="M274.78,114.44a.54.54,0,0,0,.3-.08.57.57,0,0,0,.17-.78,5.18,5.18,0,0,0-2.1-1.7.56.56,0,0,0-.46,1,4.09,4.09,0,0,1,1.62,1.28A.56.56,0,0,0,274.78,114.44Z"/><path class="cls-9" d="M261.1,130v11.8s-3.52,6-8.28,6.41-9-5.17-9-5.17V130.85Z"/><path class="cls-7" d="M261.1,130v5.23c-3.2,3.55-8.86,4.8-17.26,3.56v-8Z"/><path class="cls-9" d="M273.54,99.72a115.78,115.78,0,0,1-1.53,14.9c-.22,1.15-.47,2.22-.74,3.19-2.49,8.69-8.7,23.6-26.08,17.39-7.68-2.74-11.24-11.3-12.83-20a84.39,84.39,0,0,1-1.16-16.14,12.34,12.34,0,0,1,6.25-10.48c10.26-5.82,21.09-3.65,28.22-.91A12.29,12.29,0,0,1,273.54,99.72Z"/><path class="cls-5" d="M244.47,108.5c0,1.26-.65,2.28-1.45,2.28s-1.45-1-1.45-2.28.65-2.28,1.45-2.28S244.47,107.25,244.47,108.5Z"/><path class="cls-5" d="M262.38,108.5c0,1.26-.65,2.28-1.45,2.28s-1.45-1-1.45-2.28.65-2.28,1.45-2.28S262.38,107.25,262.38,108.5Z"/><path class="cls-5" d="M240.15,101.72a24,24,0,0,1,6.2-.93,1.07,1.07,0,0,1,1.08,1.26v0a1.07,1.07,0,0,1-1.11.88c-1.74-.08-6.32.16-8.49,1a1.64,1.64,0,0,1,.5-1.16A3.66,3.66,0,0,1,240.15,101.72Z"/><path class="cls-5" d="M263.58,101.76a24.41,24.41,0,0,0-6.21-.93,1.08,1.08,0,0,0-1.07,1.27h0a1.07,1.07,0,0,0,1.11.88c1.75-.08,6.33.17,8.49,1a1.58,1.58,0,0,0-.49-1.15A3.79,3.79,0,0,0,263.58,101.76Z"/><path class="cls-7" d="M252.32,118.91a2.38,2.38,0,0,1-1.21-.29,1.71,1.71,0,0,1-.82-1.37,81.61,81.61,0,0,1,.34-8.79.56.56,0,0,1,1.11.09,84.85,84.85,0,0,0-.33,8.58.62.62,0,0,0,.27.53,3.38,3.38,0,0,0,2.25-.22.56.56,0,0,1,.73.31.56.56,0,0,1-.31.73A5.88,5.88,0,0,1,252.32,118.91Z"/><path class="cls-10" d="M245.21,122.45c.42,2.13,1.83,6,6.57,6s6.09-3.58,6.55-6Z"/><path class="cls-7" d="M251.71,131.77a5.48,5.48,0,0,1-2.62-.77.56.56,0,0,1-.19-.77.57.57,0,0,1,.77-.18h0a4.49,4.49,0,0,0,2,.6,4.93,4.93,0,0,0,2.16-.6.56.56,0,0,1,.77.19.57.57,0,0,1-.19.77A5.9,5.9,0,0,1,251.71,131.77Z"/><path class="cls-5" d="M275.79,98.81a1.86,1.86,0,0,1-1.35,1,35.9,35.9,0,0,1-.2,4.15c-.69,8.1-2.73,9.52-3.2,7.52a95.78,95.78,0,0,1-.14-11.45,27.85,27.85,0,0,1-3-.37l-1.88-7.87-.66,7.77c-2.82,1-9.4-.59-9.4-.59l-2.2-7.75-1.37,7.46c-4.22,2.06-9.51.69-9.51.69l-1.21-8.05-2.8,8.05s-9,3.23-9.12,0c-.06-1.89,1.32-7.19,2.49-11.3a17,17,0,0,1,8.19-10.39c11.18-6,23-2.82,27.07-.39C276.15,82.46,275.79,98.81,275.79,98.81Z"/><path class="cls-5" d="M234.76,82.47s-7.43,8.83-9.87,24.6-5.82,27.43,3.68,32.63c10.29,5.64,9.4-5.92,9.25-9.06s-8.9-11.73-3.06-35.92C236.64,86.91,234.76,82.47,234.76,82.47Z"/><path class="cls-6" d="M233,115.06v0c0,.12,0,.74.06,1.72,0,.61.06,1.35.12,2.2.35,5.31,1.38,14.48,4.41,17.67,1.2,1.26,3.51,1.89,6.23,2.14v-4.17a16.55,16.55,0,0,1-6.83-6.35,39,39,0,0,1-3.78-11.65Z"/><path class="cls-10" d="M273.67,120.22a1.32,1.32,0,1,1-1.31-1.31A1.32,1.32,0,0,1,273.67,120.22Z"/><path class="cls-3" d="M300.43,219.14c-3.72,10.65-20.38,9.88-39.35,4.06l-.08,0-.18,0-2.61-.84q-.54-.17-1.08-.36-3.06-1-6.17-2.21a208.69,208.69,0,0,1-20.05-8.88l0-.11,1.94-5,.66-1.71s35.18,3.83,52.86.13l.88-.19a11.43,11.43,0,0,0-.2-1.17c-9.37-31.9.88-38,4.3-42.46C291.39,160.28,307.45,199,300.43,219.14Z"/><path class="cls-4" d="M294.7,209.27a.8.8,0,0,1-.33.08.75.75,0,0,1-.67-.42c-1.34-2.75-5.89-4.38-7.29-4.83l.88-.19c-.07-.39-.14-.78-.2-1.17,1.77.59,6.42,2.38,8,5.53A.74.74,0,0,1,294.7,209.27Z"/><path class="cls-4" d="M245.44,207.93c-7.18,0-13-.41-13.52-.45A.75.75,0,0,1,232,206c.27,0,26.65,1.88,37-2.34a.76.76,0,0,1,1,.42.75.75,0,0,1-.41,1C263.89,207.38,253.76,207.93,245.44,207.93Z"/><path class="cls-4" d="M258.21,222.28h0c6-1.66,11.5-3.27,14.66-4.29,4.38-1.4,8-5.84,9.66-9.61a.75.75,0,0,1,1-.38.76.76,0,0,1,.39,1c-1.79,4.07-5.75,8.88-10.59,10.43-2.29.74-5.79,1.79-9.84,2.94a9,9,0,0,1-5.27-.08Z"/><path class="cls-3" d="M274.44,217.13c-54.36,18.3-71.08,6.32-71.08,6.32-3.66-33.09,9.82-62.85,9.82-62.85,4,6.57,8.49,18,8.49,18L222.86,204l-.09.71,0,.33-.22,1.74v0l.35.08c16.44,3.46,46.51-.41,46.51-.41Z"/><path class="cls-4" d="M222.85,206.89a53.89,53.89,0,0,0-8.21,8.55.75.75,0,0,1-1.19-.91h0a55,55,0,0,1,9.28-9.49l-.22,1.74v0Z"/><path class="cls-9" d="M269.36,206.48s6-13.67,15.17-12.45l2.76,9.88c-5,2.13-5.74,10.71-12.85,13.22Z"/><path class="cls-9" d="M233.56,204a21.78,21.78,0,0,0-13.81-11.51c-10-2.59-16.37,2.12-17,3.9s3.77.08,3.77.08a8.63,8.63,0,0,0-4.55,3.54c-1.66,2.72,4-.22,4-.22s-4.09,1.79-4.61,3.45,4.87-1.14,5.89-1.09c0,0-4.82,1.92-4.79,3.63s5.53-1.08,9.64-.86a64.84,64.84,0,0,1,10.4,1.92,69.73,69.73,0,0,0,9.48,1.25Z"/><path class="cls-4" d="M330.14,65.27a6.71,6.71,0,1,1,6.71-6.71A6.72,6.72,0,0,1,330.14,65.27Zm0-11.32a4.61,4.61,0,1,0,4.6,4.61A4.61,4.61,0,0,0,330.14,54Z"/><path class="cls-3" d="M388.71,53.87a6.72,6.72,0,1,1,6.71-6.72A6.73,6.73,0,0,1,388.71,53.87Zm0-11.33a4.61,4.61,0,1,0,4.61,4.61A4.62,4.62,0,0,0,388.71,42.54Z"/><path class="cls-4" d="M397,75.68A1.05,1.05,0,0,1,396,74.63V70a1.06,1.06,0,1,1,2.11,0v4.64A1,1,0,0,1,397,75.68Z"/><path class="cls-4" d="M397,83.81a1.05,1.05,0,0,1-1.06-1V78.11a1.06,1.06,0,0,1,2.11,0v4.65A1,1,0,0,1,397,83.81Z"/><path class="cls-4" d="M403.52,77.42h-4.17a1,1,0,0,1,0-2.1h4.17a1.05,1.05,0,1,1,0,2.1Z"/><path class="cls-4" d="M394.66,77.42h-4.17a1.05,1.05,0,1,1,0-2.1h4.17a1,1,0,1,1,0,2.1Z"/><path class="cls-2" d="M361.54,47.55a1,1,0,0,1-1.05-1V41.85a1.06,1.06,0,0,1,2.11,0V46.5A1.05,1.05,0,0,1,361.54,47.55Z"/><path class="cls-2" d="M361.54,55.68a1.06,1.06,0,0,1-1.05-1.06V50a1.06,1.06,0,0,1,2.11,0v4.64A1.06,1.06,0,0,1,361.54,55.68Z"/><path class="cls-2" d="M368.06,49.29h-4.17a1.06,1.06,0,0,1,0-2.11h4.17a1.06,1.06,0,1,1,0,2.11Z"/><path class="cls-2" d="M359.2,49.29H355a1.06,1.06,0,0,1,0-2.11h4.18a1.06,1.06,0,0,1,0,2.11Z"/><path class="cls-4" d="M90.17,41.52a6.72,6.72,0,1,1,6.71,6.72A6.72,6.72,0,0,1,90.17,41.52Zm2.1,0a4.61,4.61,0,1,0,4.61-4.6A4.62,4.62,0,0,0,92.27,41.52Z"/><path class="cls-3" d="M63.21,67.11a6.71,6.71,0,1,1,6.71,6.72A6.72,6.72,0,0,1,63.21,67.11Zm2.1,0a4.61,4.61,0,1,0,4.61-4.6A4.62,4.62,0,0,0,65.31,67.11Z"/><path class="cls-4" d="M49.25,76.53a1,1,0,0,0,1-1V70.84a1.05,1.05,0,1,0-2.1,0v4.64A1,1,0,0,0,49.25,76.53Z"/><path class="cls-4" d="M49.25,84.66a1,1,0,0,0,1-1V79a1,1,0,0,0-2.1,0v4.65A1,1,0,0,0,49.25,84.66Z"/><path class="cls-4" d="M42.73,78.28H46.9a1.06,1.06,0,0,0,0-2.11H42.73a1.06,1.06,0,0,0,0,2.11Z"/><path class="cls-4" d="M51.6,78.28h4.17a1.06,1.06,0,0,0,0-2.11H51.6a1.06,1.06,0,1,0,0,2.11Z"/><path class="cls-2" d="M73.52,40.83a1,1,0,0,0,1-1V35.14a1.06,1.06,0,1,0-2.11,0v4.64A1.05,1.05,0,0,0,73.52,40.83Z"/><path class="cls-2" d="M73.52,49a1,1,0,0,0,1-1.05V43.26a1.06,1.06,0,0,0-2.11,0v4.65A1.05,1.05,0,0,0,73.52,49Z"/><path class="cls-2" d="M67,42.58h4.17a1.06,1.06,0,0,0,0-2.11H67a1.06,1.06,0,1,0,0,2.11Z"/><path class="cls-2" d="M75.86,42.58H80a1.06,1.06,0,1,0,0-2.11H75.86a1.06,1.06,0,0,0,0,2.11Z"/><path class="cls-1" d="M274.29,42a.8.8,0,0,1-.37-.06c-1.28-.54-2-.79-2-.79a.75.75,0,1,1,.47-1.42s.8.27,2.14.83a.75.75,0,0,1,.4,1A.76.76,0,0,1,274.29,42Z"/><path class="cls-1" d="M312.4,82.11c.51,1.36,1,2.76,1.42,4.16a.75.75,0,0,0,.79.53l.14,0a.74.74,0,0,0,.49-.94c-.43-1.43-.92-2.86-1.44-4.24a.75.75,0,0,0-1.4.52Z"/><path class="cls-1" d="M315,90.51c.34,1.4.65,2.85.92,4.3a.75.75,0,0,0,.81.61h.06a.75.75,0,0,0,.6-.87c-.27-1.48-.59-3-.94-4.38a.73.73,0,0,0-.9-.55A.74.74,0,0,0,315,90.51Z"/><path class="cls-1" d="M318.13,113.09a.74.74,0,0,0,.67-.73c0-1.5,0-3,0-4.48a.75.75,0,0,0-.77-.72.73.73,0,0,0-.72.77c0,1.45.05,2.93,0,4.41a.75.75,0,0,0,.73.76Z"/><path class="cls-1" d="M317.23,98.31a.76.76,0,0,0-.65.84c.09.68.17,1.36.24,2s.16,1.57.22,2.35a.75.75,0,0,0,.8.69h0a.76.76,0,0,0,.67-.81c-.06-.79-.14-1.6-.22-2.38s-.15-1.38-.24-2.07a.76.76,0,0,0-.82-.65Z"/><path class="cls-1" d="M310.73,78.05a.76.76,0,0,0,.76.44.86.86,0,0,0,.23-.06.75.75,0,0,0,.38-1c-.61-1.36-1.27-2.72-2-4a.75.75,0,0,0-1.33.69C309.49,75.39,310.13,76.72,310.73,78.05Z"/><path class="cls-1" d="M277.89,43.81c1.29.66,2.58,1.37,3.86,2.12a.67.67,0,0,0,.45.1.74.74,0,0,0,.31-1.38c-1.3-.77-2.62-1.5-3.94-2.17a.75.75,0,0,0-1,.32A.76.76,0,0,0,277.89,43.81Z"/><path class="cls-1" d="M289,50.85a.75.75,0,1,0,.9-1.19c-1.18-.9-2.41-1.78-3.64-2.62a.75.75,0,0,0-.84,1.24C286.67,49.1,287.88,50,289,50.85Z"/><path class="cls-1" d="M301.6,63.09a.74.74,0,0,0,.67.28.71.71,0,0,0,.38-.16.74.74,0,0,0,.12-1.05c-.93-1.16-1.91-2.31-2.91-3.41a.76.76,0,0,0-1.06-.06.75.75,0,0,0-.05,1.06C299.73,60.83,300.69,62,301.6,63.09Z"/><path class="cls-1" d="M295.69,56.59a.78.78,0,0,0,.61.21.74.74,0,0,0,.45-.22.75.75,0,0,0,0-1.06c-1.07-1-2.18-2.05-3.31-3a.75.75,0,1,0-1,1.13C293.56,54.58,294.65,55.58,295.69,56.59Z"/><path class="cls-1" d="M306.65,70.28a.74.74,0,0,0,.71.36.82.82,0,0,0,.31-.11.74.74,0,0,0,.25-1c-.77-1.27-1.6-2.53-2.46-3.75a.75.75,0,1,0-1.22.86C305.08,67.8,305.89,69,306.65,70.28Z"/><polygon class="cls-3" points="274.28 36.89 277.55 24.77 237.45 25.11 274.28 36.89"/><polygon class="cls-4" points="237.45 25.11 272.33 39.81 272.42 39.85 273.92 42.34 274.28 36.89 237.45 25.11"/><polygon class="cls-4" points="273.92 42.34 270.67 41.83 272.42 39.85 273.92 42.34"/><polygon class="cls-3" points="268.03 38.01 272.42 39.85 263.38 50.04 237.45 25.11 268.03 38.01"/><rect class="cls-2" x="47.44" y="348.12" width="411.21" height="15.99" rx="7.63"/><path class="cls-4" d="M458.66,355.75v.37H47.44v-.37a7.64,7.64,0,0,1,7.63-7.63H451A7.64,7.64,0,0,1,458.66,355.75Z"/><rect class="cls-5" x="183.88" y="248.27" width="135.15" height="75.84" rx="5.38"/><rect class="cls-6" x="240.99" y="324.03" width="20.93" height="23.86"/><circle class="cls-13" cx="251.22" cy="287.12" r="10.39"/><path class="cls-5" d="M230.77,339.42h40.7a6.65,6.65,0,0,1,6.65,6.65v1.82a0,0,0,0,1,0,0h-54a0,0,0,0,1,0,0v-1.82A6.65,6.65,0,0,1,230.77,339.42Z"/></svg>