<svg xmlns="http://www.w3.org/2000/svg" viewBox="0 0 500 400"><defs><style>.cls-1{isolation:isolate;}.cls-2{fill:#b8c9ea;}.cls-3{fill:#d6e0f4;}.cls-10,.cls-11,.cls-17,.cls-18,.cls-22,.cls-24,.cls-26,.cls-27,.cls-28,.cls-30,.cls-31,.cls-34,.cls-4{fill:none;}.cls-11,.cls-4{stroke:#92a9d1;}.cls-10,.cls-11,.cls-22,.cls-24,.cls-26,.cls-27,.cls-28,.cls-30,.cls-31,.cls-34,.cls-4{stroke-linecap:round;stroke-linejoin:round;}.cls-5{fill:#92a9d1;}.cls-6,.cls-8,.cls-9{fill:#fff;}.cls-6{opacity:0.6;}.cls-7{opacity:0.8;}.cls-9{opacity:0.4;}.cls-10{stroke:#b8c9ea;}.cls-11{stroke-dasharray:12 10;}.cls-12{fill:#009cf8;}.cls-13{fill:#c8c3ca;}.cls-14{fill:#006bde;}.cls-15{opacity:0.5;mix-blend-mode:overlay;}.cls-16{fill:#fff9f2;}.cls-17{stroke:#ada7b0;}.cls-17,.cls-18{stroke-miterlimit:10;}.cls-18{stroke:#e1dee2;}.cls-19,.cls-33{fill:#522840;}.cls-19,.cls-32{opacity:0.15;mix-blend-mode:multiply;}.cls-20{fill:#b1705b;}.cls-21{fill:#444145;}.cls-22,.cls-30,.cls-34{stroke:#252126;}.cls-22,.cls-24,.cls-26,.cls-27,.cls-28,.cls-31{stroke-width:0.75px;}.cls-23{fill:#9e5942;}.cls-24{stroke:#9e5942;}.cls-25{fill:#a29aa5;}.cls-26{stroke:#8a7f8f;}.cls-27{stroke:#4572ba;}.cls-28{stroke:#626063;}.cls-29{fill:#663f3f;}.cls-30{stroke-width:1.5px;}.cls-31{stroke:#057cc0;}</style></defs><g class="cls-1"><g id="DESIGNED_BY_FREEPIK" data-name="DESIGNED BY FREEPIK"><rect class="cls-2" x="86.96" y="87.16" width="326.08" height="205.6" rx="20"/><rect class="cls-2" x="205.22" y="292.76" width="89.56" height="64.64"/><rect class="cls-2" x="173.01" y="342.65" width="153.97" height="14.75" rx="7.37"/><rect class="cls-3" x="97.68" y="101.53" width="304.65" height="176.36" rx="7.18"/><line class="cls-4" x1="205.22" y1="342.92" x2="294.78" y2="342.92"/><line class="cls-4" x1="395.14" y1="277.89" x2="104.86" y2="277.89"/><polygon class="cls-5" points="294.78 307.45 294.78 292.76 224.13 292.51 294.78 307.45"/><path class="cls-6" d="M402.32,234V270.7a7.19,7.19,0,0,1-7.18,7.19H104.86a7.19,7.19,0,0,1-7.18-7.19v-27a21.76,21.76,0,0,1,10.93.18c7.64,2.19,13.13,9,14.67,16.78a11.44,11.44,0,0,1,16.63-10.54c3.52,1.8,6.82,5.82,7.06,9.77a56.49,56.49,0,0,0,14.41-23.36h33.14a36.37,36.37,0,0,0,13.33,20.56c1.84-4.62,6.74-8.51,11.7-8.83A13.58,13.58,0,0,1,232,255c-.64-7.5,4.13-15.65,10.08-20.24s13.72-6.48,21.23-6.16c6.27.26,12.64,2.09,17.41,6.15s7.66,10.62,6.36,16.76a19.73,19.73,0,0,1,19.54-7.75,18.53,18.53,0,0,1,13.93,14.8c2.12-6.93,9.68-12.66,16.92-12.86a17.88,17.88,0,0,1,16.84,11.41c.21-9.09,6.48-17.12,14.6-21.22s17.66-4.61,26.68-3.33A48.15,48.15,0,0,1,402.32,234Z"/><g class="cls-7"><path class="cls-8" d="M286.05,275.25a25.64,25.64,0,0,1-.14,2.64H237a25.64,25.64,0,0,1-.14-2.64,24.58,24.58,0,1,1,49.16,0Z"/><path class="cls-8" d="M119.69,275.25a14.4,14.4,0,0,1-.24,2.64H104.86a7.19,7.19,0,0,1-7.18-7.19v-8.41a14.82,14.82,0,0,1,22,13Z"/><path class="cls-8" d="M402.32,260.52V270.7a7.19,7.19,0,0,1-7.18,7.19H363.4a21.57,21.57,0,0,1,38.92-17.37Z"/><circle class="cls-8" cx="220.1" cy="264.28" r="6.52"/><circle class="cls-8" cx="393.87" cy="240.72" r="5.26" transform="translate(93.04 590.84) rotate(-80.76)"/><path class="cls-8" d="M185.56,243.9a4.2,4.2,0,1,1,4.2,4.2A4.2,4.2,0,0,1,185.56,243.9Z"/><circle class="cls-8" cx="136.21" cy="264.28" r="7.44"/><circle class="cls-8" cx="176.97" cy="260.63" r="9.68" transform="translate(-118.65 369.5) rotate(-76.04)"/></g><rect class="cls-9" x="118.16" y="114.31" width="119.99" height="111.11" rx="15"/><rect class="cls-9" x="248.59" y="114.31" width="71.18" height="103.47" rx="15"/><path class="cls-9" d="M343.79,114.31h27.26a15,15,0,0,1,15,15v75.92a12.54,12.54,0,0,1-12.54,12.54H343.79a12.54,12.54,0,0,1-12.54-12.54V126.85A12.54,12.54,0,0,1,343.79,114.31Z"/><line class="cls-10" x1="254.5" y1="147.79" x2="313.85" y2="147.79"/><line class="cls-10" x1="261.2" y1="123.45" x2="261.2" y2="147.79"/><line class="cls-10" x1="271.77" y1="132.42" x2="271.77" y2="147.79"/><line class="cls-10" x1="281.88" y1="126.8" x2="281.88" y2="147.79"/><line class="cls-10" x1="306.22" y1="125.43" x2="306.22" y2="147.79"/><line class="cls-10" x1="295.57" y1="127.86" x2="295.57" y2="147.79"/><line class="cls-10" x1="254.5" y1="166.14" x2="313.85" y2="166.14"/><line class="cls-10" x1="254.5" y1="180.51" x2="313.85" y2="180.51"/><line class="cls-10" x1="254.5" y1="202.07" x2="313.85" y2="202.07"/><circle class="cls-2" cx="261.2" cy="166.14" r="2.31"/><circle class="cls-2" cx="276.27" cy="180.51" r="2.31"/><circle class="cls-2" cx="261.2" cy="201.96" r="2.31"/><polygon class="cls-10" points="348.06 122.11 336.85 155.73 359.27 155.73 348.06 122.11"/><polygon class="cls-10" points="369.89 131.97 359.32 155.73 380.46 155.73 369.89 131.97"/><polygon class="cls-2" points="348.06 122.11 341.58 141.53 354.54 141.53 348.06 122.11"/><polyline class="cls-10" points="337.99 204.27 349.75 187.35 361.36 194.94 377.61 167.08"/><polyline class="cls-10" points="377.61 173.38 377.61 167.08 371.79 170.03"/><polyline class="cls-10" points="382.48 167.08 382.48 206.88 336.85 206.88"/><path class="cls-11" d="M6.73,159.84c11.87-11.44,23.79-23,33.5-36.26s17.17-28.66,19-45c.69-6.3.5-12.84-1.77-18.76S50.57,48.61,44.54,46.64c-5.56-1.82-11.76-.69-17,1.88a33.4,33.4,0,0,0-7.93,54.66c6.68,6.11,15.61,9.27,24.55,10.66a75.11,75.11,0,0,0,81.11-46"/><polygon class="cls-2" points="114.28 72.53 133.11 55.36 126.83 80.45 123.7 72.37 114.28 72.53"/><path class="cls-11" d="M481.72,165.51c8.12-14.92,7-33.82-.65-49s-21.26-26.73-36.43-34.36C426.26,72.93,403.19,69.4,385.56,80c-4.13,2.49-7.92,5.8-10.06,10.12s-2.4,9.76.18,13.83c4.56,7.2,15.88,7,22.65,1.79,8-6.14,11.23-17.38,9.09-27.27s-9-18.33-17.42-23.91-18.36-8.53-28.33-10.22A128.12,128.12,0,0,0,287.78,54c-22.94,10.44-46.72,29.38-57.39,52.63"/><polygon class="cls-2" points="222.78 102.83 227.3 111.79 238.21 108.81 219.81 129.15 222.78 102.83"/><path class="cls-8" d="M207.3,147.3a270.15,270.15,0,0,1-4.21,40.19c-2.25,12.75-5.21,25-8.43,36.48l6.16,12.55H155.49L161.64,224c-2.69-9.57-5.2-19.72-7.26-30.25-.4-2.06-.8-4.14-1.17-6.23-5.92-33.51-7-70.19,5.09-103.21a127.1,127.1,0,0,1,19.85-35.69A126.86,126.86,0,0,1,198,84.28C205.36,104.44,207.84,126,207.3,147.3Z"/><path class="cls-12" d="M157.93,209.86A69,69,0,0,0,138.78,242c-2.48-11.7-3.64-24-1.32-35.76,2-10.44,6.79-20.53,14.24-28.06C153.29,189.07,155.46,199.71,157.93,209.86Z"/><path class="cls-12" d="M198.37,209.86A68.94,68.94,0,0,1,217.53,242c2.48-11.7,3.63-24,1.32-35.76-2.06-10.44-6.8-20.53-14.25-28.06C203,189.07,200.84,199.71,198.37,209.86Z"/><path class="cls-12" d="M198,84.28H158.3a127.1,127.1,0,0,1,19.85-35.69A126.86,126.86,0,0,1,198,84.28Z"/><path class="cls-13" d="M194.66,224l6.16,12.55H155.49L161.64,224c-3.22-11.45-6.18-23.73-8.43-36.48h49.88C200.84,200.24,197.88,212.52,194.66,224Z"/><circle class="cls-14" cx="178.15" cy="109.98" r="13.62" transform="translate(40.4 267.65) rotate(-80.55)"/><path class="cls-13" d="M187.21,110a9.05,9.05,0,0,1-11.08,8.83,8.57,8.57,0,0,1-2.22-.82,9.27,9.27,0,0,1-3.93-4.08,9.63,9.63,0,0,1-.61-1.71,5.68,5.68,0,0,1-.17-.84h0a9,9,0,0,1-.11-1.38,9.06,9.06,0,0,1,9.06-9.06,9,9,0,0,1,1.38.11,5.68,5.68,0,0,1,.84.17,8.29,8.29,0,0,1,1.73.63A8.39,8.39,0,0,1,184,103a8.67,8.67,0,0,1,2.19,2.69,8.48,8.48,0,0,1,.84,2.22A9.11,9.11,0,0,1,187.21,110Z"/><circle class="cls-14" cx="178.15" cy="151.16" r="17.44" transform="translate(-0.18 302.12) rotate(-80.56)"/><path class="cls-13" d="M189.76,151.17a11.61,11.61,0,0,1-11.61,11.6c-.26,0-.51,0-.77,0a11.53,11.53,0,0,1-2.58-.47A11.16,11.16,0,0,1,172,161a11.75,11.75,0,0,1-4.36-4.9,11.07,11.07,0,0,1-.78-2.27,10.33,10.33,0,0,1-.31-2.15c0-.17,0-.34,0-.52s0-.33,0-.49a11.59,11.59,0,0,1,11.08-11.1l.51,0,.51,0a11.12,11.12,0,0,1,2.17.3,11,11,0,0,1,2.26.78,11.13,11.13,0,0,1,2.56,1.66,11.6,11.6,0,0,1,4.08,8C189.75,150.63,189.76,150.89,189.76,151.17Z"/><g class="cls-15"><path class="cls-16" d="M186.14,105.72,173.91,118a8.57,8.57,0,0,0,2.22.82L187,107.94A8.48,8.48,0,0,0,186.14,105.72Zm-4-3.89L170,113.91a8.88,8.88,0,0,0,1.2,1.85L184,103A8.39,8.39,0,0,0,182.1,101.83Zm-1.73-.63a5.68,5.68,0,0,0-.84-.17q-5.16,5.16-10.33,10.33h0a5.68,5.68,0,0,0,.17.84l9.15-9.14Z"/><path class="cls-16" d="M189.25,147.78Q182,155,174.8,162.27a11.53,11.53,0,0,0,2.58.47q6.18-6.18,12.35-12.38A11.54,11.54,0,0,0,189.25,147.78Zm-3.6-5.46-16.36,16.33A11.39,11.39,0,0,0,172,161l16-16A11.59,11.59,0,0,0,185.65,142.32Zm-4.82-2.44-14,14a11.07,11.07,0,0,0,.78,2.27l15.44-15.45A11,11,0,0,0,180.83,139.88Zm-2.17-.3-.51,0-.51,0-11.08,11.1c0,.16,0,.32,0,.49s0,.35,0,.52l9.52-9.53Z"/></g><line class="cls-17" x1="194.66" y1="223.97" x2="161.64" y2="223.97"/><line class="cls-17" x1="203.09" y1="187.49" x2="153.21" y2="187.49"/><line class="cls-17" x1="199.69" y1="204.29" x2="156.62" y2="204.29"/><circle class="cls-17" cx="178.15" cy="195.89" r="4.9"/><circle class="cls-17" cx="162.35" cy="195.89" r="4.9"/><circle class="cls-17" cx="193.96" cy="195.89" r="4.9"/><path class="cls-18" d="M165.05,85.34a195.79,195.79,0,0,0-6.45,100.2"/><path class="cls-18" d="M194.39,85.77a262.2,262.2,0,0,1,2.52,99.4"/><path class="cls-19" d="M207.3,147.3a270.15,270.15,0,0,1-4.21,40.19c-2.25,12.75-5.21,25-8.43,36.48h-33c-2.69-9.57-5.2-19.72-7.26-30.25,12.7-4.19,24.71-10.52,34.54-19.53A69.82,69.82,0,0,0,207.3,147.3Z"/><circle class="cls-14" cx="178.15" cy="78.6" r="2.89"/><circle class="cls-14" cx="148.41" cy="193.7" r="2.89"/><circle class="cls-14" cx="208.02" cy="193.7" r="2.89"/><circle class="cls-14" cx="215.19" cy="216.99" r="2.89"/><path class="cls-14" d="M147.07,203.68a2.89,2.89,0,1,1-2.89-2.88A2.89,2.89,0,0,1,147.07,203.68Z"/><path class="cls-14" d="M215.86,204.74a2.89,2.89,0,1,1-2.89-2.89A2.88,2.88,0,0,1,215.86,204.74Z"/><path class="cls-14" d="M144.77,214.89a2.89,2.89,0,1,1-2.88-2.88A2.89,2.89,0,0,1,144.77,214.89Z"/><circle class="cls-14" cx="168.09" cy="78.6" r="2.89"/><circle class="cls-14" cx="188.21" cy="78.6" r="2.89"/><polygon class="cls-20" points="450.49 349.24 451.07 343.29 442.99 343.29 443.85 349.82 444.96 353.54 448.25 354.2 450.01 352.68 450.49 349.24"/><path class="cls-21" d="M451.31,357.4h-18.1a1.2,1.2,0,0,1-1.2-1.2v-.91a1.2,1.2,0,0,1,.69-1.09l9.85-4.57a1.21,1.21,0,0,1,1.3.19l2.28,2a1.21,1.21,0,0,0,1.62,0l2.74-2.57a1.17,1.17,0,0,1,.82-.32h0a1.2,1.2,0,0,1,1.2,1.2v6.08A1.2,1.2,0,0,1,451.31,357.4Z"/><polygon class="cls-20" points="468.59 331.33 464.46 327 459.18 333.11 464.68 336.73 468.22 338.33 470.87 336.27 470.87 333.94 468.59 331.33"/><path class="cls-21" d="M475.29,336.05l-11.84,13.69a1.2,1.2,0,0,1-1.69.12l-.69-.59a1.21,1.21,0,0,1-.37-1.24l3-10.44a1.19,1.19,0,0,1,1-.86l3-.41a1.21,1.21,0,0,0,1-1.24l-.15-3.75a1.16,1.16,0,0,1,.29-.83h0a1.19,1.19,0,0,1,1.69-.12l4.6,4A1.21,1.21,0,0,1,475.29,336.05Z"/><path class="cls-21" d="M433.28,157.12a14,14,0,0,1-1.86-7,13.15,13.15,0,0,1,2.07-6.94,3.77,3.77,0,0,1,1.08-1.2,1.76,1.76,0,0,1,1.6-.2,1,1,0,0,1,.52,1.32,3.36,3.36,0,0,1,1.47-1.56,1.67,1.67,0,0,1,1.42-.17,1.26,1.26,0,0,1,.7,1,2.84,2.84,0,0,1-.18,1.25,4.83,4.83,0,0,1,1.62-1.49,2.11,2.11,0,0,1,1.12-.29,1.44,1.44,0,0,1,1.26,1.08,1.87,1.87,0,0,1-.45,1.6,3.89,3.89,0,0,1,1.76-1,1.59,1.59,0,0,1,1.68.68,1.35,1.35,0,0,1,0,1,3.31,3.31,0,0,1-.46.92,3,3,0,0,1,.89-.44,1.53,1.53,0,0,1,1,0,1.4,1.4,0,0,1,.84,1.36,3.59,3.59,0,0,1-.54,1.59,1.3,1.3,0,0,1,1.58-.46,1.88,1.88,0,0,1,1.15,1.29,4,4,0,0,1,0,1.72,15,15,0,0,1-4.35,7.67A47.48,47.48,0,0,1,433.28,157.12Z"/><path class="cls-20" d="M447,162a16.54,16.54,0,0,1-3.78,5.28,10.72,10.72,0,0,1-5.79,2.79,3.82,3.82,0,0,1-2.94-.61,4.41,4.41,0,0,1-1.22-2.72,32.81,32.81,0,0,1-.46-4.52c0-.69,0-1.39,0-2.09a60.66,60.66,0,0,1,.46-6.3,15.67,15.67,0,0,1,12.45.13,9.63,9.63,0,0,0,.83,4.3,8,8,0,0,0,.9-.17A7.16,7.16,0,0,1,447,162Z"/><circle class="cls-20" cx="447.49" cy="160.32" r="3.14"/><path class="cls-20" d="M448.55,174.92a6.69,6.69,0,0,1-12.42.42,18,18,0,0,0,.56-2,20.07,20.07,0,0,0,.48-3.29l.24,0a10.82,10.82,0,0,0,5.79-2.79,14.25,14.25,0,0,0,2.29-2.68,15.6,15.6,0,0,0,.92-1.51A54.14,54.14,0,0,0,448.55,174.92Z"/><path class="cls-22" d="M437,157.5l-.11,2.78a.78.78,0,0,0-.91,1.24.82.82,0,0,0,1,.1"/><path class="cls-22" d="M441,156.64a1.43,1.43,0,0,0-2.78-.22"/><path class="cls-22" d="M436.2,156.61a1.55,1.55,0,0,0-2.78-.15"/><path class="cls-8" d="M439.72,163.1a1.68,1.68,0,0,0-1.29.23,4.24,4.24,0,0,0-1,.85c-.65-.15-1.49,0-1.6.72a1,1,0,0,0,.59,1,2.29,2.29,0,0,0,1.16.14,3.52,3.52,0,0,0,2.05-.93,1.81,1.81,0,0,0,.64-1.05A.89.89,0,0,0,439.72,163.1Z"/><path class="cls-23" d="M439.49,161.17c0,.58.81,1.06,1.81,1.06s1.81-.48,1.81-1.06-.81-1.06-1.81-1.06S439.49,160.59,439.49,161.17Z"/><path class="cls-23" d="M434.81,161.17c0,.58-.81,1.06-1.81,1.06a.86.86,0,0,1-.22,0c0-.69,0-1.38,0-2.08a1,1,0,0,1,.24,0C434,160.11,434.81,160.59,434.81,161.17Z"/><path class="cls-23" d="M445.49,164.6a9,9,0,0,1-3,6.25,10.57,10.57,0,0,1-5.77,2.53,20.07,20.07,0,0,0,.48-3.29l.24,0a10.82,10.82,0,0,0,5.79-2.79A14.25,14.25,0,0,0,445.49,164.6Z"/><path class="cls-24" d="M448.85,158.89a4,4,0,0,0-2.33,2.87,2.61,2.61,0,0,1,2-.95"/><path class="cls-22" d="M439.25,157.84a1.77,1.77,0,0,0-.63,1.07,2.74,2.74,0,0,1,2-.57"/><path class="cls-22" d="M434.87,157.75a1.87,1.87,0,0,1,.66.86,5.09,5.09,0,0,0-1.74,0"/><path class="cls-14" d="M446.68,182.33a71,71,0,0,0,1.51,19.56,48,48,0,0,0,16.91-3.2c-.43-3.31-.51-6.67-1.06-10a19.19,19.19,0,0,0-3.73-9.18c-2.77-3.33-7.42-4.63-11.76-4.63Z"/><path class="cls-14" d="M426.63,203.63A34.29,34.29,0,0,1,415.68,198c1.94-5,3.92-10.1,7.18-14.38s7.91-7.88,13.27-8.29A119.74,119.74,0,0,1,426.63,203.63Z"/><path class="cls-14" d="M464.83,235.22l-1.27.37c-1.17.33-2.34.62-3.53.88A68.76,68.76,0,0,1,448.86,238c-.56,0-1.13.05-1.69.06H447c-.56,0-1.14,0-1.71,0-1.38,0-2.77,0-4.15-.13l-1-.06c-.69,0-1.38-.11-2.06-.18-.34,0-.67-.06-1-.11l-.86-.1-.91-.12c-1.13-.15-2.25-.34-3.36-.55-.34,0-.68-.12-1-.19l-1-.21-1-.22h0c-.55-.12-1.09-.25-1.63-.39-.73-4.45-1.28-8.91-1.68-13.36a182.94,182.94,0,0,1,.43-35.63,79.89,79.89,0,0,1,10.13-11.45,6.7,6.7,0,0,0,12.43-.42c4.44,4.65,8.58,9.91,10.42,16.09a125.47,125.47,0,0,1,3.73,17A204,204,0,0,1,464.83,235.22Z"/><path class="cls-20" d="M463,217c-1.79,13.28-3.57,26.65-8.54,39.09l-5.34-6.27c-.59-8.76-.74-22.69,2.91-33.6a53.92,53.92,0,0,1-1.19-14.45A47.9,47.9,0,0,0,463,199.43,65.24,65.24,0,0,1,463,217Z"/><path class="cls-20" d="M424.94,210.7a38.28,38.28,0,0,1-7.77,6.82,5.45,5.45,0,0,1-8.35-.91c-5.59-5.7-9.92-14.42-13.56-21.53,1.06-1.23,2.34-1.17,3.84-1.81a163.44,163.44,0,0,1,14.67,12.37,25.32,25.32,0,0,1,3.82-6.27,33.4,33.4,0,0,0,7.36,3.7Q424.85,206.88,424.94,210.7Z"/><rect class="cls-25" x="386.16" y="173.9" width="6.63" height="12.89" rx="2.22" transform="translate(-38.5 212.81) rotate(-29.18)"/><path class="cls-25" d="M396.44,181.53l-1.91,1.07-4.33-7.75,1.92-1.06a4.42,4.42,0,0,1,6,1.71h0A4.42,4.42,0,0,1,396.44,181.53Z"/><path class="cls-25" d="M375.19,201.13,389,186.19l-4.73-8.46-19.94,3.88a2,2,0,0,0-1.35,2.91L372,200.75A2,2,0,0,0,375.19,201.13Z"/><path class="cls-25" d="M399.81,198.85h0a1.72,1.72,0,0,1-2.33-.66l-8.53-12,5.78-3.23,5.74,13.55A1.72,1.72,0,0,1,399.81,198.85Z"/><line class="cls-26" x1="388.95" y1="186.19" x2="384.22" y2="177.73"/><line class="cls-26" x1="390.2" y1="174.85" x2="394.53" y2="182.6"/><path class="cls-20" d="M394.86,195.3a1,1,0,0,1-1-.06,12.63,12.63,0,0,1-2.08-1.85,3.4,3.4,0,0,1-1.12-2.51c.13-1.31,1.55-2.19,2.64-2.94a1.83,1.83,0,0,1,1.27-.43,1.75,1.75,0,0,1,1.09.84,7.7,7.7,0,0,1,1.36,3.41,3.27,3.27,0,0,1-.12,1.73,2.88,2.88,0,0,1-1,1.21A10.58,10.58,0,0,1,394.86,195.3Z"/><path class="cls-20" d="M396.33,186.91a1.17,1.17,0,0,1,.47-1,1,1,0,0,1,1.11.05,1.92,1.92,0,0,1,.69.94,1.74,1.74,0,0,1,.09,1.12,1,1,0,0,1-.67.67.92.92,0,0,1-.82-.2A2,2,0,0,1,396.33,186.91Z"/><path class="cls-27" d="M446.88,183.45a45.44,45.44,0,0,0,1.26,18.27,14.9,14.9,0,0,0,3.89-.17"/><path class="cls-27" d="M426.1,186.91A113.75,113.75,0,0,0,425,203.3"/><path class="cls-27" d="M450.49,175.64A12.81,12.81,0,0,1,446.8,180a7.63,7.63,0,0,1-12-3.57"/><path class="cls-27" d="M430.44,195.61a48.22,48.22,0,0,0,16.47,31.09"/><path class="cls-27" d="M428.88,220.46a19.65,19.65,0,0,0,11.77,5.66"/><path class="cls-21" d="M466.21,326.91a39.81,39.81,0,0,1-7.15,8.59,17.55,17.55,0,0,1-5-5.1c-.12,5.15-.31,8.93-.43,14v.23l-.46.05a53.14,53.14,0,0,1-12.35,0c-1.58-8.55-2.65-15.77-3.59-24-.49-4.39-.95-9.08-1.42-14.4-3.28-5.13-6.61-10.39-7.93-16.32a51.27,51.27,0,0,1-.76-11.94c.08-4.55.2-9.12.35-13.68.31-9.42.79-18.86,1.43-28.21h0l1,.22,1,.21c.34.07.68.14,1,.19,1.11.21,2.23.4,3.36.55l.91.12.86.1c.33.05.66.08,1,.11.68.07,1.37.13,2.06.18l1,.06c1.38.08,2.77.13,4.15.13.57,0,1.15,0,1.71,0h.17l1.69-.07h0c-.1,4.43.06,8.54.29,11.9l5.34,6.27A108.3,108.3,0,0,0,460,236.47h0c1.19-.26,2.36-.55,3.53-.87,2.9,7.53,1.32,17-3.19,23.68-.33,11.53-2.86,23.05-4.89,34.22a54.09,54.09,0,0,1,.16,12.33C460,312.28,463.31,319.68,466.21,326.91Z"/><path class="cls-28" d="M439.19,237.59c-3.25,22.45-6.2,44.39-3.4,68.73"/><path class="cls-28" d="M456,304.43,454.42,331"/><path class="cls-28" d="M446.54,245.26a48.24,48.24,0,0,0,9.3,12.22"/><path class="cls-28" d="M434.68,238c-.13,2.86-.27,5.72-.4,8.57a6.41,6.41,0,0,0,.54,3.59,4.24,4.24,0,0,0,2,1.65,11.79,11.79,0,0,0,2.56.68"/><path class="cls-28" d="M452,258.49q-.9,19.47-3.71,38.79"/><path class="cls-28" d="M448.32,302.12q1.44,21.12,1.06,42.31"/><path class="cls-19" d="M466.21,326.91a39.81,39.81,0,0,1-7.15,8.59,17.55,17.55,0,0,1-5-5.1c-.12,5.15-.31,8.93-.43,14v.23l-.46.05a53.14,53.14,0,0,1-12.35,0c-1.58-8.55-2.65-15.77-3.59-24,8.31-7.24,13-18.7,11.59-29.69-1.52-11.85-10.26-22.26-21.35-26.65.31-9.42.79-18.86,1.43-28.21-.55-.12-1.09-.25-1.63-.39-.73-4.45-1.28-8.91-1.68-13.36A51.63,51.63,0,0,0,452,215.91c0,.12,0,.23.08.34-3.65,10.91-3.5,24.84-2.91,33.6l5.34,6.27c5-12.44,6.75-25.81,8.54-39.09.17-1.25.3-2.51.39-3.77a215.31,215.31,0,0,1,1.41,22l-1.27.37c2.9,7.53,1.32,17-3.19,23.68-.33,11.53-2.86,23.05-4.89,34.22a54.09,54.09,0,0,1,.16,12.33C460,312.28,463.31,319.68,466.21,326.91Z"/><path class="cls-29" d="M335.36,157.13a12.06,12.06,0,0,0,3-5.13,5.9,5.9,0,0,0,.11-3.5,3,3,0,0,0-2.58-2.1,4.3,4.3,0,0,0-2.7,1.29A20.85,20.85,0,0,0,335.36,157.13Z"/><path class="cls-29" d="M318,148.42a10.42,10.42,0,0,0,1.84,8.57,14.53,14.53,0,0,0,.68-5.89C320.43,150,318.93,149.1,318,148.42Z"/><path class="cls-20" d="M333.84,160.18a16.67,16.67,0,0,1-3.77,5.28,10.75,10.75,0,0,1-5.79,2.79,3.84,3.84,0,0,1-2.95-.61,4.41,4.41,0,0,1-1.22-2.72,32.81,32.81,0,0,1-.46-4.52c0-.69,0-1.39,0-2.09a65.29,65.29,0,0,1,.71-8.25,11,11,0,0,1,7.45-1.1c2.42.64,5.65,1.78,6,4.26C334.13,155.52,334.83,158.08,333.84,160.18Z"/><circle class="cls-20" cx="334.35" cy="158.5" r="3.14"/><path class="cls-20" d="M335.42,173.1a6.69,6.69,0,0,1-12.42.42c.22-.65.41-1.31.56-2a22.49,22.49,0,0,0,.48-3.29l.24,0a10.75,10.75,0,0,0,5.79-2.79,14.3,14.3,0,0,0,2.29-2.68,15.6,15.6,0,0,0,.92-1.51A53,53,0,0,0,335.42,173.1Z"/><path class="cls-22" d="M323.82,155.69c0,.92-.08,1.85-.11,2.78a.77.77,0,0,0-.91,1.23.79.79,0,0,0,1,.1"/><path class="cls-30" d="M326,156.2l0,.6"/><path class="cls-30" d="M321.49,156.2l0,.6"/><path class="cls-22" d="M327.89,154.82a1.43,1.43,0,0,0-2.78-.21"/><path class="cls-22" d="M323.07,154.79a1.55,1.55,0,0,0-2.78-.15"/><path class="cls-8" d="M326.58,161.28a1.69,1.69,0,0,0-1.29.24,3.62,3.62,0,0,0-1,.85c-.66-.16-1.49,0-1.6.72a1,1,0,0,0,.59,1,2.25,2.25,0,0,0,1.15.14,3.6,3.6,0,0,0,2.06-.92,1.9,1.9,0,0,0,.64-1.05A.9.9,0,0,0,326.58,161.28Z"/><path class="cls-23" d="M326.35,159.35c0,.59.81,1.06,1.82,1.06s1.81-.47,1.81-1.06-.81-1-1.81-1S326.35,158.77,326.35,159.35Z"/><path class="cls-23" d="M321.68,159.35c0,.59-.82,1.06-1.81,1.06h-.22c0-.69,0-1.39,0-2.09h.24C320.86,158.3,321.68,158.77,321.68,159.35Z"/><path class="cls-23" d="M332.36,162.78a9,9,0,0,1-3,6.25,10.51,10.51,0,0,1-5.76,2.53,22.49,22.49,0,0,0,.48-3.29l.24,0a10.75,10.75,0,0,0,5.79-2.79A14.3,14.3,0,0,0,332.36,162.78Z"/><path class="cls-24" d="M335.71,157.07a4,4,0,0,0-2.32,2.87,2.57,2.57,0,0,1,2-.94"/><path class="cls-29" d="M335.94,155a4.7,4.7,0,0,1-.1.74,3.11,3.11,0,0,0-1.49-.38,3.3,3.3,0,0,0-.89.13,8.67,8.67,0,0,1-1.58-4,15.46,15.46,0,0,1-7.44.89,10.73,10.73,0,0,1-5.22-1.9,6.74,6.74,0,0,1-2.76-4.69,3.09,3.09,0,0,1,1.08-2.84,3.29,3.29,0,0,1,3-.06c1,.39,1.86,1,2.86,1.28a8,8,0,0,0,5.31-.7,11.12,11.12,0,0,1,3-1,2.73,2.73,0,0,1,2.74,1.14,2.64,2.64,0,0,1,.18,1.95,8.41,8.41,0,0,1-.84,1.83A11.92,11.92,0,0,1,335.94,155Z"/><path class="cls-14" d="M351.69,236.13c-.47.23-.95.45-1.43.65l-.93.38-.94.35-.71.25c-.49.15-1,.3-1.45.43l-.73.2-1,.24c-.65.15-1.31.28-2,.4l-1,.16-1,.14-.71.09-.77.07-.22,0-1,.07h-.07c-1.09.07-2.19.1-3.29.1-.9,0-1.81,0-2.71-.06l-1.94-.11c-.54,0-1.1-.07-1.64-.12l-1.2-.1c-.81-.07-1.63-.16-2.45-.25l-1-.14h-.14l-1-.16-.18,0c-.35,0-.69-.11-1-.18l-.79-.13c-.42-.07-.83-.16-1.25-.25l-.73-.16c-.26,0-.53-.11-.79-.18s-.77-.18-1.15-.28l-1-.28-.78-.23c-.54-.16-1.07-.33-1.6-.52s-.83-.29-1.24-.45c-.35-3.14-.64-6.29-.85-9.44a182.5,182.5,0,0,1,1-36.34c-7-2.93-13.41-7.66-20.41-10.48-9.77-3.94-17.73-11.61-25.27-19a13.64,13.64,0,0,1,4.77-7.25,122.87,122.87,0,0,1,23.58,12.15A86,86,0,0,1,323,173.52a6.69,6.69,0,0,0,12.42-.42c4.5,1.52,11.07,5.3,12.62,8.8a267.44,267.44,0,0,1,2.83,32.2C351.17,221.32,351.35,228.6,351.69,236.13Z"/><path class="cls-14" d="M348,181.9c1.8,4.11,3,12.79,1.58,19.06a31.59,31.59,0,0,1-9.72,16.33c-7.93,7.05-18.87,9.63-29.1,12.44a18.22,18.22,0,0,1-3.83-8,83.2,83.2,0,0,1,22.43-13.31,136.74,136.74,0,0,1,10.42-23.71S345.28,182.32,348,181.9Z"/><path class="cls-31" d="M349,203.29a31.72,31.72,0,0,1-9.08,14c-7.83,7-18.59,9.57-28.71,12.34"/><path class="cls-31" d="M310.59,219a81.5,81.5,0,0,1,18.81-10.49,136.74,136.74,0,0,1,10.42-23.71"/><path class="cls-31" d="M314.48,179.86a67.65,67.65,0,0,0-3.24,18.39"/><path class="cls-31" d="M293.29,166a9,9,0,0,0-2.25,5.6"/><path class="cls-31" d="M329.5,208.5a9.09,9.09,0,0,0,4.45,4.33"/><path class="cls-31" d="M337.84,174.86a12.43,12.43,0,0,1-5.43,4.9,9.2,9.2,0,0,1-7.22.15,7.37,7.37,0,0,1-4.41-5.58"/><path class="cls-31" d="M317.7,189.52a31.59,31.59,0,0,0,8.56,15.78"/><path class="cls-31" d="M347.09,209.59c1,8.94,1.49,17.94,1.57,26.93"/><path class="cls-31" d="M350.88,232.15a47.91,47.91,0,0,1-19,3.43,95.38,95.38,0,0,1-19.24-2.47"/><path class="cls-20" d="M307.14,222.53a9.6,9.6,0,0,0-1.67-.46,4.32,4.32,0,0,0-2.2,0,1.59,1.59,0,0,0-1,1.53,1.64,1.64,0,0,0,.59,1.2,4.54,4.54,0,0,0-1.24,1.19,3.13,3.13,0,0,0-.3,2.25,6.58,6.58,0,0,0,2,4.26,3.68,3.68,0,0,0,4.32-.13,11.65,11.65,0,0,0,3-2.93A18.26,18.26,0,0,1,307.14,222.53Z"/><path class="cls-20" d="M270.78,153.82a13.73,13.73,0,0,0-4.18,6,8.9,8.9,0,0,1-5.56-2.2,6.92,6.92,0,0,1,.81-6.61,23.71,23.71,0,0,1-3.47-3.88c-.19-.27-.38-.63-.22-.92a.64.64,0,0,1,.56-.28,2,2,0,0,1,.63.18A36,36,0,0,1,270.78,153.82Z"/><polygon class="cls-20" points="313.26 349.24 313.84 343.29 305.76 343.29 306.63 349.82 307.73 353.54 311.02 354.2 312.78 352.68 313.26 349.24"/><path class="cls-21" d="M314.08,357.4H296a1.2,1.2,0,0,1-1.2-1.2v-.91a1.2,1.2,0,0,1,.7-1.09l9.84-4.57a1.23,1.23,0,0,1,1.31.19l2.28,2a1.2,1.2,0,0,0,1.61,0l2.74-2.57a1.19,1.19,0,0,1,.82-.32h0a1.2,1.2,0,0,1,1.2,1.2v6.08A1.2,1.2,0,0,1,314.08,357.4Z"/><polygon class="cls-20" points="351.34 349.24 351.92 343.29 343.84 343.29 344.7 349.82 345.81 353.54 349.1 354.2 350.86 352.68 351.34 349.24"/><path class="cls-21" d="M352.16,357.4h-18.1a1.2,1.2,0,0,1-1.2-1.2v-.91a1.2,1.2,0,0,1,.7-1.09l9.84-4.57a1.21,1.21,0,0,1,1.3.19l2.28,2a1.21,1.21,0,0,0,1.62,0l2.74-2.57a1.17,1.17,0,0,1,.82-.32h0a1.2,1.2,0,0,1,1.2,1.2v6.08A1.2,1.2,0,0,1,352.16,357.4Z"/><path class="cls-21" d="M354.07,344.22a15.1,15.1,0,0,1-12.38,0c-2.76-10.52-5.27-20.58-7.51-30.63-2.73-12.24-5.09-24.47-7.07-37.58a48.61,48.61,0,0,1-6.35,19.17,147,147,0,0,1-.21,28.52,152.08,152.08,0,0,1-3.92,21.26A19.28,19.28,0,0,1,303,343.77c.3-6.54.61-12.67.92-18.69.56-10.82,1.14-21.27,1.67-33a250.09,250.09,0,0,1,2.78-26c1.51-9.9,3.31-19.79,4.72-29.57.53.19,1.06.36,1.6.52l.78.23,1,.28c.38.1.76.2,1.15.28s.53.13.79.18l.73.16c.42.09.83.18,1.25.25l.79.13c.34.07.68.13,1,.18l.18,0,1,.16h.14l1,.14c.82.09,1.64.18,2.45.25l1.2.1c.54.05,1.1.08,1.64.12l1.94.11c.9,0,1.81.06,2.71.06,1.1,0,2.2,0,3.29-.1h.07l1-.07.22,0,.77-.07.71-.09,1-.14,1-.16c.66-.12,1.32-.25,2-.4l1-.24.73-.2c.48-.13,1-.28,1.45-.43l.71-.25.94-.35.93-.38a34.28,34.28,0,0,1-3.26,20,122.11,122.11,0,0,1,.47,33.4C351.69,308.43,354.54,325.06,354.07,344.22Z"/><path class="cls-28" d="M327.52,276.87q-4.78-18.39-8.29-37.08"/><path class="cls-28" d="M316.21,239.27c.21,2.72.53,5.44,1,8.13a6.74,6.74,0,0,0,1.22,3.37,4.72,4.72,0,0,0,3.24,1.5,14,14,0,0,0,3.64-.32"/><path class="cls-28" d="M339.39,240.72a22.73,22.73,0,0,0,1,7,8,8,0,0,0,4.61,5.05"/><path class="cls-28" d="M349.46,241.09a61.52,61.52,0,0,1-36.22.36"/><path class="cls-28" d="M331,292.71a17,17,0,0,0,7.21-.2"/><path class="cls-28" d="M306.71,291.28a16.88,16.88,0,0,0,7.32,1"/><path class="cls-28" d="M325.57,275.26a44.67,44.67,0,0,1-7.52,18.5"/><path class="cls-28" d="M318.19,296.55a134.67,134.67,0,0,1-3.64,46.92"/><path class="cls-28" d="M344.91,257.65a118,118,0,0,1,.27,33.47"/><path class="cls-28" d="M345.84,294.52a207.53,207.53,0,0,1,6.06,49.25"/><g class="cls-32"><path class="cls-33" d="M320.55,323.68a152.08,152.08,0,0,1-3.92,21.26A19.28,19.28,0,0,1,303,343.77c.3-6.54.61-12.67.92-18.69A31.14,31.14,0,0,0,320.55,323.68Z"/><path class="cls-33" d="M354.07,344.22a15.1,15.1,0,0,1-12.38,0c-2.76-10.52-5.27-20.58-7.51-30.63,7.38-10.17,7.42-25.18-.06-35.32-5.74-7.77-15.94-12.3-25.78-12.16,1.51-9.9,3.31-19.79,4.72-29.57-.42-.14-.83-.29-1.24-.45-.24-2.14-.46-4.29-.62-6.45,3.09-.84,6.24-1.67,9.35-2.61a48.66,48.66,0,0,0,30.32-12.91c.3,7.22.48,14.5.82,22-.47.23-.95.45-1.43.65a34.28,34.28,0,0,1-3.26,20,122.11,122.11,0,0,1,.47,33.4C351.69,308.43,354.54,325.06,354.07,344.22Z"/></g><polygon class="cls-20" points="48.21 349.24 47.63 343.29 55.71 343.29 54.85 349.82 53.74 353.54 50.45 354.2 48.69 352.68 48.21 349.24"/><path class="cls-21" d="M47.39,357.4h18.1a1.2,1.2,0,0,0,1.2-1.2v-.91A1.2,1.2,0,0,0,66,354.2l-9.85-4.57a1.21,1.21,0,0,0-1.3.19l-2.28,2a1.21,1.21,0,0,1-1.62,0l-2.74-2.57a1.17,1.17,0,0,0-.82-.32h0a1.2,1.2,0,0,0-1.2,1.2v6.08A1.2,1.2,0,0,0,47.39,357.4Z"/><polygon class="cls-20" points="95.63 349.24 94.13 343.29 102.12 343.29 102.27 349.82 101.16 353.54 97.87 354.2 96.11 352.68 95.63 349.24"/><path class="cls-21" d="M94.81,357.4h18.1a1.2,1.2,0,0,0,1.2-1.2v-.91a1.2,1.2,0,0,0-.7-1.09l-9.84-4.57a1.21,1.21,0,0,0-1.3.19l-2.28,2a1.21,1.21,0,0,1-1.62,0l-2.74-2.57a1.17,1.17,0,0,0-.82-.32h0a1.2,1.2,0,0,0-1.2,1.2v6.08A1.2,1.2,0,0,0,94.81,357.4Z"/><path class="cls-21" d="M55,157.78a11.05,11.05,0,0,1-6.56,7.29,8.77,8.77,0,0,1-5.11.45,6.26,6.26,0,0,1-4.08-3,8,8,0,0,1-.69-4.67A12,12,0,0,1,42.53,150a9.36,9.36,0,0,1,6.12-14.89,9.42,9.42,0,0,1,8.58,3.31,8.58,8.58,0,0,1,3-3.26,6.6,6.6,0,0,1,4.23-1,6.75,6.75,0,0,1,5.18,4,9,9,0,0,1,.11,6.64,13.27,13.27,0,0,1-4,5.45C62.45,153,58.6,155.29,55,157.78Z"/><path class="cls-20" d="M67.32,154.86a6.32,6.32,0,0,1-.89-1.37,5.42,5.42,0,0,1-.29-1,53.66,53.66,0,0,0-.68-6.93,7.19,7.19,0,0,1-7,2.59,10.9,10.9,0,0,1-4.68,3.9,3.16,3.16,0,0,0-2-1.12,11.46,11.46,0,0,0,.58,5.92,14,14,0,0,0,7.3,7.16c1.63.68,3.71,1,5-.26a5.21,5.21,0,0,0,1.21-3.27c.14-1.19.24-2.39.3-3.59a1.78,1.78,0,0,0,1.38-.49A1.21,1.21,0,0,0,67.32,154.86Z"/><circle class="cls-20" cx="51.28" cy="154.18" r="3.26"/><path class="cls-20" d="M61.74,171.11a10.32,10.32,0,0,1-6.91,3,10.89,10.89,0,0,1-7.16-3,43.28,43.28,0,0,0,3.49-13.7h.12a3.12,3.12,0,0,0,1.14-.21l.08,0a12.88,12.88,0,0,0,1.37,2.25A13.8,13.8,0,0,0,59.62,164a8,8,0,0,0,1,.35,11.93,11.93,0,0,0,1.11,6.72Z"/><path class="cls-22" d="M65,151.11a2.13,2.13,0,0,0-3.59.68"/><path class="cls-34" d="M63.62,152.27l0,.81"/><path class="cls-8" d="M64.52,158.82a.78.78,0,0,0-.84-.16,2.41,2.41,0,0,0-.93-1.18,1.74,1.74,0,0,0-1.06-.29,1,1,0,0,0-.89.81A2.4,2.4,0,0,0,62,160.2a1.86,1.86,0,0,0,2.27-.07C64.6,159.82,64.88,159.21,64.52,158.82Z"/><path class="cls-23" d="M58.14,155.37c0,.65.88,1.18,2,1.18s2-.53,2-1.18-.89-1.19-2-1.19S58.14,154.71,58.14,155.37Z"/><path class="cls-23" d="M60.7,167.86a8.07,8.07,0,0,1-6.83-8.35A13.8,13.8,0,0,0,59.62,164a8,8,0,0,0,1,.35A11.22,11.22,0,0,0,60.7,167.86Z"/><path class="cls-24" d="M50.52,153.32a2.8,2.8,0,0,1,2.75,2.28,2.44,2.44,0,0,0-2-.47"/><path class="cls-20" d="M122.71,180.54A21.55,21.55,0,0,1,120,185a9.35,9.35,0,0,1,.74,5,5,5,0,0,1-3.1,3.87,117.27,117.27,0,0,1-14.06,15.9c-1.52,1.45-3.23,3-5.32,3.1s-3.86-1-5.47-2.23a45.72,45.72,0,0,1-9.93-10.33,20.42,20.42,0,0,0,8.52-8.28,51.36,51.36,0,0,1,7.7,8.24,103.54,103.54,0,0,1,13.67-10.85,59.35,59.35,0,0,1,9.13-9.89.87.87,0,0,1,.68-.28.58.58,0,0,1,.38.55A1.77,1.77,0,0,1,122.71,180.54Z"/><path class="cls-20" d="M36,224.77a28.62,28.62,0,0,0-2.3,6A51.67,51.67,0,0,1,20,218.49a15.86,15.86,0,0,1-3.5-6.92,13.67,13.67,0,0,1,1.78-8.39c1.25-2.38,2.84-4.47,4.23-6.74A20.74,20.74,0,0,0,32,202.68a40.09,40.09,0,0,1-5.48,7.47A72.29,72.29,0,0,1,36,224.77Z"/><path class="cls-21" d="M104.14,343.72a11,11,0,0,1-11.74,0Q90.07,336,88,328.14a382.22,382.22,0,0,1-8.52-39.06,272.57,272.57,0,0,1-19.23-24.51q-1.78-2.55-3.46-5.15c.14,2.17.29,4.35.43,6.53.51,7.8,1,15.65,1.34,23.43.41,9.23.53,18.58.33,27.94-.19,9.14-.7,18.28-1.54,27.27a24.17,24.17,0,0,1-12.73-1c-3-18.2-5.18-38.1-3.77-55.3Q37.89,273.64,35,259c-1.33-6.73-2.69-13.54-2.41-20.4a31,31,0,0,1,5.1-16.53c.38.11.77.2,1.16.28.56.13,1.13.26,1.7.37,1,.21,2,.39,3,.54l.82.11c1.79.26,3.6.42,5.41.52l1.08.05.75,0h.57c.76,0,1.51,0,2.27,0l.91,0,1.06-.05q.57,0,1.14-.06c.49,0,1-.07,1.46-.12l1.2-.11,1.73-.22c.49-.06,1-.13,1.46-.21l1.44-.25c.48-.08,1-.18,1.44-.28s1-.19,1.44-.31l1.34-.32.16,0,1.35-.36c.47-.12.94-.26,1.4-.4l1.26-.4.25-.08c.49,2.89,1.27,5.82,1.13,8.62,5.35,11.79,10.54,23.73,15,35.91,2.1,5.72,4,11.5,5.72,17.34a227.33,227.33,0,0,1,7.76,44.51C103.57,332.64,103.9,338.18,104.14,343.72Z"/><path class="cls-28" d="M57.25,259.55c-3.37-4.86-6.78-9.78-8.86-15.32s-2.69-11.86-.45-17.33"/><path class="cls-28" d="M41.09,288.1a39.23,39.23,0,0,0,7.35,0"/><path class="cls-28" d="M80.3,289a15.63,15.63,0,0,0,6.4-.83"/><path class="cls-28" d="M73.07,233.87a266.78,266.78,0,0,1,20.05,53.51"/><path class="cls-28" d="M94,290.76a280.31,280.31,0,0,1,8.19,52.16"/><path class="cls-28" d="M55.86,289.58a388.46,388.46,0,0,1-.93,53.07"/><path class="cls-28" d="M73.76,226.12a54.07,54.07,0,0,1-37.71,2.37"/><path class="cls-14" d="M92.51,189.56a20.41,20.41,0,0,1-11.16,11.52c-.65-.44-1.45-.69-2.1-1.13a10.41,10.41,0,0,1-4.47,5.65c0,1.92.14,3.87.31,5.82.24,2.81.59,5.63,1.06,8.36-.87.33-1.76.65-2.66.94l-.25.08-1.26.4c-.46.14-.93.28-1.4.4l-1.35.36-.16,0-1.34.32c-.48.11-1,.22-1.44.31s-1,.2-1.44.28l-1.44.25c-.49.08-1,.15-1.46.21l-1.73.22-1.2.11c-.49.05-1,.09-1.46.12s-.76.05-1.14.06l-1.06.05-.91,0c-.76,0-1.51,0-2.27,0h-.57l-.75,0-1.08-.05c-1.81-.1-3.62-.26-5.41-.52l-.82-.11c-1-.15-2-.33-3-.54-.57-.11-1.14-.24-1.7-.37-.39-.08-.78-.17-1.16-.28-.86-.21-1.7-.44-2.54-.69a85,85,0,0,0,4-15.28c-.56-1.46-1.08-2.89-1.48-4.33a21.83,21.83,0,0,1-.74-4.25c-1.13,1.79-2.37,3.8-3.5,5.58a20.71,20.71,0,0,1-12.37-8.53c2.66-5.57,6.59-10.41,10.47-15.19a25.13,25.13,0,0,1,4.08-4.29c3.39-2.6,7.82-3.33,12.05-4a10.89,10.89,0,0,0,7.16,3,10.32,10.32,0,0,0,6.91-3c4.35,0,8.84.22,12.72,2.16a28.88,28.88,0,0,1,6.51,5C84.83,181.89,88.65,186,92.51,189.56Z"/><path class="cls-27" d="M35.88,183.41a64.18,64.18,0,0,0,1.83,17.41"/><path class="cls-27" d="M81.37,200.47a16.71,16.71,0,0,1-9.43-24.28"/><path class="cls-27" d="M36.76,196a10.84,10.84,0,0,1-2.21-5.52"/><path class="cls-27" d="M74.61,217.51a75.9,75.9,0,0,1-37.37,2.15"/><path class="cls-27" d="M72.43,195.87A29.26,29.26,0,0,0,73.49,220"/><path class="cls-27" d="M63.87,172.17a12,12,0,0,1-16.54.45"/><path class="cls-27" d="M64.22,185.73a64.46,64.46,0,0,1-19.64,23.61"/><path class="cls-19" d="M103.09,327.1a60,60,0,0,1-15.13,1q2.1,7.83,4.44,15.62a11,11,0,0,0,11.74,0C103.9,338.18,103.57,332.64,103.09,327.1ZM74.62,229.34c.14-2.8-.64-5.73-1.13-8.62.9-.29,1.79-.61,2.66-.94-.47-2.73-.82-5.55-1.06-8.36a59.17,59.17,0,0,1-12.54.66A42.78,42.78,0,0,1,44.18,207a20.76,20.76,0,0,1-6.5-5.22c.4,1.44.92,2.87,1.48,4.33a85,85,0,0,1-4,15.28c.84.25,1.68.48,2.54.69a31,31,0,0,0-5.1,16.53c-.28,6.86,1.08,13.67,2.41,20.4q2.94,14.65,5.85,29.3c-1.41,17.2.79,37.1,3.77,55.3a24.17,24.17,0,0,0,12.73,1c.84-9,1.35-18.13,1.54-27.27-1.13-.87-2.23-1.8-3.28-2.77C47.86,307.38,42,297,42.88,286.2a23.54,23.54,0,0,1,5.86-13.72A29,29,0,0,1,57.18,266c-.14-2.18-.29-4.36-.43-6.53q1.68,2.59,3.46,5.15l.82-.3a38,38,0,0,1,17.12-1.68,54,54,0,0,1,9,1.88c.82.24,1.65.5,2.47.78C85.16,253.07,80,241.13,74.62,229.34Z"/></g></g></svg>